<svg width="94" height="38" viewBox="0 0 94 38" fill="none" xmlns="http://www.w3.org/2000/svg">
<path d="M78.9131 19.4956C81.8067 19.4767 81.8067 19.4767 84.7587 19.4573C85.3679 19.4517 85.977 19.4461 86.6046 19.4404C87.3484 19.4376 87.3484 19.4376 87.6965 19.4371C87.9397 19.4365 88.1829 19.4343 88.4261 19.4309C88.7365 19.4265 89.0467 19.4254 89.3571 19.4263C89.471 19.4261 89.5848 19.4249 89.6986 19.4225C90.5937 19.4047 90.5937 19.4047 90.8316 19.6288C90.9582 19.777 91.0451 19.9357 91.1331 20.1093C91.1842 20.187 91.236 20.2642 91.2891 20.3405C91.3335 20.4107 91.3774 20.4812 91.421 20.5519C91.4447 20.5902 91.4684 20.6286 91.4929 20.6682C91.5617 20.7804 91.6296 20.8931 91.6971 21.0062C91.7149 21.036 91.7327 21.0658 91.7511 21.0965C93.1083 23.4051 93.4558 26.3056 92.7961 28.8832C92.3608 30.5264 91.7114 32.0268 90.6631 33.3739C90.6438 33.3988 90.6244 33.4238 90.6045 33.4495C89.552 34.7907 88.2663 35.7687 86.6681 36.3478C86.6335 36.3606 86.599 36.3735 86.5634 36.3867C84.1052 37.2922 81.4961 37.2447 78.9131 37.2447C78.9131 31.3875 78.9131 25.5303 78.9131 19.4956Z" fill="white" fill-opacity="0.8"/>
<path d="M50.8535 19.4957C53.7486 19.4811 53.7486 19.4811 56.7021 19.4662C57.6165 19.4597 57.6165 19.4597 58.5493 19.4531C59.2932 19.451 59.2932 19.451 59.6414 19.4506C59.8848 19.4502 60.1281 19.4484 60.3715 19.4458C60.682 19.4425 60.9924 19.4416 61.3029 19.4423C61.4168 19.4422 61.5307 19.4412 61.6446 19.4394C62.4962 19.4264 62.4962 19.4264 62.7615 19.5976C62.8699 19.7162 62.9481 19.8279 63.0265 19.9677C63.0751 20.0323 63.1243 20.0963 63.1747 20.1595C63.2188 20.2211 63.2624 20.2831 63.3056 20.3454C63.341 20.3962 63.341 20.3962 63.3771 20.4482C64.9527 22.7543 65.4038 25.6897 64.9036 28.4145C64.5403 30.2637 63.6868 31.9967 62.4625 33.4211C62.4311 33.458 62.3996 33.4948 62.3672 33.5327C62.2601 33.6551 62.1506 33.7745 62.0395 33.8932C62.0149 33.9195 61.9903 33.9458 61.965 33.9729C59.7153 36.3588 56.5088 37.0594 53.3504 37.23C52.5184 37.2515 51.6858 37.2447 50.8535 37.2447C50.8535 31.3875 50.8535 25.5304 50.8535 19.4957Z" fill="white" fill-opacity="0.8"/>
<path d="M19.6465 19.4957C23.3689 19.4957 27.0913 19.4957 30.9265 19.4957C31.0827 19.8723 31.233 20.247 31.3722 20.6297C31.3916 20.6827 31.411 20.7357 31.431 20.7902C31.494 20.9625 31.5569 21.1348 31.6197 21.3072C31.6641 21.4286 31.7085 21.5499 31.7529 21.6713C31.8204 21.8558 31.8879 22.0403 31.9554 22.2248C32.1364 22.72 32.3183 23.215 32.5005 23.7098C32.8361 24.6205 33.1704 25.5318 33.5046 26.4431C33.7806 27.1958 34.057 27.9483 34.334 28.7006C34.611 29.453 34.8874 30.2056 35.1634 30.9583C35.6201 32.2038 35.6201 32.2038 36.0776 33.4491C36.1096 33.5361 36.1416 33.6232 36.1735 33.7102C36.3698 34.2446 36.5679 34.7784 36.7675 35.3115C36.8299 35.4786 36.8924 35.6456 36.9548 35.8127C37.0148 35.9732 37.0752 36.1335 37.1356 36.2939C37.1722 36.3916 37.2087 36.4894 37.2452 36.5872C37.2622 36.632 37.2792 36.6768 37.2967 36.7229C37.3121 36.7642 37.3274 36.8054 37.3432 36.8479C37.3566 36.8837 37.3701 36.9195 37.384 36.9564C37.4125 37.0559 37.4125 37.0559 37.4125 37.2447C34.3725 37.2447 31.3326 37.2447 28.2005 37.2447C28.0816 36.9464 27.9681 36.6525 27.8678 36.3483C27.8547 36.3087 27.8415 36.2691 27.8279 36.2282C27.7846 36.0981 27.7416 35.9678 27.6985 35.8376C27.6677 35.7447 27.6369 35.6518 27.6061 35.559C27.5413 35.3636 27.4766 35.1683 27.4119 34.9729C27.3313 34.7292 27.2505 34.4855 27.1696 34.2418C26.8109 33.1609 26.4554 32.079 26.1053 30.9953C26.0858 30.935 26.0858 30.935 26.0659 30.8734C26.0421 30.7996 26.0182 30.7258 25.9944 30.6519C25.9164 30.4101 25.8365 30.1691 25.7565 29.928C22.732 29.9046 22.732 29.9046 19.6465 29.8808C19.6465 26.4537 19.6465 23.0266 19.6465 19.4957Z" fill="white" fill-opacity="0.8"/>
<path d="M7.66128 19.4957C11.4147 19.4957 15.1681 19.4957 19.0353 19.4957C19.0353 22.9227 19.0353 26.3498 19.0353 29.8808C17.0655 29.8808 15.0957 29.8808 13.0663 29.8808C13.0508 29.9586 13.0353 30.0365 13.0193 30.1168C12.9976 30.185 12.9744 30.2528 12.9497 30.32C12.9355 30.359 12.9212 30.3981 12.9066 30.4383C12.891 30.4805 12.8754 30.5227 12.8594 30.5662C12.843 30.611 12.8266 30.6558 12.8097 30.7019C12.7554 30.8502 12.7008 30.9983 12.6462 31.1464C12.6078 31.251 12.5694 31.3556 12.531 31.4602C12.1713 32.4389 11.8071 33.416 11.441 34.3923C11.3493 34.6367 11.2579 34.8813 11.1665 35.1258C11.0681 35.3889 10.9697 35.6519 10.8712 35.9149C10.8288 36.028 10.7864 36.1412 10.7441 36.2545C10.6855 36.4114 10.6266 36.5684 10.5678 36.7253C10.5501 36.7726 10.5325 36.8199 10.5143 36.8686C10.4982 36.9114 10.4821 36.9543 10.4655 36.9985C10.4514 37.036 10.4374 37.0735 10.4229 37.1121C10.3873 37.1975 10.3873 37.1975 10.3403 37.2447C10.2244 37.2493 10.1098 37.2509 9.99383 37.2504C9.95713 37.2505 9.92043 37.2505 9.88262 37.2505C9.75871 37.2506 9.6348 37.2504 9.51088 37.2501C9.42244 37.2501 9.33399 37.2501 9.24554 37.2501C9.00462 37.2501 8.76371 37.2499 8.5228 37.2495C8.27132 37.2492 8.01985 37.2492 7.76837 37.2491C7.29181 37.249 6.81526 37.2486 6.3387 37.2481C5.7963 37.2476 5.25391 37.2474 4.71151 37.2471C3.59544 37.2466 2.47936 37.2458 1.36328 37.2447C1.38912 37.0547 1.41434 36.878 1.47985 36.6976C1.49409 36.6579 1.50833 36.6182 1.523 36.5772C1.53857 36.5348 1.55415 36.4924 1.57019 36.4487C1.58658 36.4033 1.60297 36.3578 1.61985 36.311C1.67406 36.1609 1.7287 36.011 1.78334 35.861C1.82189 35.7545 1.8604 35.648 1.89888 35.5414C1.97868 35.3205 2.05863 35.0997 2.13869 34.8789C2.29818 34.4387 2.45602 33.998 2.61379 33.5572C2.66526 33.4134 2.71678 33.2696 2.76831 33.1259C3.06015 32.3118 3.35148 31.4975 3.64278 30.6832C4.07052 29.4876 4.49872 28.2921 4.92732 27.0968C5.08464 26.6581 5.2419 26.2193 5.39917 25.7805C5.48737 25.5344 5.57558 25.2883 5.66378 25.0423C5.69903 24.9439 5.73428 24.8456 5.76953 24.7472C5.98103 24.1572 5.98103 24.1572 6.03389 24.0097C6.06918 23.9112 6.10447 23.8128 6.13976 23.7143C6.22729 23.4701 6.31483 23.2259 6.40238 22.9817C6.56809 22.5195 6.73373 22.0572 6.89919 21.5949C6.97763 21.3757 7.0561 21.1566 7.13457 20.9375C7.17209 20.8327 7.20959 20.7279 7.24707 20.6231C7.29894 20.4781 7.35085 20.3331 7.40278 20.1881C7.41811 20.1452 7.43344 20.1022 7.44924 20.058C7.46348 20.0183 7.47771 19.9786 7.49237 19.9377C7.50464 19.9034 7.51691 19.8691 7.52955 19.8338C7.57148 19.7203 7.61653 19.608 7.66128 19.4957Z" fill="white" fill-opacity="0.8"/>
<path d="M39.7617 19.4957C43.236 19.4957 46.7102 19.4957 50.2897 19.4957C50.2897 25.3529 50.2897 31.2101 50.2897 37.2447C46.8155 37.2447 43.3412 37.2447 39.7617 37.2447C39.7617 31.3875 39.7617 25.5303 39.7617 19.4957Z" fill="white" fill-opacity="0.8"/>
<path d="M39.7617 1.03851C43.236 1.03851 46.7102 1.03851 50.2897 1.03851C50.2897 6.89571 50.2897 12.7529 50.2897 18.7876C46.8155 18.7876 43.3412 18.7876 39.7617 18.7876C39.7617 12.9304 39.7617 7.0732 39.7617 1.03851Z" fill="white" fill-opacity="0.8"/>
<path d="M67.8682 19.4957C71.3114 19.4957 74.7546 19.4957 78.3022 19.4957C78.3022 25.3529 78.3022 31.2101 78.3022 37.2447C74.8589 37.2447 71.4157 37.2447 67.8682 37.2447C67.8682 31.3875 67.8682 25.5303 67.8682 19.4957Z" fill="white" fill-opacity="0.8"/>
<path d="M67.8682 1.03851C71.3114 1.03851 74.7546 1.03851 78.3022 1.03851C78.3022 6.89571 78.3022 12.7529 78.3022 18.7876C74.8589 18.7876 71.4157 18.7876 67.8682 18.7876C67.8682 12.9304 67.8682 7.0732 67.8682 1.03851Z" fill="white" fill-opacity="0.8"/>
<path d="M80.0943 0.98174C80.1464 0.981409 80.1985 0.981078 80.2521 0.980737C80.4187 0.979917 80.5853 0.979611 80.752 0.979528C80.8089 0.979496 80.8658 0.979464 80.9244 0.979431C81.7352 0.980153 82.5304 0.991985 83.3311 1.13294C83.3805 1.1413 83.43 1.14965 83.481 1.15825C84.1367 1.27139 84.7735 1.42365 85.3991 1.6522C85.4327 1.66447 85.4664 1.67675 85.501 1.6894C86.4774 2.05365 87.3216 2.5851 88.0781 3.30437C88.1196 3.34307 88.1612 3.38177 88.204 3.42165C88.7812 3.97668 89.1912 4.63059 89.575 5.33013C89.6195 5.41111 89.6651 5.49149 89.711 5.57169C90.3296 6.71366 90.5328 8.05489 90.5338 9.33776C90.5339 9.37216 90.5339 9.40657 90.5339 9.44201C90.5303 11.9628 89.4477 13.9758 87.7256 15.7517C87.497 15.9788 87.2488 16.1798 86.9971 16.3801C86.9187 16.4431 86.8404 16.506 86.7621 16.569C86.7947 16.5846 86.8273 16.6002 86.8608 16.6163C88.0088 17.1702 89.0358 17.7954 89.9111 18.7404C89.9111 18.756 89.9111 18.7716 89.9111 18.7876C86.2817 18.7876 82.6524 18.7876 78.9131 18.7876C78.9131 12.9304 78.9131 7.07322 78.9131 1.03853C79.3101 1.00786 79.6975 0.983444 80.0943 0.98174Z" fill="white" fill-opacity="0.8"/>
<path d="M60.035 3.349C61.6048 4.89719 62.4438 7.06938 62.4739 9.263C62.4807 11.5989 61.7491 13.5889 60.1595 15.2944C60.0814 15.3733 60.003 15.4519 59.9245 15.5304C59.8901 15.5666 59.8557 15.6028 59.8202 15.6401C59.5565 15.9145 59.2783 16.1475 58.9744 16.374C58.874 16.4511 58.7898 16.5258 58.7025 16.6161C58.7468 16.6393 58.7468 16.6393 58.7921 16.6629C59.0296 16.787 59.2669 16.9114 59.5041 17.0362C59.6604 17.1184 59.8169 17.1999 59.9748 17.2789C60.2717 17.4305 60.5077 17.5973 60.7489 17.8282C60.9916 18.0584 61.257 18.2638 61.5187 18.4717C61.5616 18.5058 61.6046 18.54 61.6488 18.5751C61.6878 18.6058 61.7267 18.6365 61.7669 18.6681C61.7948 18.6919 61.8227 18.7158 61.8515 18.7404C61.8515 18.7559 61.8515 18.7715 61.8515 18.7876C58.2222 18.7876 54.5928 18.7876 50.8535 18.7876C50.8535 12.9304 50.8535 7.07319 50.8535 1.0385C54.0496 0.746681 57.5983 1.01873 60.035 3.349Z" fill="white" fill-opacity="0.8"/>
<path d="M13.677 1.03851C15.4451 1.03851 17.2133 1.03851 19.035 1.03851C19.035 6.89571 19.035 12.7529 19.035 18.7876C15.2971 18.7876 11.5592 18.7876 7.70801 18.7876C8.36136 16.819 8.36136 16.819 8.64323 15.9783C8.67563 15.8817 8.70802 15.785 8.74041 15.6884C8.80728 15.4889 8.87417 15.2893 8.94107 15.0898C9.00797 14.8903 9.07485 14.6908 9.14169 14.4912C9.49381 13.4401 9.84693 12.3894 10.2043 11.3401C10.4722 10.5536 10.7374 9.76627 11.0018 8.97862C11.134 8.58463 11.2664 8.19069 11.3988 7.79675C11.4185 7.73798 11.4185 7.73798 11.4387 7.67802C11.6788 6.96337 11.9198 6.24899 12.1613 5.53479C12.4849 4.57754 12.808 3.62011 13.1306 2.66253C13.1657 2.55854 13.2007 2.45455 13.2358 2.35057C13.2905 2.18806 13.3453 2.02555 13.4 1.86304C13.43 1.7742 13.4599 1.68536 13.4898 1.59651C13.5077 1.54352 13.5255 1.49052 13.5439 1.43592C13.5595 1.3897 13.5751 1.34348 13.5911 1.29586C13.6199 1.21013 13.6485 1.12434 13.677 1.03851Z" fill="white" fill-opacity="0.8"/>
<path d="M19.6465 1.03851C21.3991 1.03851 23.1517 1.03851 24.9575 1.03851C25.169 1.56956 25.169 1.56956 25.2333 1.76398C25.248 1.8083 25.2627 1.85263 25.2779 1.89829C25.301 1.96865 25.301 1.96865 25.3246 2.04043C25.3415 2.09126 25.3583 2.14209 25.3757 2.19446C25.4312 2.36185 25.4864 2.52931 25.5417 2.69677C25.5809 2.81529 25.6202 2.93381 25.6594 3.05232C25.763 3.36497 25.8664 3.67768 25.9697 3.99041C26.1234 4.45525 26.2772 4.92004 26.4311 5.38478C26.4973 5.58459 26.5633 5.78444 26.6293 5.98431C26.8321 6.59754 27.038 7.20961 27.2464 7.82091C27.6227 8.92429 27.991 10.0303 28.3581 11.1368C28.4471 11.4053 28.5363 11.6739 28.6255 11.9424C28.7742 12.3906 28.923 12.8389 29.0717 13.2872C29.2436 13.8054 29.4156 14.3236 29.5877 14.8418C29.7364 15.2898 29.8851 15.7378 30.0338 16.1858C30.1222 16.4522 30.2106 16.7186 30.299 16.9849C30.3816 17.2335 30.464 17.4821 30.5465 17.7307C30.5768 17.8221 30.6071 17.9134 30.6374 18.0047C30.6786 18.1287 30.7197 18.2527 30.7608 18.3768C30.773 18.4133 30.7851 18.4499 30.7977 18.4876C30.8795 18.735 30.8795 18.735 30.8795 18.7876C27.1726 18.7876 23.4657 18.7876 19.6465 18.7876C19.6465 12.9304 19.6465 7.0732 19.6465 1.03851Z" fill="white" fill-opacity="0.8"/>
</svg>
