<svg width="155" height="38" viewBox="0 0 155 38" fill="none" xmlns="http://www.w3.org/2000/svg">
<g clip-path="url(#clip0_455_47)">
<path d="M120.435 0C121.744 0 123.053 0 124.403 0C124.403 12.4379 124.403 24.8758 124.403 37.6906C123.185 37.6906 121.968 37.6906 120.714 37.6906C120.714 37.0676 120.714 36.4447 120.714 35.8029C120.609 35.9077 120.539 35.9791 120.462 36.0969C119.802 37.0533 118.748 37.7576 117.599 37.9717C116.905 38.0822 116.202 38.0279 115.568 37.7215C115.539 37.7079 115.51 37.6942 115.481 37.6802C114.529 37.195 113.998 36.1992 113.68 35.2255C113.286 33.9689 113.259 32.6985 113.261 31.3951C113.262 31.2145 113.261 31.034 113.261 30.8534C113.261 30.462 113.261 30.0706 113.261 29.6792C113.261 29.3367 113.261 28.9942 113.261 28.6516C113.261 28.6288 113.261 28.606 113.261 28.5824C113.261 28.4897 113.261 28.3969 113.261 28.3042C113.261 27.4366 113.261 26.569 113.261 25.7013C113.262 24.9327 113.262 24.1642 113.261 23.3956C113.261 22.5294 113.261 21.6632 113.261 20.7971C113.261 20.7045 113.261 20.6119 113.261 20.5194C113.261 20.4966 113.261 20.4738 113.261 20.4503C113.261 20.1083 113.261 19.7662 113.261 19.4241C113.261 19.0346 113.261 18.6451 113.261 18.2557C113.261 18.0574 113.262 17.8591 113.261 17.6608C113.258 15.7132 113.345 13.5367 114.762 12.0375C114.793 12.0021 114.793 12.0021 114.826 11.966C115.334 11.4238 116.071 11.1765 116.799 11.1332C117.846 11.109 118.857 11.4825 119.618 12.2005C119.934 12.5089 120.187 12.875 120.373 13.2752C120.373 13.2957 120.373 13.3161 120.373 13.3371C120.393 13.3371 120.413 13.3371 120.435 13.3371C120.435 8.93588 120.435 4.53463 120.435 0ZM117.862 14.9377C116.986 15.9289 117.17 17.6889 117.171 18.9141C117.172 19.0836 117.171 19.2531 117.171 19.4226C117.171 19.7534 117.171 20.0841 117.171 20.4149C117.171 20.6841 117.171 20.9533 117.171 21.2225C117.171 21.261 117.171 21.2995 117.171 21.3392C117.171 21.4175 117.171 21.4958 117.171 21.574C117.171 22.2849 117.171 22.9957 117.172 23.7066C117.172 24.3532 117.172 24.9999 117.171 25.6465C117.171 26.3757 117.171 27.105 117.171 27.8342C117.171 27.9122 117.171 27.9902 117.171 28.0681C117.171 28.1065 117.171 28.1449 117.171 28.1844C117.171 28.4528 117.171 28.7212 117.171 28.9896C117.171 29.3173 117.171 29.6451 117.171 29.9728C117.171 30.1396 117.172 30.3064 117.171 30.4731C117.082 32.6379 117.082 32.6379 117.94 34.5303C118.243 34.7913 118.564 34.859 118.954 34.8536C119.283 34.8256 119.545 34.6617 119.784 34.4414C120.238 33.8915 120.44 33.155 120.439 32.4487C120.439 32.4111 120.439 32.4111 120.439 32.3727C120.439 32.2889 120.439 32.2051 120.439 32.1213C120.439 32.0605 120.439 31.9997 120.439 31.9389C120.439 31.7719 120.44 31.605 120.44 31.438C120.44 31.2579 120.44 31.0778 120.44 30.8976C120.44 30.5036 120.441 30.1096 120.441 29.7156C120.441 29.4693 120.441 29.2229 120.441 28.9766C120.442 28.2937 120.442 27.6108 120.442 26.9279C120.442 26.8838 120.442 26.8396 120.442 26.7955C120.442 26.7512 120.442 26.707 120.442 26.6627C120.442 26.5739 120.442 26.4852 120.442 26.3964C120.442 26.3744 120.442 26.3524 120.442 26.3297C120.442 25.6177 120.443 24.9056 120.443 24.1936C120.444 23.4395 120.445 22.6854 120.445 21.9313C120.445 21.8483 120.445 21.7652 120.445 21.6822C120.445 21.6617 120.445 21.6413 120.445 21.6202C120.445 21.3134 120.445 21.0065 120.445 20.6997C120.446 20.3498 120.446 19.9998 120.446 19.6499C120.446 19.4717 120.446 19.2935 120.446 19.1154C120.507 16.9018 120.507 16.9018 119.593 14.9672C119.1 14.5189 118.361 14.4754 117.862 14.9377Z" fill="white" fill-opacity="0.8"/>
<path d="M72.4473 0C73.7465 0 75.0457 0 76.3843 0C76.3843 4.40125 76.3843 8.80251 76.3843 13.3371C76.4047 13.3371 76.4252 13.3371 76.4463 13.3371C76.4537 13.3113 76.4611 13.2855 76.4688 13.2589C76.6054 12.887 76.8711 12.5748 77.1474 12.2974C77.186 12.2584 77.2234 12.2184 77.2606 12.1782C77.8999 11.501 78.8586 11.1797 79.7719 11.1351C80.6327 11.114 81.396 11.3949 82.0263 11.9756C82.0465 11.9932 82.0667 12.0109 82.0875 12.0291C82.7781 12.6645 83.1216 13.6567 83.3283 14.544C83.3342 14.5696 83.3402 14.5952 83.3464 14.6216C83.5233 15.3988 83.581 16.1838 83.5806 16.9785C83.5807 17.0464 83.5808 17.1144 83.5809 17.1824C83.5811 17.3684 83.5812 17.5545 83.5812 17.7405C83.5813 17.9415 83.5815 18.1425 83.5817 18.3435C83.5822 18.8055 83.5823 19.2676 83.5825 19.7297C83.5826 19.9584 83.5827 20.1872 83.5828 20.4159C83.5832 21.2001 83.5835 21.9842 83.5836 22.7684C83.5836 22.8176 83.5836 22.8668 83.5837 22.9159C83.5837 22.9652 83.5837 23.0145 83.5837 23.0638C83.5837 23.1627 83.5837 23.2615 83.5837 23.3604C83.5837 23.3972 83.5837 23.3972 83.5837 23.4347C83.5838 24.2285 83.5843 25.0222 83.5851 25.816C83.5858 26.6568 83.5862 27.4975 83.5863 28.3383C83.5863 28.4308 83.5863 28.5233 83.5863 28.6158C83.5863 28.6386 83.5863 28.6614 83.5863 28.6848C83.5863 29.0495 83.5867 29.4142 83.5871 29.7788C83.5876 30.1463 83.5877 30.5137 83.5874 30.8812C83.5873 31.0798 83.5873 31.2784 83.5878 31.477C83.591 33.037 83.591 33.037 83.4833 33.7915C83.4786 33.824 83.474 33.8565 83.4692 33.89C83.2787 35.1931 82.8174 36.6288 81.7222 37.4578C81.1807 37.8468 80.5661 38.0126 79.9047 38.0116C79.8742 38.0116 79.8742 38.0116 79.843 38.0115C78.7989 38.007 77.8313 37.5982 77.072 36.8862C77.0038 36.8221 77.0038 36.8221 76.9243 36.7609C76.7467 36.6176 76.6112 36.4288 76.4715 36.2497C76.4586 36.2333 76.4457 36.2169 76.4324 36.2C76.3659 36.1138 76.3074 36.0268 76.2548 35.9317C76.2094 35.8323 76.2094 35.8323 76.1363 35.8029C76.1363 36.4258 76.1363 37.0488 76.1363 37.6906C74.9189 37.6906 73.7015 37.6906 72.4473 37.6906C72.4473 25.2527 72.4473 12.8148 72.4473 0ZM77.1814 15.0345C76.2276 16.2273 76.3744 18.1026 76.3762 19.5356C76.3763 19.7088 76.3761 19.8821 76.3759 20.0553C76.3756 20.3932 76.3757 20.7311 76.3759 21.069C76.376 21.3437 76.376 21.6185 76.376 21.8932C76.376 21.9325 76.3759 21.9718 76.3759 22.0123C76.3759 22.0922 76.3759 22.172 76.3759 22.2519C76.3757 22.9768 76.3759 23.7017 76.3762 24.4266C76.3765 25.087 76.3765 25.7473 76.3762 26.4077C76.3758 27.152 76.3757 27.8963 76.3759 28.6406C76.3759 28.72 76.3759 28.7994 76.376 28.8789C76.376 28.9179 76.376 28.957 76.376 28.9973C76.3761 29.2716 76.376 29.546 76.3758 29.8204C76.3756 30.1548 76.3757 30.4891 76.376 30.8235C76.3762 30.9939 76.3762 31.1642 76.376 31.3346C76.3759 31.4908 76.376 31.6471 76.3763 31.8033C76.3764 31.8595 76.3763 31.9157 76.3762 31.9719C76.375 32.4353 76.3895 32.906 76.518 33.3544C76.5247 33.3788 76.5315 33.4032 76.5384 33.4284C76.6844 33.94 76.9257 34.4449 77.4061 34.7189C77.7316 34.8833 78.0773 34.8906 78.4283 34.7934C78.7806 34.67 79.0372 34.4106 79.2111 34.0836C79.7158 32.9954 79.6488 31.7144 79.6474 30.5435C79.6472 30.369 79.6474 30.1946 79.6476 30.0202C79.6479 29.6796 79.6478 29.339 79.6477 28.9983C79.6475 28.7213 79.6475 28.4442 79.6476 28.1671C79.6476 28.1077 79.6476 28.1077 79.6476 28.0471C79.6476 27.9666 79.6476 27.8861 79.6477 27.8056C79.6478 27.0744 79.6476 26.3431 79.6473 25.6119C79.647 24.9462 79.6471 24.2804 79.6473 23.6147C79.6477 22.8645 79.6478 22.1142 79.6476 21.364C79.6476 21.2839 79.6476 21.2037 79.6476 21.1235C79.6476 21.0841 79.6475 21.0447 79.6475 21.0041C79.6475 20.7276 79.6476 20.4512 79.6477 20.1748C79.6479 19.8375 79.6478 19.5001 79.6475 19.1628C79.6474 18.991 79.6473 18.8193 79.6475 18.6475C79.7246 16.6606 79.7246 16.6606 78.9437 14.9134C78.7196 14.7071 78.475 14.6172 78.1704 14.6022C77.7867 14.6194 77.4443 14.7518 77.1814 15.0345Z" fill="white" fill-opacity="0.8"/>
<path d="M22.0099 12.0065C22.0579 12.0408 22.0579 12.0408 22.1068 12.0757C22.6596 12.4797 23.0606 12.9797 23.3739 13.5847C23.3886 13.6128 23.3886 13.6128 23.4036 13.6415C24.0329 14.8634 24.1232 16.274 24.1216 17.622C24.1216 17.7087 24.1217 17.7953 24.1217 17.882C24.1218 18.07 24.1217 18.258 24.1216 18.4459C24.1214 18.7254 24.1214 19.0049 24.1214 19.2844C24.1215 19.7546 24.1214 20.2249 24.1212 20.6951C24.121 21.1605 24.1209 21.6259 24.1208 22.0913C24.1208 22.1203 24.1208 22.1493 24.1208 22.1791C24.1208 22.3262 24.1208 22.4734 24.1208 22.6205C24.1207 23.6618 24.1205 24.7031 24.1202 25.7444C24.12 26.7558 24.1197 27.7673 24.1196 28.7787C24.1196 28.8099 24.1196 28.8411 24.1196 28.8732C24.1195 29.1865 24.1195 29.4997 24.1195 29.813C24.1194 30.4511 24.1193 31.0892 24.1192 31.7273C24.1192 31.7566 24.1192 31.786 24.1192 31.8162C24.119 33.3335 24.1186 34.8509 24.1182 36.3682C24.1182 36.3895 24.1182 36.4109 24.1182 36.4329C24.1181 36.8521 24.118 37.2713 24.1179 37.6906C22.9005 37.6906 21.6832 37.6906 20.4289 37.6906C20.4187 36.8328 20.4084 35.975 20.3979 35.0912C20.2308 35.3136 20.0712 35.5289 19.9232 35.7623C19.2436 36.8161 18.4645 37.6493 17.1939 37.9557C16.9346 38.0104 16.6761 38.011 16.4125 38.0097C16.3891 38.0096 16.3657 38.0096 16.3417 38.0095C15.463 38.0059 14.6794 37.8159 14.0304 37.1849C12.7742 35.8624 12.7379 33.5506 12.6943 31.8403C12.6925 31.7696 12.6905 31.6989 12.6884 31.6282C12.668 30.8822 12.6782 30.1357 12.6905 29.3897C12.6912 29.3495 12.6919 29.3094 12.6925 29.2681C12.7546 25.6504 12.7546 25.6504 13.3299 24.2297C13.3425 24.1984 13.3425 24.1984 13.3554 24.1664C13.5906 23.5974 13.9604 23.0916 14.3529 22.6205C14.3744 22.5943 14.396 22.568 14.4182 22.541C15.1565 21.6731 16.3309 21.4978 17.4048 21.4044C17.8491 21.3685 18.294 21.3468 18.7394 21.3325C18.7768 21.3312 18.8142 21.33 18.8527 21.3287C19.1463 21.3205 19.4398 21.3203 19.7335 21.3206C19.777 21.3206 19.8206 21.3206 19.8641 21.3206C19.9697 21.3207 20.0753 21.3208 20.1809 21.3209C20.1783 20.7177 20.1753 20.1146 20.172 19.5115C20.1704 19.2314 20.169 18.9513 20.1678 18.6712C20.1668 18.4268 20.1656 18.1824 20.1641 17.938C20.1633 17.8089 20.1626 17.6797 20.1622 17.5505C20.2012 16.184 20.2012 16.184 19.6287 14.9908C19.2971 14.6956 18.8563 14.6169 18.4236 14.6388C18.0214 14.6687 17.6634 14.7802 17.3841 15.0826C16.9558 15.6251 16.943 16.3361 16.941 16.9955C16.9406 17.0527 16.94 17.11 16.9395 17.1672C16.9377 17.3765 16.9367 17.5858 16.9356 17.7951C16.9308 18.4988 16.9308 18.4988 16.9259 19.2166C15.6267 19.2166 14.3275 19.2166 12.9889 19.2166C12.987 18.7284 12.9851 18.2401 12.9831 17.7371C12.9822 17.5848 12.9814 17.4324 12.9805 17.2755C12.9749 15.5369 13.1547 13.7918 14.4246 12.4823C16.1846 10.7669 20.0341 10.5754 22.0099 12.0065ZM17.4396 25.3716C16.5691 26.3828 16.6421 28.1397 16.6417 29.3911C16.6416 29.4582 16.6415 29.5252 16.6414 29.5923C16.6412 29.7322 16.6411 29.8721 16.6412 30.012C16.6412 30.1535 16.6409 30.2949 16.6405 30.4363C16.5192 32.4296 16.5192 32.4296 17.1695 34.2302C17.4377 34.4974 17.7542 34.5454 18.1194 34.5497C18.3823 34.5476 18.6042 34.5138 18.8479 34.4104C18.8818 34.397 18.8818 34.397 18.9164 34.3834C19.4298 34.1565 19.7296 33.6743 19.9263 33.1723C20.1098 32.6702 20.1864 32.1306 20.1846 31.5977C20.1847 31.5685 20.1847 31.5393 20.1847 31.5092C20.1848 31.4122 20.1846 31.3153 20.1844 31.2183C20.1844 31.1484 20.1844 31.0786 20.1844 31.0087C20.1844 30.8197 20.1843 30.6307 20.184 30.4416C20.1838 30.2438 20.1838 30.0461 20.1838 29.8483C20.1837 29.5165 20.1835 29.1847 20.1832 28.853C20.183 28.5114 20.1827 28.1698 20.1826 27.8282C20.1826 27.7966 20.1826 27.7966 20.1826 27.7643C20.1825 27.6585 20.1825 27.5527 20.1825 27.447C20.1821 26.5705 20.1816 25.6941 20.1809 24.8176C19.961 24.8144 19.7411 24.8123 19.5211 24.8108C19.4465 24.8102 19.372 24.8094 19.2974 24.8083C18.5881 24.7983 17.9559 24.8261 17.4396 25.3716Z" fill="white" fill-opacity="0.8"/>
<path d="M86.1799 11.4495C87.4791 11.4495 88.7783 11.4495 90.1169 11.4495C90.1175 12.0784 90.1181 12.7073 90.1188 13.3553C90.1192 13.7752 90.1196 14.1952 90.12 14.6152C90.1201 14.6418 90.1201 14.6685 90.1201 14.696C90.121 15.5944 90.1221 16.4928 90.1231 17.3912C90.1232 17.4205 90.1232 17.4498 90.1232 17.48C90.124 18.1174 90.1248 18.7548 90.1256 19.3921C90.126 19.7047 90.1264 20.0173 90.1267 20.3299C90.1268 20.361 90.1268 20.3921 90.1269 20.4241C90.1281 21.4318 90.1291 22.4395 90.1301 23.4472C90.131 24.483 90.1322 25.5187 90.1336 26.5545C90.1338 26.7009 90.134 26.8473 90.1342 26.9937C90.1342 27.0225 90.1343 27.0513 90.1343 27.081C90.1349 27.5442 90.1353 28.0075 90.1357 28.4707C90.136 28.9368 90.1366 29.4028 90.1373 29.8689C90.1378 30.1455 90.1381 30.4222 90.1381 30.6989C90.1382 30.884 90.1384 31.0692 90.1389 31.2543C90.1391 31.3596 90.1393 31.4649 90.1392 31.5702C90.1205 32.8061 90.1205 32.8061 90.6536 33.8863C90.9837 34.1789 91.3953 34.2211 91.8167 34.1999C92.194 34.1659 92.5049 33.9505 92.7456 33.6703C92.9817 33.3406 93.1169 32.9507 93.1859 32.5538C93.1911 32.5256 93.1962 32.4975 93.2015 32.4685C93.2658 32.0642 93.2569 31.6586 93.2565 31.2502C93.2567 31.1647 93.2569 31.0791 93.2571 30.9936C93.2575 30.8081 93.2577 30.6227 93.2577 30.4372C93.2577 30.1615 93.2581 29.8857 93.2586 29.6099C93.2594 29.146 93.2599 28.682 93.2602 28.2181C93.2605 27.7589 93.261 27.2997 93.2616 26.8405C93.2616 26.8119 93.2617 26.7833 93.2617 26.7539C93.2619 26.6087 93.2621 26.4636 93.2623 26.3184C93.2637 25.291 93.2649 24.2636 93.2658 23.2362C93.2668 22.2383 93.2678 21.2403 93.2691 20.2424C93.2691 20.2116 93.2691 20.1809 93.2692 20.1492C93.2696 19.8401 93.2699 19.531 93.2703 19.2219C93.2711 18.5923 93.2719 17.9627 93.2727 17.3331C93.2727 17.3042 93.2727 17.2753 93.2728 17.2454C93.2738 16.3585 93.2748 15.4715 93.2758 14.5845C93.2758 14.5468 93.2758 14.5468 93.2758 14.5082C93.2769 13.4887 93.2779 12.4691 93.2789 11.4495C94.5781 11.4495 95.8773 11.4495 97.2159 11.4495C97.2159 20.1091 97.2159 28.7686 97.2159 37.6906C95.9985 37.6906 94.7812 37.6906 93.5269 37.6906C93.5269 36.9757 93.5269 36.2609 93.5269 35.5244C93.5064 35.5244 93.486 35.5244 93.4649 35.5244C93.457 35.5508 93.4491 35.5772 93.4409 35.6043C93.1213 36.4933 92.2864 37.2661 91.4581 37.6768C90.9418 37.9197 90.4359 38.0132 89.867 38.0116C89.8445 38.0116 89.822 38.0116 89.7988 38.0116C88.9044 38.0085 88.1221 37.7342 87.4819 37.1026C87.4486 37.0727 87.4486 37.0727 87.4146 37.0422C86.5778 36.2737 86.301 34.9359 86.2109 33.8534C86.2083 33.8235 86.2057 33.7936 86.2031 33.7627C86.1725 33.3529 86.1756 32.943 86.1761 32.5323C86.1762 32.4198 86.1761 32.3072 86.1761 32.1946C86.176 31.9978 86.1761 31.8009 86.1762 31.6041C86.1764 31.3114 86.1764 31.0187 86.1764 30.726C86.1763 30.2335 86.1764 29.741 86.1766 29.2486C86.1768 28.7611 86.1769 28.2737 86.177 27.7863C86.177 27.7408 86.177 27.7408 86.177 27.6944C86.177 27.5403 86.177 27.3862 86.177 27.2321C86.1771 26.1416 86.1773 25.0511 86.1776 23.9605C86.1778 22.9013 86.1781 21.842 86.1782 20.7828C86.1782 20.7501 86.1782 20.7174 86.1782 20.6838C86.1783 20.3557 86.1783 20.0276 86.1783 19.6996C86.1784 19.0313 86.1785 18.363 86.1786 17.6947C86.1786 17.664 86.1786 17.6333 86.1786 17.6016C86.1788 16.0125 86.1792 14.4235 86.1796 12.8344C86.1796 12.812 86.1796 12.7897 86.1796 12.7667C86.1797 12.3276 86.1798 11.8886 86.1799 11.4495Z" fill="white" fill-opacity="0.8"/>
<path d="M41.1155 11.1381C42.7136 11.1013 44.2495 11.4713 45.4367 12.5859C45.5398 12.6875 45.6353 12.7904 45.7252 12.9039C45.7375 12.9194 45.7498 12.9349 45.7625 12.9509C46.3586 13.7104 46.7053 14.5915 46.909 15.5284C46.9164 15.5611 46.9238 15.5939 46.9314 15.6276C47.0799 16.3463 47.1034 17.0829 47.1 17.8141C47.0996 17.9266 47.0998 18.0391 47.0998 18.1516C47.0999 18.3453 47.0996 18.539 47.0991 18.7327C47.0983 19.0127 47.0981 19.2927 47.0979 19.5727C47.0977 20.0274 47.0971 20.482 47.0962 20.9366C47.0954 21.3775 47.0947 21.8184 47.0943 22.2594C47.0943 22.2869 47.0943 22.3145 47.0943 22.3429C47.0941 22.5587 47.0939 22.7744 47.0937 22.9902C47.0928 24.0429 47.091 25.0955 47.0892 26.1482C44.634 26.1482 42.1788 26.1482 39.6492 26.1482C39.6531 27.1285 39.6569 28.1089 39.6608 29.1189C39.6619 29.4272 39.663 29.7354 39.664 30.053C39.6653 30.3321 39.6653 30.3321 39.6666 30.6111C39.6672 30.7343 39.6676 30.8575 39.6679 30.9807C39.6018 32.8267 39.6018 32.8267 40.3558 34.4392C40.6979 34.7595 41.1553 34.8313 41.6082 34.8252C42.0122 34.811 42.3896 34.6929 42.6872 34.4104C43.3739 33.5902 43.371 32.4216 43.379 31.4081C43.3796 31.3477 43.3802 31.2873 43.3808 31.2269C43.3829 31.0052 43.3848 30.7834 43.3867 30.5617C43.3911 30.0651 43.3956 29.5686 43.4002 29.057C44.6176 29.057 45.835 29.057 47.0892 29.057C47.093 30.0992 47.093 30.0992 47.0938 30.5402C47.0943 30.8432 47.095 31.1462 47.0962 31.4492C47.0972 31.67 47.0978 31.8907 47.098 32.1115C47.0981 32.2281 47.0984 32.3447 47.0991 32.4613C47.1027 33.1113 47.0968 33.7665 46.909 34.395C46.897 34.4368 46.897 34.4368 46.8847 34.4796C46.8135 34.7215 46.7284 34.9541 46.6242 35.184C46.6152 35.204 46.6062 35.224 46.5969 35.2446C46.3933 35.69 46.1268 36.0684 45.7872 36.4218C45.7468 36.4656 45.7468 36.4656 45.7056 36.5103C44.769 37.5059 43.2944 37.946 41.9584 38.0033C41.8782 38.005 41.7981 38.0059 41.718 38.0063C41.6884 38.0065 41.6588 38.0066 41.6283 38.0068C41.5659 38.0071 41.5035 38.0073 41.441 38.0074C41.348 38.0077 41.255 38.0087 41.1619 38.0097C40.623 38.0126 40.0874 37.9669 39.5659 37.824C39.5367 37.8162 39.5074 37.8083 39.4773 37.8002C39.1819 37.7176 38.903 37.6053 38.6262 37.4739C38.6056 37.4643 38.585 37.4547 38.5638 37.4447C37.372 36.8777 36.5811 35.7865 36.1484 34.5706C36.0038 34.1487 35.9013 33.7207 35.8285 33.2809C35.8238 33.2528 35.8191 33.2246 35.8143 33.1956C35.7989 33.0953 35.7865 32.9949 35.7742 32.8941C35.7716 32.8739 35.7691 32.8537 35.7664 32.8329C35.6866 32.1823 35.7031 31.5258 35.7037 30.8717C35.7037 30.6938 35.7035 30.516 35.7032 30.3381C35.7028 29.9905 35.7028 29.6429 35.7028 29.2953C35.7029 29.0125 35.7029 28.7296 35.7027 28.4467C35.7027 28.4063 35.7027 28.3659 35.7027 28.3242C35.7026 28.2421 35.7026 28.16 35.7025 28.0779C35.7023 27.5272 35.7022 26.9765 35.7023 26.4258C35.7023 26.4044 35.7023 26.3829 35.7023 26.3607C35.7024 26.2519 35.7024 26.143 35.7024 26.0342C35.7024 26.0126 35.7024 25.991 35.7024 25.9687C35.7024 25.925 35.7024 25.8813 35.7025 25.8376C35.7026 25.1581 35.7024 24.4787 35.7018 23.7993C35.7012 23.0336 35.7008 22.268 35.701 21.5024C35.701 21.0978 35.7009 20.6933 35.7005 20.2888C35.7001 19.9443 35.7001 19.5999 35.7005 19.2554C35.7006 19.0801 35.7007 18.9048 35.7003 18.7295C35.6958 16.4584 35.9847 14.1848 37.6432 12.4891C38.5473 11.5936 39.8639 11.1718 41.1155 11.1381ZM40.7962 14.4202C40.7698 14.4304 40.7435 14.4405 40.7163 14.451C40.3857 14.5973 40.1488 14.8419 39.9902 15.1629C39.9698 15.2037 39.9698 15.2037 39.9489 15.2454C39.557 16.1023 39.6404 17.1172 39.6429 18.0345C39.6433 18.1983 39.6434 18.3622 39.6434 18.526C39.6436 18.8351 39.6441 19.1443 39.6448 19.4534C39.6456 19.8719 39.6459 20.2905 39.6463 20.709C39.6469 21.3668 39.6481 22.0246 39.6492 22.6824C40.8871 22.6824 42.1249 22.6824 43.4002 22.6824C43.402 21.6878 43.402 21.6878 43.4032 20.6932C43.4036 20.2871 43.404 19.881 43.4049 19.475C43.4055 19.1791 43.4059 18.8832 43.4061 18.5874C43.4061 18.431 43.4063 18.2747 43.4068 18.1183C43.4689 16.3034 43.4689 16.3034 42.7221 14.7161C42.5976 14.6013 42.4701 14.5192 42.3152 14.4511C42.2884 14.439 42.2617 14.4268 42.2341 14.4143C41.8103 14.2532 41.2175 14.2548 40.7962 14.4202Z" fill="white" fill-opacity="0.8"/>
<path d="M136.561 12.5298C137.595 13.5161 138.056 14.9568 138.221 16.3407C138.225 16.3702 138.229 16.3997 138.232 16.4302C138.301 17.061 138.296 17.6981 138.295 18.3318C138.295 18.4176 138.295 18.5033 138.295 18.5891C138.295 18.7722 138.295 18.9553 138.295 19.1384C138.294 19.4031 138.294 19.6678 138.294 19.9325C138.294 20.3622 138.294 20.7919 138.294 21.2216C138.293 21.6384 138.293 22.0553 138.293 22.4722C138.293 22.4983 138.293 22.5243 138.293 22.5511C138.293 22.7549 138.293 22.9587 138.293 23.1625C138.292 24.1577 138.292 25.153 138.291 26.1482C135.826 26.1482 133.36 26.1482 130.82 26.1482C130.825 27.0947 130.829 28.0412 130.834 29.0164C130.835 29.3142 130.836 29.612 130.838 29.9188C130.839 30.188 130.839 30.188 130.841 30.4572C130.841 30.5762 130.842 30.6952 130.842 30.8142C130.843 30.9668 130.844 31.1194 130.844 31.272C130.845 31.3275 130.845 31.383 130.845 31.4385C130.846 32.1979 130.846 32.1979 130.923 32.9522C130.927 32.9789 130.931 33.0057 130.935 33.0332C131.027 33.609 131.201 34.2138 131.694 34.5729C132.112 34.8349 132.648 34.867 133.127 34.7973C133.208 34.7766 133.284 34.7517 133.362 34.7199C133.388 34.7093 133.415 34.6988 133.442 34.688C133.863 34.4983 134.109 34.1553 134.276 33.7355C134.67 32.6733 134.577 31.4416 134.589 30.3296C134.593 29.9096 134.598 29.4897 134.602 29.057C135.82 29.057 137.037 29.057 138.291 29.057C138.294 30.0093 138.294 30.0093 138.294 30.4849C138.295 30.7406 138.295 30.9962 138.296 31.2519C138.297 31.4545 138.297 31.6572 138.297 31.8598C138.297 31.9667 138.297 32.0737 138.298 32.1806C138.303 33.4826 138.303 33.4826 138.161 34.1087C138.155 34.1391 138.148 34.1695 138.141 34.2009C137.986 34.8761 137.712 35.5422 137.268 36.0814C137.256 36.097 137.243 36.1126 137.231 36.1287C136.303 37.2895 134.922 37.8042 133.48 37.9772C133.29 37.998 133.103 38.0054 132.912 38.0063C132.882 38.0065 132.851 38.0066 132.82 38.0068C132.756 38.0071 132.692 38.0073 132.628 38.0074C132.532 38.0077 132.437 38.0087 132.341 38.0097C130.904 38.0173 129.564 37.5695 128.526 36.5572C126.899 34.9274 126.878 32.4879 126.879 30.3434C126.879 30.1809 126.879 30.0184 126.879 29.8559C126.879 29.5387 126.879 29.2215 126.879 28.9043C126.879 28.6462 126.879 28.3881 126.879 28.13C126.879 28.0931 126.879 28.0561 126.879 28.0181C126.879 27.9431 126.879 27.868 126.879 27.793C126.879 27.0916 126.879 26.3903 126.879 25.6889C126.879 25.0888 126.879 24.4887 126.879 23.8886C126.879 23.1895 126.879 22.4904 126.879 21.7913C126.879 21.7165 126.879 21.6418 126.879 21.5671C126.879 21.5303 126.879 21.4936 126.879 21.4557C126.879 21.1983 126.879 20.9409 126.879 20.6835C126.879 20.3693 126.879 20.055 126.879 19.7408C126.879 19.5809 126.879 19.421 126.879 19.261C126.878 17.5301 126.878 17.5301 126.953 16.8474C126.957 16.8106 126.961 16.7738 126.965 16.7359C127.128 15.3101 127.569 13.8184 128.583 12.7584C128.652 12.6875 128.652 12.6875 128.714 12.6069C128.805 12.4946 128.911 12.4074 129.022 12.316C129.051 12.2923 129.08 12.2686 129.109 12.2442C129.906 11.6099 130.837 11.2867 131.843 11.171C131.878 11.1669 131.912 11.1629 131.947 11.1587C133.592 11.0011 135.329 11.391 136.561 12.5298ZM131.378 14.8225C130.68 15.7416 130.811 17.0542 130.814 18.1427C130.814 18.3028 130.814 18.4629 130.814 18.623C130.815 18.9249 130.815 19.2268 130.816 19.5287C130.817 19.9376 130.817 20.3465 130.817 20.7554C130.818 21.3977 130.819 22.0401 130.82 22.6824C132.068 22.6824 133.316 22.6824 134.602 22.6824C134.603 21.7711 134.603 21.7711 134.604 20.8597C134.604 20.4875 134.604 20.1153 134.605 19.7431C134.605 19.472 134.605 19.2008 134.605 18.9296C134.605 18.7863 134.605 18.6431 134.606 18.4998C134.69 16.4773 134.69 16.4773 133.889 14.6987C133.549 14.4052 133.179 14.3217 132.742 14.3196C132.709 14.319 132.676 14.3183 132.641 14.3177C132.162 14.3154 131.707 14.46 131.378 14.8225Z" fill="white" fill-opacity="0.8"/>
<path d="M59.21 12.5945C59.2287 12.6115 59.2475 12.6286 59.2669 12.6462C59.5597 12.9234 59.7849 13.2687 59.985 13.6156C60.0053 13.6505 60.0257 13.6853 60.0467 13.7213C60.8123 15.0669 60.8953 16.6741 60.891 18.1842C60.891 18.2719 60.891 18.3595 60.891 18.4471C60.8911 18.6336 60.8909 18.8202 60.8905 19.0067C60.89 19.2764 60.8899 19.5461 60.8898 19.8157C60.8896 20.2536 60.8892 20.6914 60.8886 21.1292C60.8881 21.5538 60.8876 21.9785 60.8874 22.4031C60.8874 22.4296 60.8873 22.4562 60.8873 22.4836C60.8872 22.6913 60.8871 22.8991 60.887 23.1069C60.8864 24.1207 60.8851 25.1344 60.884 26.1482C58.4288 26.1482 55.9736 26.1482 53.444 26.1482C53.4472 27.1911 53.4504 28.2339 53.4537 29.3084C53.4544 29.6366 53.4552 29.9648 53.456 30.303C53.4571 30.5995 53.4571 30.5995 53.4584 30.896C53.4589 31.0271 53.4592 31.1583 53.4594 31.2894C53.4596 31.4575 53.4602 31.6257 53.4611 31.7938C53.4614 31.855 53.4615 31.9161 53.4615 31.9773C53.461 32.802 53.5274 33.7618 54.095 34.4104C54.1725 34.4827 54.2523 34.5411 54.343 34.5961C54.3616 34.6077 54.3803 34.6194 54.3995 34.6314C54.808 34.8605 55.3665 34.8763 55.8174 34.7779C56.2408 34.6497 56.5222 34.4092 56.7362 34.0275C57.1824 33.1861 57.1658 32.1574 57.1738 31.2298C57.1743 31.1738 57.1749 31.1178 57.1755 31.0618C57.1776 30.857 57.1795 30.6523 57.1814 30.4476C57.1859 29.9887 57.1904 29.5298 57.195 29.057C58.4123 29.057 59.6297 29.057 60.884 29.057C60.8865 30.0474 60.8865 30.0474 60.887 30.4662C60.8874 30.7541 60.8878 31.0419 60.8886 31.3298C60.8893 31.5395 60.8897 31.7493 60.8898 31.959C60.8899 32.0698 60.8901 32.1805 60.8905 32.2913C60.893 32.9075 60.8923 33.5249 60.7503 34.128C60.7434 34.1579 60.7366 34.1877 60.7295 34.2184C60.4486 35.4104 59.7762 36.4589 58.7319 37.1203C58.6346 37.1795 58.5354 37.2345 58.435 37.2883C58.4136 37.2998 58.3922 37.3113 58.3702 37.3232C57.7453 37.6534 57.0568 37.844 56.358 37.9381C56.3185 37.9435 56.279 37.949 56.2384 37.9546C55.8869 38 55.5385 38.0105 55.1844 38.0098C55.0932 38.0097 55.002 38.0104 54.9108 38.0112C53.5334 38.0158 52.222 37.5915 51.212 36.6384C51.1743 36.6038 51.1743 36.6038 51.1358 36.5684C49.9882 35.477 49.5474 33.7173 49.5016 32.1843C49.4924 31.7832 49.4941 31.382 49.4948 30.9809C49.495 30.7992 49.4947 30.6174 49.4944 30.4357C49.494 30.0809 49.4941 29.726 49.4944 29.3712C49.4946 29.0825 49.4946 28.7938 49.4945 28.5051C49.4945 28.4845 49.4945 28.4638 49.4945 28.4426C49.4945 28.3589 49.4944 28.2752 49.4944 28.1914C49.4941 27.4083 49.4944 26.6251 49.4949 25.842C49.4953 25.1484 49.4953 24.4548 49.4948 23.7613C49.4943 22.9795 49.4941 22.1977 49.4944 21.4159C49.4945 21.3323 49.4945 21.2487 49.4945 21.1652C49.4945 21.1446 49.4945 21.124 49.4945 21.1028C49.4946 20.7942 49.4945 20.4855 49.4943 20.1768C49.494 19.8253 49.4941 19.4738 49.4946 19.1223C49.4948 18.9434 49.4949 18.7645 49.4946 18.5856C49.4914 16.5412 49.7211 14.367 51.15 12.7801C51.183 12.7402 51.216 12.7003 51.2488 12.6602C51.3502 12.5433 51.4645 12.4451 51.584 12.3469C51.6149 12.321 51.6459 12.2951 51.6778 12.2684C53.7699 10.5508 57.2617 10.7862 59.21 12.5945ZM53.946 14.859C53.473 15.4933 53.4339 16.3017 53.4369 17.0616C53.4369 17.1233 53.4369 17.1849 53.4369 17.2466C53.4369 17.4124 53.4372 17.5782 53.4377 17.744C53.4381 17.9179 53.4381 18.0917 53.4382 18.2656C53.4384 18.5942 53.4389 18.9227 53.4395 19.2512C53.4403 19.6957 53.4407 20.1402 53.441 20.5846C53.4416 21.2839 53.4428 21.9831 53.444 22.6824C54.6818 22.6824 55.9196 22.6824 57.195 22.6824C57.1968 21.7231 57.1968 21.7231 57.198 20.7637C57.1984 20.3719 57.1988 19.9801 57.1996 19.5883C57.2003 19.3028 57.2007 19.0173 57.2008 18.7318C57.2009 18.581 57.2011 18.4302 57.2015 18.2794C57.2558 16.504 57.2558 16.504 56.637 14.8844C56.6234 14.8648 56.6099 14.8453 56.5959 14.8251C56.3877 14.5548 56.0434 14.3715 55.707 14.3273C55.5771 14.3179 55.4477 14.3148 55.3175 14.3138C55.2691 14.3133 55.2691 14.3133 55.2198 14.3129C54.732 14.3183 54.264 14.4755 53.946 14.859Z" fill="white" fill-opacity="0.8"/>
<path d="M9.17612 12.4088C9.20705 12.4363 9.20705 12.4363 9.2386 12.4644C10.1044 13.2802 10.4886 14.5666 10.5711 15.7198C10.5753 15.8717 10.5751 16.0235 10.5746 16.1754C10.5746 16.2205 10.5746 16.2657 10.5747 16.3109C10.5747 16.4326 10.5745 16.5543 10.5743 16.676C10.5741 16.8035 10.574 16.9311 10.574 17.0586C10.5739 17.2997 10.5737 17.5408 10.5733 17.7819C10.5729 18.108 10.5728 18.434 10.5726 18.7601C10.5723 19.2733 10.5717 19.7865 10.5711 20.2996C9.35375 20.2996 8.13638 20.2996 6.88212 20.2996C6.87243 18.6441 6.87243 18.6441 6.87009 18.1261C6.86895 17.9696 6.86895 17.9696 6.8677 17.813C6.86721 17.7446 6.86688 17.6762 6.86671 17.6078C6.86412 16.7282 6.86034 15.6151 6.20242 14.939C5.96223 14.7349 5.67617 14.6409 5.36312 14.6368C5.06179 14.6654 4.79379 14.7837 4.58812 15.0081C4.24192 15.4733 4.08701 16.014 4.00687 16.5805C4.00149 16.6178 4.00149 16.6178 3.99601 16.6558C3.93059 17.1681 3.93249 17.6895 3.93297 18.2051C3.93291 18.2655 3.93284 18.3259 3.93276 18.3863C3.93257 18.5502 3.93257 18.7141 3.93261 18.878C3.93262 19.0556 3.93245 19.2332 3.9323 19.4108C3.93204 19.7579 3.93196 20.105 3.93194 20.4521C3.93192 20.7345 3.93186 21.0168 3.93176 21.2992C3.93153 21.9711 3.93134 22.6431 3.93136 23.315C3.93136 23.3365 3.93136 23.3579 3.93136 23.38C3.93136 23.4886 3.93137 23.5972 3.93137 23.7058C3.93137 23.7274 3.93137 23.7489 3.93137 23.7712C3.93137 23.8148 3.93137 23.8584 3.93137 23.902C3.93139 24.5804 3.93116 25.2588 3.93074 25.9371C3.93026 26.7012 3.92999 27.4652 3.93002 28.2292C3.93003 28.633 3.92995 29.0369 3.92961 29.4407C3.92933 29.7845 3.92927 30.1283 3.92948 30.4721C3.92958 30.6472 3.92958 30.8222 3.92931 30.9973C3.84823 32.7007 3.84823 32.7007 4.52236 34.1951C4.67066 34.3354 4.82834 34.4111 5.02212 34.4723C5.05005 34.4813 5.05005 34.4813 5.07855 34.4904C5.42875 34.5568 5.7936 34.514 6.09743 34.3272C6.44612 34.0766 6.60884 33.7264 6.71937 33.3215C6.72861 33.2883 6.72861 33.2883 6.73803 33.2543C6.87216 32.7264 6.86151 32.1821 6.86395 31.6417C6.86448 31.5697 6.86503 31.4978 6.86561 31.4258C6.86755 31.1616 6.86899 30.8974 6.87049 30.6332C6.87433 30.0416 6.87816 29.4499 6.88212 28.8404C8.09949 28.8404 9.31686 28.8404 10.5711 28.8404C10.5749 29.9667 10.5749 29.9667 10.5757 30.4431C10.5762 30.7704 10.5768 31.0978 10.5781 31.4252C10.5791 31.6637 10.5797 31.9022 10.5799 32.1408C10.58 32.2668 10.5803 32.3927 10.5809 32.5187C10.5892 34.0945 10.3282 35.5624 9.18968 36.7312C8.60568 37.3139 7.84482 37.6586 7.05262 37.853C7.02175 37.8606 6.99088 37.8682 6.95907 37.8761C6.48276 37.9875 6.01669 38.0116 5.52974 38.0096C5.50106 38.0096 5.47237 38.0095 5.44282 38.0095C5.01818 38.0081 4.60162 37.9977 4.18512 37.9071C4.1604 37.9018 4.13569 37.8965 4.11022 37.891C3.17252 37.6817 2.3653 37.2728 1.67412 36.6075C1.64998 36.5853 1.62584 36.5632 1.60098 36.5404C0.571423 35.5692 0.18474 34.0631 0.0311172 32.7084C0.0283524 32.6859 0.0255877 32.6633 0.0227391 32.64C-0.00892728 32.3475 -0.00438926 32.0546 -0.00423647 31.7608C-0.00431666 31.699 -0.00441008 31.6372 -0.00451556 31.5753C-0.0047647 31.4059 -0.0048209 31.2366 -0.00484383 31.0672C-0.00490138 30.8843 -0.00513572 30.7013 -0.00534429 30.5184C-0.00578663 30.0978 -0.00596753 29.6771 -0.00610964 29.2565C-0.00618221 29.0483 -0.00629419 28.84 -0.00641048 28.6318C-0.00680835 27.918 -0.00714076 27.2042 -0.00724773 26.4903C-0.0072546 26.4456 -0.00726072 26.4008 -0.0072676 26.356C-0.00727444 26.3111 -0.00728158 26.2663 -0.00728841 26.2214C-0.00730213 26.1314 -0.00731609 26.0414 -0.00733004 25.9514C-0.00733343 25.929 -0.00733695 25.9067 -0.00734045 25.8837C-0.00745283 25.1611 -0.00794538 24.4385 -0.00866869 23.7159C-0.00943335 22.9506 -0.00985687 22.1853 -0.00989382 21.42C-0.00989914 21.3358 -0.00990601 21.2516 -0.00991369 21.1674C-0.00991542 21.1466 -0.00991664 21.1259 -0.00991842 21.1045C-0.00995172 20.7931 -0.0102405 20.4816 -0.010663 20.1701C-0.0111428 19.8151 -0.0112979 19.4601 -0.0110433 19.1051C-0.010923 18.9244 -0.0109466 18.7436 -0.0113857 18.5628C-0.0130241 17.8467 -0.0127407 17.1414 0.0931172 16.4316C0.0977542 16.3998 0.102391 16.3681 0.107169 16.3354C0.240039 15.4379 0.497995 14.5701 0.930117 13.7703C0.940018 13.7516 0.949918 13.733 0.960118 13.7137C1.20985 13.2445 1.54117 12.8409 1.92212 12.4707C1.9357 12.4557 1.94929 12.4407 1.96329 12.4253C2.73135 11.6025 3.96729 11.2099 5.06438 11.1439C6.58137 11.0919 8.02441 11.3734 9.17612 12.4088Z" fill="white" fill-opacity="0.8"/>
<path d="M106.64 0C107.939 0 109.238 0 110.577 0C110.577 12.4379 110.577 24.8758 110.577 37.6906C109.277 37.6906 107.978 37.6906 106.64 37.6906C106.64 25.2527 106.64 12.8148 106.64 0Z" fill="white" fill-opacity="0.8"/>
<path d="M70.6795 11.1401C70.6795 12.774 70.6795 14.4078 70.6795 16.0912C70.4545 16.1014 70.2294 16.1116 69.9975 16.1222C69.2432 16.2226 68.5226 16.4306 68.0116 17.0322C67.3902 17.8614 67.353 18.8782 67.3539 19.8733C67.3537 19.9506 67.3536 20.0278 67.3534 20.105C67.353 20.2719 67.3528 20.4388 67.3527 20.6056C67.3527 20.8537 67.3523 21.1018 67.3518 21.3499C67.3511 21.7675 67.3506 22.185 67.3502 22.6025C67.3499 23.0155 67.3495 23.4285 67.3488 23.8416C67.3488 23.8673 67.3488 23.8931 67.3487 23.9196C67.3485 24.0503 67.3483 24.1811 67.3481 24.3118C67.3467 25.2363 67.3456 26.1608 67.3446 27.0853C67.3437 27.9831 67.3426 28.881 67.3414 29.7788C67.3413 29.8065 67.3413 29.8342 67.3413 29.8627C67.3409 30.1409 67.3405 30.4192 67.3401 30.6974C67.3393 31.2642 67.3385 31.8309 67.3378 32.3976C67.3377 32.4367 67.3377 32.4367 67.3377 32.4766C67.3366 33.2747 67.3356 34.0728 67.3347 34.8709C67.3346 34.9049 67.3346 34.9049 67.3346 34.9396C67.3335 35.8566 67.3325 36.7736 67.3315 37.6906C66.0323 37.6906 64.7331 37.6906 63.3945 37.6906C63.3945 29.031 63.3945 20.3715 63.3945 11.4495C64.6119 11.4495 65.8293 11.4495 67.0835 11.4495C67.0835 12.3482 67.0835 13.2468 67.0835 14.1726C67.1757 14.1266 67.1815 14.0628 67.2175 13.9676C67.2314 13.9313 67.2453 13.895 67.2596 13.8576C67.2669 13.8383 67.2742 13.819 67.2817 13.7992C67.5632 13.0577 67.8717 12.3525 68.4475 11.7899C68.4677 11.7688 68.4879 11.7476 68.5087 11.7258C69.0655 11.181 69.9524 11.1401 70.6795 11.1401Z" fill="white" fill-opacity="0.8"/>
<path d="M148.056 11.1401C148.056 12.774 148.056 14.4078 148.056 16.0912C147.841 16.1014 147.626 16.1116 147.405 16.1222C146.683 16.2105 146.037 16.3966 145.514 16.9267C145.497 16.9434 145.48 16.9601 145.462 16.9772C144.907 17.5667 144.765 18.4942 144.765 19.2691C144.765 19.3011 144.765 19.3331 144.765 19.3661C144.765 19.4731 144.765 19.5802 144.765 19.6872C144.765 19.7649 144.765 19.8425 144.764 19.9201C144.764 20.0887 144.764 20.2574 144.764 20.426C144.763 20.6767 144.763 20.9275 144.763 21.1782C144.762 21.6 144.761 22.0219 144.761 22.4437C144.76 22.8613 144.76 23.2789 144.759 23.6965C144.759 23.7225 144.759 23.7485 144.759 23.7752C144.759 23.9071 144.758 24.0391 144.758 24.171C144.757 25.1051 144.755 26.0392 144.754 26.9734C144.753 27.8808 144.752 28.7882 144.75 29.6957C144.75 29.7236 144.75 29.7516 144.75 29.7804C144.75 30.0614 144.749 30.3423 144.749 30.6233C144.748 31.1956 144.747 31.7679 144.746 32.3403C144.746 32.3666 144.746 32.3929 144.746 32.42C144.745 33.2265 144.744 34.0329 144.743 34.8394C144.743 34.8623 144.743 34.8852 144.743 34.9088C144.741 35.836 144.74 36.7633 144.739 37.6906C143.44 37.6906 142.14 37.6906 140.802 37.6906C140.802 29.031 140.802 20.3715 140.802 11.4495C142.019 11.4495 143.236 11.4495 144.491 11.4495C144.491 12.3482 144.491 13.2468 144.491 14.1726C144.511 14.1726 144.532 14.1726 144.553 14.1726C144.558 14.1543 144.563 14.136 144.568 14.1171C144.627 13.9101 144.704 13.7156 144.791 13.5189C144.805 13.4879 144.818 13.4568 144.833 13.4249C145.197 12.6047 145.622 11.7523 146.488 11.372C147.002 11.1778 147.511 11.1401 148.056 11.1401Z" fill="white" fill-opacity="0.8"/>
<path d="M34.0382 11.1401C34.0382 12.774 34.0382 14.4078 34.0382 16.0912C33.8233 16.1014 33.6085 16.1116 33.3872 16.1222C32.6096 16.221 31.8562 16.4299 31.3489 17.0718C30.7217 17.9601 30.7167 19.0257 30.7163 20.0705C30.7161 20.1468 30.716 20.2231 30.7158 20.2994C30.7155 20.4644 30.7152 20.6294 30.7151 20.7944C30.7149 21.0398 30.7144 21.2852 30.714 21.5305C30.7133 21.9434 30.7127 22.3563 30.7122 22.7692C30.7117 23.1777 30.7111 23.5862 30.7104 23.9948C30.7104 24.0202 30.7103 24.0456 30.7103 24.0719C30.7101 24.2011 30.7099 24.3303 30.7097 24.4596C30.7082 25.3739 30.7069 26.2881 30.7056 27.2024C30.7044 28.0903 30.7031 28.9783 30.7017 29.8662C30.7017 29.8936 30.7016 29.921 30.7016 29.9492C30.7012 30.2243 30.7007 30.4994 30.7003 30.7745C30.6994 31.3349 30.6986 31.8953 30.6977 32.4557C30.6977 32.4814 30.6977 32.5072 30.6976 32.5337C30.6964 33.323 30.6952 34.1123 30.6941 34.9016C30.6941 34.924 30.694 34.9464 30.694 34.9694C30.6927 35.8765 30.6915 36.7835 30.6902 37.6906C29.4012 37.6906 28.1122 37.6906 26.7842 37.6906C26.7842 29.031 26.7842 20.3715 26.7842 11.4495C28.0015 11.4495 29.2189 11.4495 30.4732 11.4495C30.4732 12.3482 30.4732 13.2468 30.4732 14.1727C30.4936 14.1727 30.5141 14.1727 30.5352 14.1727C30.5409 14.1395 30.5409 14.1395 30.5468 14.1057C30.5816 13.9483 30.6475 13.8017 30.7076 13.6524C30.7285 13.6005 30.7285 13.6005 30.7498 13.5475C30.8614 13.2736 30.9849 13.01 31.1242 12.7492C31.1479 12.7028 31.1479 12.7028 31.1721 12.6555C31.5282 11.9744 32.0281 11.5049 32.7593 11.2671C32.95 11.2135 33.1423 11.1869 33.3387 11.1652C33.362 11.1626 33.3853 11.16 33.4092 11.1573C33.6214 11.1364 33.8219 11.1401 34.0382 11.1401Z" fill="white" fill-opacity="0.8"/>
<path d="M99.9443 11.4495C101.244 11.4495 102.543 11.4495 103.881 11.4495C103.881 20.1091 103.881 28.7686 103.881 37.6906C102.582 37.6906 101.283 37.6906 99.9443 37.6906C99.9443 29.031 99.9443 20.3715 99.9443 11.4495Z" fill="white" fill-opacity="0.8"/>
<path d="M101.806 0.151123C102.381 0.132717 102.897 0.375857 103.313 0.762143C103.903 1.33311 104.181 2.15867 104.202 2.96546C104.208 3.7764 103.997 4.62844 103.421 5.22671C103.378 5.26935 103.335 5.31141 103.292 5.35345C103.267 5.3789 103.242 5.40435 103.217 5.43057C102.823 5.81354 102.34 5.9578 101.801 5.95439C101.255 5.93923 100.8 5.69843 100.409 5.3225C99.7985 4.6734 99.5392 3.78699 99.563 2.90955C99.603 2.04836 99.9152 1.26848 100.546 0.671138C100.906 0.356976 101.327 0.178347 101.806 0.151123Z" fill="white" fill-opacity="0.8"/>
<path d="M153.946 11.6971C153.968 11.7161 153.989 11.735 154.012 11.7546C154.605 12.3082 154.96 13.1769 155.007 13.9786C155.011 14.1053 155.012 14.2316 155.012 14.3583C155.012 14.3807 155.012 14.4032 155.012 14.4263C155.011 14.7966 154.982 15.1468 154.876 15.5033C154.87 15.526 154.863 15.5488 154.856 15.5722C154.623 16.3463 154.156 17.0479 153.439 17.4493C152.925 17.7215 152.377 17.8085 151.807 17.6694C151.349 17.5274 150.996 17.2919 150.66 16.9577C150.638 16.9358 150.616 16.9139 150.593 16.8913C149.923 16.1896 149.671 15.1778 149.692 14.2324C149.728 13.3137 150.052 12.4581 150.691 11.7899C150.716 11.7614 150.716 11.7614 150.742 11.7322C151.109 11.331 151.673 11.0902 152.209 11.0504C152.871 11.0283 153.458 11.2523 153.946 11.6971ZM150.908 12.4707C150.697 12.7419 150.549 13.0417 150.443 13.3681C150.437 13.3878 150.43 13.4075 150.424 13.4279C150.23 14.0433 150.237 14.7991 150.443 15.4104C150.451 15.4327 150.458 15.4549 150.466 15.4779C150.681 16.0929 151.061 16.5956 151.652 16.8958C152.052 17.0767 152.542 17.0858 152.955 16.9367C153.549 16.6738 153.949 16.2269 154.194 15.627C154.508 14.7967 154.509 13.8752 154.159 13.0552C154.068 12.8559 153.955 12.676 153.822 12.5016C153.806 12.4792 153.789 12.4568 153.771 12.4337C153.481 12.0754 153.04 11.802 152.577 11.7516C151.9 11.7112 151.347 11.9446 150.908 12.4707Z" fill="white" fill-opacity="0.8"/>
<path d="M151.187 12.4707C153.01 12.4707 153.01 12.4707 153.317 12.7702C153.54 13.0331 153.565 13.3771 153.553 13.7092C153.531 13.9637 153.472 14.2214 153.287 14.4089C153.135 14.5261 152.989 14.5781 152.799 14.5749C152.814 14.6067 152.83 14.6385 152.846 14.6712C152.905 14.7919 152.964 14.9127 153.023 15.0335C153.049 15.0853 153.074 15.137 153.099 15.1887C153.276 15.5481 153.444 15.9102 153.605 16.2769C153.39 16.2769 153.175 16.2769 152.954 16.2769C152.857 16.0827 152.761 15.8883 152.666 15.6938C152.633 15.6278 152.6 15.5617 152.568 15.4957C152.52 15.4006 152.474 15.3054 152.427 15.2101C152.412 15.1808 152.398 15.1515 152.383 15.1212C152.369 15.0934 152.355 15.0655 152.341 15.0368C152.329 15.0125 152.317 14.9883 152.305 14.9633C152.265 14.8679 152.238 14.7673 152.21 14.6678C152.056 14.6678 151.903 14.6678 151.745 14.6678C151.745 15.1988 151.745 15.7298 151.745 16.2769C151.56 16.2769 151.376 16.2769 151.187 16.2769C151.187 15.0208 151.187 13.7648 151.187 12.4707ZM151.745 13.0277C151.745 13.3749 151.745 13.7221 151.745 14.0798C151.873 14.0817 152.002 14.0837 152.134 14.0856C152.174 14.0865 152.214 14.0873 152.255 14.0882C152.475 14.0898 152.647 14.088 152.822 13.9417C152.956 13.7673 152.974 13.6146 152.954 13.399C152.914 13.2833 152.875 13.2264 152.785 13.1437C152.465 12.9868 152.092 13.0225 151.745 13.0277Z" fill="white" fill-opacity="0.8"/>
</g>
<defs>
<clipPath id="clip0_455_47">
<rect width="155" height="38" fill="white"/>
</clipPath>
</defs>
</svg>
