<svg width="194" height="38" viewBox="0 0 194 38" fill="none" xmlns="http://www.w3.org/2000/svg">
<g clip-path="url(#clip0_455_151)">
<path d="M89.7868 0.570007C95.8004 0.570007 101.814 0.570007 108.01 0.570007C107.72 1.43925 107.402 2.22953 107.002 3.04594C106.91 3.23552 106.91 3.23552 106.816 3.42893C106.618 3.83797 106.418 4.24649 106.218 4.65501C106.081 4.9368 105.944 5.21862 105.807 5.50045C104.921 7.32063 104.024 9.13553 103.11 10.9417C103.032 11.0964 102.954 11.251 102.873 11.4104C102.806 11.5426 102.739 11.6749 102.67 11.8111C102.482 12.1895 102.482 12.1895 102.315 12.73C104.758 12.73 107.201 12.73 109.718 12.73C109.906 12.1657 110.094 11.6014 110.288 11.02C110.424 10.7067 110.566 10.3963 110.721 10.0916C110.801 9.93113 110.882 9.77063 110.965 9.60527C111.093 9.35404 111.093 9.35404 111.224 9.09774C111.313 8.91956 111.403 8.74138 111.495 8.5578C111.78 7.99256 112.066 7.42812 112.352 6.86376C112.637 6.30062 112.921 5.73732 113.205 5.17379C113.381 4.82479 113.557 4.47602 113.734 4.12755C114.328 2.95305 114.868 1.77084 115.413 0.570007C121.427 0.570007 127.44 0.570007 133.636 0.570007C133.371 1.36462 133.126 2.01584 132.753 2.74833C132.604 3.04324 132.604 3.04324 132.452 3.34412C132.346 3.55334 132.239 3.76257 132.129 3.97813C131.903 4.42601 131.678 4.87405 131.452 5.32223C131.396 5.43495 131.339 5.54766 131.281 5.66379C130.762 6.69816 130.263 7.74136 129.768 8.78751C128.902 10.6168 128.002 12.4277 127.093 14.2361C126.193 16.0275 125.313 17.8265 124.463 19.6424C123.893 20.8533 123.27 21.9987 122.626 23.18C108.219 23.18 93.811 23.18 78.9668 23.18C79.2663 22.2808 79.6027 21.4656 80.019 20.6217C80.1204 20.4139 80.1204 20.4139 80.2239 20.2019C80.4488 19.7415 80.6747 19.2817 80.9006 18.8219C81.0605 18.495 81.2203 18.1682 81.3801 17.8413C81.8125 16.9568 82.2458 16.0728 82.6792 15.1888C83.4304 13.6561 84.18 12.1227 84.9299 10.5893C85.1972 10.0431 85.4648 9.49694 85.7324 8.95084C87.097 6.16332 88.4413 3.36711 89.7868 0.570007Z" fill="white" fill-opacity="0.8"/>
<path d="M34.6019 0.54279C34.8194 0.543037 34.8194 0.543037 35.0413 0.543289C35.2707 0.542442 35.2707 0.542442 35.5047 0.541578C36.0213 0.53992 36.5379 0.53964 37.0544 0.539358C37.4232 0.538479 37.792 0.537524 38.1609 0.536499C39.1662 0.533999 40.1714 0.532779 41.1768 0.531937C41.8049 0.531381 42.4331 0.530601 43.0613 0.529751C45.0268 0.52715 46.9924 0.525315 48.9579 0.524583C51.2263 0.523733 53.4946 0.520406 55.7629 0.514893C57.5159 0.51078 59.2689 0.508869 61.0219 0.508615C62.0688 0.508416 63.1157 0.507299 64.1626 0.503899C65.1489 0.500759 66.1351 0.500363 67.1213 0.502026C67.4823 0.502172 67.8432 0.501353 68.2042 0.499469C70.0396 0.490454 71.7144 0.499932 73.4614 1.13997C73.7089 1.22259 73.7089 1.22259 73.9613 1.30689C76.4498 2.15839 78.3151 3.93877 79.5002 6.24622C80.0186 7.30955 80.3793 8.31801 80.4849 9.49997C80.5003 9.65648 80.5157 9.81298 80.5316 9.97423C80.6826 13.056 79.3023 15.6169 77.9193 18.2606C77.3594 19.3522 76.8453 20.4661 76.325 21.577C76.2506 21.7349 76.1763 21.8928 76.0997 22.0556C76.0018 22.2649 76.0018 22.2649 75.902 22.4785C75.7393 22.8 75.7393 22.8 75.5495 22.99C75.0732 23.0111 74.602 23.0199 74.1255 23.0206C73.9019 23.022 73.9019 23.022 73.6738 23.0234C73.1783 23.0262 72.6829 23.0275 72.1875 23.0286C71.8444 23.0297 71.5013 23.0308 71.1582 23.0318C70.4379 23.0338 69.7176 23.035 68.9972 23.0356C68.0731 23.0367 67.149 23.0412 66.2249 23.0466C65.5159 23.0502 64.8069 23.0512 64.0979 23.0515C63.7571 23.052 63.4164 23.0536 63.0757 23.056C62.5994 23.0593 62.1232 23.0589 61.6468 23.0577C61.5054 23.0594 61.364 23.0612 61.2183 23.063C60.6639 23.0585 60.2683 23.0512 59.7957 22.7451C59.4494 22.1569 59.6363 21.5286 59.7941 20.9C59.9903 20.4185 60.188 19.9811 60.4288 19.5247C60.4913 19.4017 60.5538 19.2787 60.6182 19.1519C60.8159 18.7637 61.0167 18.3771 61.2178 17.9906C61.4182 17.6004 61.6179 17.2098 61.8174 16.8191C61.9411 16.5772 62.0656 16.3357 62.1907 16.0946C62.7028 15.103 62.8524 14.4191 62.8313 13.3C62.0405 12.9178 61.3335 12.8646 60.4709 12.8671C60.2604 12.8654 60.2604 12.8654 60.0456 12.8637C59.5763 12.8605 59.1071 12.86 58.6379 12.8594C58.3011 12.8576 57.9643 12.8557 57.6276 12.8536C56.7138 12.8484 55.8001 12.8455 54.8864 12.8431C53.9312 12.8401 52.9761 12.835 52.021 12.8301C50.2127 12.8213 48.4043 12.8143 46.5958 12.808C44.5369 12.8007 42.4781 12.7913 40.4192 12.7818C36.1841 12.7621 31.949 12.7452 27.7139 12.73C27.9705 11.9424 28.2575 11.2063 28.6185 10.4604C28.7237 10.2424 28.8288 10.0245 28.9372 9.8C29.0514 9.56539 29.1656 9.33079 29.2799 9.09622C29.3975 8.85372 29.5151 8.61121 29.6326 8.36869C30.4899 6.60339 31.3589 4.84392 32.234 3.08747C32.3212 2.91232 32.3212 2.91232 32.41 2.73362C32.5736 2.40505 32.7379 2.0768 32.9021 1.74857C32.9956 1.56175 33.089 1.37494 33.1853 1.18246C33.5656 0.462934 33.8057 0.547236 34.6019 0.54279Z" fill="white" fill-opacity="0.8"/>
<path d="M39.3959 13.8421C39.6221 13.8423 39.6221 13.8423 39.8528 13.8424C40.0108 13.8418 40.1689 13.8411 40.3317 13.8405C40.857 13.8387 41.3823 13.8383 41.9076 13.8381C42.2716 13.8375 42.6355 13.8368 42.9994 13.8362C43.7636 13.835 44.5279 13.8347 45.2921 13.8348C46.2719 13.8348 47.2517 13.8322 48.2316 13.829C48.9838 13.8268 49.7359 13.8265 50.4881 13.8266C50.8494 13.8263 51.2106 13.8255 51.5718 13.824C52.0772 13.8222 52.5825 13.8227 53.0878 13.8239C53.2375 13.8228 53.3871 13.8217 53.5412 13.8206C54.8711 13.8283 54.8711 13.8283 55.4289 14.25C55.7639 15.17 55.6143 15.7012 55.2205 16.5857C55.0363 16.9606 54.8485 17.3339 54.6577 17.7056C54.5617 17.9003 54.4657 18.0949 54.3668 18.2954C53.9695 19.0979 53.564 19.8951 53.1377 20.6825C52.5141 21.848 52.2589 22.611 52.3917 23.94C52.9613 24.1044 53.4718 24.1555 54.0639 24.1601C54.247 24.1619 54.4301 24.1638 54.6188 24.1657C54.9182 24.1673 54.9182 24.1673 55.2237 24.169C55.4349 24.1709 55.646 24.1728 55.8636 24.1747C56.562 24.1807 57.2605 24.1854 57.9589 24.1901C58.443 24.194 58.9271 24.198 59.4112 24.2021C60.5553 24.2115 61.6995 24.2201 62.8437 24.2283C64.1466 24.2377 65.4494 24.2481 66.7522 24.2587C69.4318 24.2803 72.1113 24.3006 74.7909 24.32C74.5793 24.967 74.3771 25.5799 74.0472 26.1762C73.9782 26.301 73.9092 26.4257 73.8381 26.5543C73.7649 26.683 73.6918 26.8117 73.6164 26.9444C73.54 27.079 73.4637 27.2136 73.385 27.3523C72.7931 28.3782 72.1499 29.3134 71.3741 30.21C71.2481 30.3633 71.1221 30.5166 70.9922 30.6746C67.823 34.3992 63.5061 35.9371 58.7754 36.4267C56.3439 36.6148 53.8904 36.5499 51.4534 36.5378C50.6027 36.5342 49.752 36.5339 48.9013 36.5332C47.2973 36.5315 45.6934 36.5268 44.0895 36.5211C42.2605 36.5146 40.4315 36.5115 38.6026 36.5087C34.8467 36.5028 31.0908 36.4928 27.335 36.48C27.5871 35.7071 27.8657 34.9827 28.2196 34.2505C28.3217 34.0388 28.4237 33.8271 28.5289 33.6089C28.641 33.3785 28.7532 33.148 28.8654 32.9175C28.9829 32.6749 29.1004 32.4323 29.2179 32.1897C30.205 30.1556 31.216 28.1335 32.23 26.1127C33.1504 24.2781 34.0531 22.4369 34.9313 20.5816C35.6176 19.1357 36.3254 17.7009 37.0397 16.2688C37.2018 15.9429 37.2018 15.9429 37.3673 15.6104C37.5171 15.311 37.5171 15.311 37.67 15.0056C37.7591 14.8274 37.8482 14.6493 37.94 14.4657C38.3215 13.7457 38.6022 13.8469 39.3959 13.8421Z" fill="white" fill-opacity="0.8"/>
<path d="M126.612 24.32C140.08 24.32 153.548 24.32 167.424 24.32C165.466 28.6749 165.466 28.6749 164.725 30.1269C164.644 30.2884 164.562 30.4499 164.479 30.6163C164.227 31.1146 163.975 31.6124 163.723 32.11C163.384 32.7785 163.046 33.4475 162.708 34.1169C162.632 34.2673 162.555 34.4177 162.476 34.5726C162.405 34.7125 162.335 34.8523 162.262 34.9964C162.17 35.1792 162.17 35.1792 162.075 35.3657C161.914 35.7333 161.822 36.0902 161.73 36.48C157.657 36.4933 153.585 36.5034 149.512 36.5095C147.621 36.5125 145.73 36.5165 143.839 36.523C142.19 36.5287 140.542 36.5324 138.893 36.5336C138.02 36.5344 137.148 36.5361 136.275 36.5403C135.453 36.5442 134.63 36.5453 133.808 36.5445C133.507 36.5446 133.206 36.5458 132.906 36.548C130.322 36.5659 127.817 36.3262 125.881 34.4249C124.83 33.1427 124.397 31.5935 124.459 29.9465C124.722 27.9419 125.774 26.1179 126.612 24.32Z" fill="white" fill-opacity="0.8"/>
<path d="M138.382 0.380005C144.395 0.380005 150.409 0.380005 156.605 0.380005C156.357 1.12359 156.142 1.73442 155.797 2.41726C155.713 2.58566 155.628 2.75406 155.541 2.92756C155.405 3.1974 155.405 3.1974 155.265 3.4727C155.169 3.66315 155.074 3.8536 154.975 4.04982C154.669 4.65963 154.362 5.26891 154.054 5.87813C153.654 6.67125 153.255 7.46463 152.857 8.25833C152.707 8.5556 152.707 8.5556 152.555 8.85888C151.8 10.3681 151.069 11.888 150.345 13.4128C149.445 15.3047 148.507 17.1764 147.565 19.0475C147.229 19.7133 146.895 20.3793 146.561 21.0455C146.485 21.1951 146.41 21.3447 146.332 21.4988C146.263 21.6368 146.193 21.7748 146.122 21.917C146.061 22.0376 146 22.1581 145.938 22.2823C145.762 22.6436 145.762 22.6436 145.595 23.18C139.582 23.18 133.568 23.18 127.372 23.18C127.611 22.4618 127.82 21.8559 128.145 21.1921C128.26 20.9557 128.26 20.9557 128.378 20.7145C128.502 20.4624 128.502 20.4624 128.629 20.2053C128.716 20.0271 128.803 19.8488 128.893 19.6652C129.172 19.0948 129.453 18.5249 129.733 17.955C129.915 17.5837 130.097 17.2124 130.278 16.841C131.192 14.9753 132.114 13.1136 133.045 11.256C133.727 9.89344 134.398 8.52714 135.048 7.14875C136.133 4.87962 137.258 2.62996 138.382 0.380005Z" fill="white" fill-opacity="0.8"/>
<path d="M103.834 24.32C109.847 24.32 115.861 24.32 122.057 24.32C120.093 28.6881 120.093 28.6881 119.268 30.3199C119.188 30.4804 119.107 30.6409 119.025 30.8063C118.735 31.3838 118.444 31.9606 118.154 32.5375C117.5 33.8385 116.846 35.1396 116.172 36.48C110.159 36.48 104.145 36.48 97.9492 36.48C98.1915 35.7525 98.3987 35.1529 98.7342 34.4854C98.8135 34.3267 98.8928 34.168 98.9745 34.0045C99.0597 33.8358 99.145 33.6672 99.2328 33.4934C99.3218 33.3158 99.4108 33.1382 99.5025 32.9551C99.7868 32.3881 100.072 31.8215 100.358 31.255C100.546 30.88 100.734 30.5049 100.922 30.1299C101.273 29.4301 101.625 28.7306 101.977 28.0313C102.598 26.7952 103.216 25.5575 103.834 24.32Z" fill="white" fill-opacity="0.8"/>
<path d="M78.2074 24.32C84.221 24.32 90.2347 24.32 96.4305 24.32C96.1603 25.1315 95.8998 25.8097 95.5229 26.5631C95.4171 26.7755 95.3113 26.9878 95.2023 27.2065C95.0875 27.4351 94.9727 27.6636 94.8578 27.8922C94.7396 28.1286 94.6214 28.3651 94.5033 28.6016C94.2566 29.0951 94.0094 29.5884 93.7618 30.0815C93.444 30.7145 93.1272 31.3479 92.8107 31.9816C92.5672 32.469 92.3234 32.9561 92.0794 33.4432C91.9624 33.6768 91.8454 33.9105 91.7286 34.1443C91.5658 34.4696 91.4025 34.7947 91.2392 35.1198C91.1464 35.305 91.0535 35.4901 90.9578 35.6809C90.7358 36.1 90.7358 36.1 90.546 36.29C89.9855 36.3081 89.4295 36.3139 88.869 36.3116C88.6931 36.3116 88.5172 36.3116 88.3359 36.3117C87.7515 36.3115 87.1671 36.31 86.5826 36.3086C86.1786 36.3082 85.7746 36.3079 85.3705 36.3077C84.3048 36.307 83.2391 36.3052 82.1734 36.3031C81.0868 36.3011 80.0003 36.3002 78.9137 36.2993C76.78 36.2972 74.6464 36.294 72.5127 36.29C72.7268 35.6225 72.9516 34.9833 73.2598 34.3537C73.3665 34.1346 73.3665 34.1346 73.4752 33.9111C73.5897 33.6787 73.5897 33.6787 73.7065 33.4415C73.8267 33.1954 73.8267 33.1954 73.9493 32.9443C74.2053 32.4204 74.4624 31.8971 74.7194 31.3738C74.8878 31.0294 75.0561 30.685 75.2244 30.3406C76.2086 28.3286 77.2064 26.3239 78.2074 24.32Z" fill="white" fill-opacity="0.8"/>
<path d="M0 24.32C9.96006 24.32 19.9201 24.32 30.182 24.32C29.9922 25.27 29.9922 25.27 28.6634 27.93C19.2045 27.93 9.74556 27.93 0 27.93C0 26.7387 0 25.5474 0 24.32Z" fill="white" fill-opacity="0.8"/>
<path d="M165.716 32.87C175.05 32.87 184.384 32.87 194 32.87C194 34.0613 194 35.2526 194 36.48C184.103 36.48 174.205 36.48 164.008 36.48C164.387 35.34 164.387 35.34 165.716 32.87Z" fill="white" fill-opacity="0.8"/>
<path d="M0 28.5C9.33364 28.5 18.6673 28.5 28.2838 28.5C27.72 29.6913 27.1562 30.8826 26.5753 32.11C17.8055 32.11 9.03562 32.11 0 32.11C0 30.9187 0 29.7274 0 28.5Z" fill="white" fill-opacity="0.8"/>
<path d="M167.804 28.5C176.449 28.5 185.093 28.5 194 28.5C194 29.6913 194 30.8826 194 32.11C184.791 32.11 175.583 32.11 166.096 32.11C166.659 30.9187 167.223 29.7274 167.804 28.5Z" fill="white" fill-opacity="0.8"/>
<path d="M0 32.87C8.58194 32.87 17.1639 32.87 26.0059 32.87C25.5934 34.1086 25.0339 35.2945 24.4873 36.48C16.4065 36.48 8.32568 36.48 0 36.48C0 35.2887 0 34.0974 0 32.87Z" fill="white" fill-opacity="0.8"/>
<path d="M169.893 24.32C177.848 24.32 185.804 24.32 194 24.32C194 25.5113 194 26.7026 194 27.93C185.544 27.93 177.087 27.93 168.374 27.93C168.564 26.98 168.564 26.98 169.893 24.32Z" fill="white" fill-opacity="0.8"/>
</g>
<defs>
<clipPath id="clip0_455_151">
<rect width="194" height="38" fill="white"/>
</clipPath>
</defs>
</svg>
