<svg width="171" height="38" viewBox="0 0 171 38" fill="none" xmlns="http://www.w3.org/2000/svg">
<g clip-path="url(#clip0_455_105)">
<path d="M56.6104 0.334778C59.4759 0.334778 62.3415 0.334778 65.2939 0.334778C66.0263 2.64212 66.7465 4.94528 67.4172 7.27014C67.5016 7.56139 67.5861 7.85263 67.6705 8.14385C67.8886 8.89609 68.1062 9.64849 68.3236 10.4009C68.5472 11.1744 68.7714 11.9478 68.9955 12.7211C69.4321 14.228 69.8681 15.7351 70.3037 17.2423C70.611 16.3947 70.7938 15.5462 70.9669 14.664C70.9979 14.5087 71.0289 14.3535 71.0608 14.1935C71.1626 13.6828 71.2635 13.1719 71.3644 12.661C71.435 12.3058 71.5056 11.9507 71.5763 11.5956C71.7619 10.6628 71.9468 9.72984 72.1314 8.79683C72.3202 7.84405 72.5096 6.89143 72.699 5.93878C73.0702 4.07092 73.4406 2.20289 73.8105 0.334778C76.0148 0.334778 78.2191 0.334778 80.4902 0.334778C80.1145 2.59481 80.1145 2.59481 79.927 3.47376C79.8846 3.67347 79.8423 3.87319 79.7986 4.07895C79.7532 4.29061 79.7079 4.50227 79.6611 4.72035C79.6119 4.95126 79.5628 5.18218 79.5137 5.4131C79.3817 6.03356 79.249 6.65389 79.1163 7.27419C79.0053 7.79305 78.8946 8.31196 78.7838 8.83088C78.5229 10.0536 78.2615 11.2763 77.9998 12.4989C77.7298 13.7607 77.4605 15.0226 77.1916 16.2846C76.9603 17.37 76.7286 18.4553 76.4964 19.5406C76.3579 20.188 76.2196 20.8355 76.0817 21.4831C75.9525 22.0902 75.8226 22.6971 75.6923 23.3039C75.6216 23.6338 75.5515 23.9639 75.4815 24.2939C75.4186 24.5857 75.4186 24.5857 75.3545 24.8834C75.3182 25.0534 75.2818 25.2235 75.2443 25.3987C75.1465 25.7797 75.1465 25.7797 74.9795 25.9471C74.713 25.9627 74.4457 25.9668 74.1787 25.9661C74.0082 25.9661 73.8377 25.9661 73.6621 25.9661C73.4767 25.9652 73.2912 25.9643 73.1002 25.9635C72.9114 25.9632 72.7226 25.963 72.5281 25.9627C71.9223 25.9618 71.3165 25.9597 70.7108 25.9576C70.3012 25.9567 69.8917 25.956 69.4821 25.9553C68.4757 25.9534 67.4693 25.9506 66.4629 25.9471C66.3173 25.471 66.1717 24.9948 66.0261 24.5187C65.8957 24.0922 65.7652 23.6656 65.6348 23.2391C65.2743 22.0604 64.914 20.8816 64.554 19.7027C64.4088 19.2274 64.2637 18.7521 64.1185 18.2768C64.0825 18.159 64.0466 18.0413 64.0095 17.92C63.5654 16.4662 63.1193 15.0131 62.6703 13.5608C62.5434 13.1488 62.4164 12.7368 62.2896 12.3248C62.2125 12.0751 62.135 11.8254 62.0572 11.5758C61.9518 11.2377 61.8475 10.8992 61.7434 10.5606C61.6866 10.3777 61.6299 10.1948 61.5714 10.0063C61.4531 9.54183 61.4531 9.54183 61.4531 8.87222C61.3429 8.87222 61.2327 8.87222 61.1191 8.87222C61.1105 8.97488 61.1018 9.07753 61.0929 9.1833C61.0026 10.175 60.8577 11.1386 60.6599 12.114C60.6308 12.2606 60.6018 12.4073 60.5718 12.5584C60.4767 13.037 60.3805 13.5153 60.2842 13.9936C60.2174 14.3282 60.1506 14.6628 60.0839 14.9974C59.9446 15.6954 59.8048 16.3933 59.6645 17.0911C59.4845 17.9867 59.3056 18.8825 59.1271 19.7784C58.9897 20.4678 58.8517 21.1571 58.7137 21.8463C58.6475 22.1768 58.5814 22.5074 58.5155 22.8379C58.4237 23.298 58.3312 23.7579 58.2385 24.2178C58.2113 24.3549 58.184 24.4919 58.156 24.6331C57.9654 25.574 57.9654 25.574 57.7793 25.9471C55.6301 25.9471 53.4809 25.9471 51.2666 25.9471C51.3658 25.0519 51.4569 24.2409 51.6427 23.3741C51.6849 23.1758 51.727 22.9775 51.7704 22.7732C51.8164 22.5605 51.8624 22.3479 51.9098 22.1287C51.959 21.8987 52.0081 21.6687 52.0571 21.4386C52.1896 20.8181 52.323 20.1977 52.4566 19.5774C52.5966 18.9268 52.7357 18.276 52.875 17.6252C53.1086 16.5336 53.3428 15.4421 53.5774 14.3506C53.9082 12.8116 54.238 11.2723 54.5677 9.73299C54.8239 8.53644 55.0805 7.33994 55.337 6.14346C55.3645 6.0153 55.392 5.88714 55.4203 5.7551C55.5782 5.01876 55.7362 4.28246 55.8945 3.5462C55.9652 3.21689 56.0359 2.88757 56.1065 2.55824C56.1697 2.26434 56.1697 2.26434 56.2342 1.96449C56.2708 1.79424 56.3074 1.62399 56.345 1.44858C56.4275 1.07594 56.518 0.705085 56.6104 0.334778Z" fill="white" fill-opacity="0.8"/>
<path d="M17.879 -0.0732095C18.0123 -0.0728673 18.1456 -0.0725251 18.283 -0.0721725C21.188 -0.0600908 23.9438 0.288608 26.7192 1.17183C26.6011 2.32028 26.2743 3.4023 25.9573 4.50939C25.9023 4.70371 25.8473 4.89803 25.7906 5.09823C25.6555 5.57524 25.5197 6.05204 25.3832 6.52866C25.2792 6.49654 25.1751 6.46441 25.0678 6.43131C21.1135 5.22424 16.7258 4.38915 12.8588 6.36126C10.8223 7.63913 9.55648 9.51936 8.87189 11.8123C8.37353 14.0693 8.41972 16.5583 9.65466 18.5501C10.5563 19.8084 11.8282 20.6462 13.3598 20.9251C13.7968 20.9453 14.2275 20.9561 14.6644 20.9565C14.7791 20.9586 14.8937 20.9606 15.0118 20.9627C15.1256 20.9631 15.2393 20.9634 15.3565 20.9637C15.5089 20.9647 15.5089 20.9647 15.6643 20.9658C16.1882 20.9078 16.6938 20.7355 17.2006 20.5903C17.5864 18.9331 17.9721 17.2758 18.3696 15.5683C17.1021 15.5683 15.8346 15.5683 14.5287 15.5683C14.6957 13.7269 14.6957 13.7269 15.3637 10.7137C18.9457 10.7137 22.5277 10.7137 26.2182 10.7137C25.2453 15.5901 25.2453 15.5901 24.8751 17.3653C24.8326 17.5691 24.7901 17.773 24.7463 17.9831C24.6584 18.4038 24.5705 18.8245 24.4824 19.2452C24.3929 19.6736 24.3037 20.102 24.2148 20.5306C24.0843 21.1601 23.9527 21.7894 23.8209 22.4187C23.7815 22.6099 23.742 22.8012 23.7013 22.9983C23.6452 23.2645 23.6452 23.2645 23.588 23.536C23.5556 23.6911 23.5233 23.8461 23.49 24.0058C23.375 24.4576 23.2551 24.8607 23.0453 25.2776C22.6028 25.4487 22.2317 25.5545 21.772 25.6437C21.6605 25.6691 21.549 25.6945 21.4341 25.7206C19.349 26.1688 17.2444 26.3416 15.1162 26.3348C14.7682 26.3343 14.4204 26.3382 14.0725 26.3425C10.4671 26.3595 7.06784 25.3466 4.39572 22.8359C1.96604 20.3018 1.26664 17.0236 1.31158 13.6216C1.40854 9.96878 2.58857 6.78858 5.17719 4.18505C5.30225 4.05579 5.42732 3.92653 5.55618 3.79336C8.79092 0.6475 13.545 -0.106987 17.879 -0.0732095Z" fill="white" fill-opacity="0.8"/>
<path d="M117.656 0.188339C118.068 0.200103 118.479 0.210795 118.891 0.220381C119.896 0.246125 120.9 0.285253 121.904 0.334815C122.044 1.18174 122.183 2.02867 122.322 2.8756C122.374 3.18846 122.425 3.50131 122.477 3.81416C122.787 5.70107 123.098 7.588 123.408 9.475C123.494 9.99898 123.58 10.523 123.666 11.0469C123.723 11.3961 123.78 11.7452 123.838 12.0943C124.156 14.0303 124.475 15.9662 124.796 17.9016C124.938 18.7588 125.08 19.6161 125.222 20.4733C125.285 20.856 125.349 21.2385 125.413 21.621C125.5 22.1413 125.586 22.6619 125.671 23.1824C125.696 23.3294 125.721 23.4764 125.747 23.6278C125.769 23.7635 125.791 23.8991 125.814 24.0389C125.833 24.1539 125.852 24.2689 125.872 24.3874C125.926 24.9047 125.912 25.4271 125.912 25.9472C123.653 25.9472 121.393 25.9472 119.065 25.9472C118.867 24.9544 118.678 23.9948 118.544 22.9967C118.516 22.7943 118.488 22.5919 118.459 22.3833C118.394 21.7222 118.393 21.0869 118.397 20.4229C117.172 20.3551 115.948 20.3089 114.721 20.2889C114.151 20.279 113.583 20.2621 113.014 20.2283C110.502 20.0045 110.502 20.0045 108.297 20.96C107.603 21.8623 107.143 22.8539 106.756 23.9212C106.465 24.6241 106.075 25.2819 105.706 25.9472C103.226 25.9472 100.746 25.9472 98.1914 25.9472C98.44 25.1995 98.6345 24.707 99.0296 24.0587C99.1807 23.8089 99.1807 23.8089 99.3347 23.5541C99.4431 23.3771 99.5514 23.2 99.663 23.0176C99.8349 22.7338 100.007 22.4499 100.178 22.1659C100.295 21.9734 100.411 21.781 100.528 21.5887C101.05 20.7265 101.564 19.859 102.074 18.9895C102.251 18.6881 102.429 18.3866 102.606 18.0852C102.7 17.9258 102.794 17.7663 102.891 17.602C103.508 16.5539 104.127 15.5063 104.746 14.4593C104.813 14.3452 104.881 14.2311 104.95 14.1135C105.959 12.4094 106.981 10.7141 108.011 9.02333C108.982 7.42885 109.922 5.81884 110.84 4.19329C111.029 3.86049 111.223 3.53058 111.422 3.20376C111.646 2.80612 111.808 2.457 111.969 2.03604C113.023 -0.427676 115.332 0.0732412 117.656 0.188339ZM116.394 6.19385C116.312 6.34616 116.312 6.34616 116.229 6.50155C115.101 8.60343 113.963 10.6969 112.772 12.7637C112.688 12.9122 112.603 13.0606 112.516 13.2136C112.442 13.3414 112.368 13.4693 112.292 13.601C111.958 14.2412 111.677 14.9079 111.384 15.5683C113.478 15.5683 115.572 15.5683 117.729 15.5683C117.594 14.26 117.458 12.9518 117.32 11.6438C117.273 11.1985 117.226 10.753 117.181 10.3076C117.115 9.66875 117.047 9.03019 116.979 8.39164C116.959 8.19111 116.939 7.99058 116.918 7.78397C116.898 7.59965 116.878 7.41533 116.857 7.22543C116.832 6.98064 116.832 6.98064 116.806 6.73091C116.78 6.60892 116.754 6.48693 116.728 6.36125C116.617 6.306 116.507 6.25076 116.394 6.19385Z" fill="white" fill-opacity="0.8"/>
<path d="M33.2314 0.334778C39.2933 0.334778 45.3551 0.334778 51.6006 0.334778C51.4321 2.02345 51.0976 3.69266 50.7656 5.3568C46.9081 5.3568 43.0506 5.3568 39.0762 5.3568C39.0211 5.85398 38.966 6.35116 38.9092 6.86341C38.6336 8.07874 38.3581 9.29407 38.0742 10.5462C41.4909 10.6015 44.9075 10.6567 48.4277 10.7136C48.2396 12.4111 48.2396 12.4111 48.1042 13.0572C48.0753 13.1951 48.0465 13.333 48.0168 13.4751C47.9871 13.6134 47.9574 13.7517 47.9268 13.8942C47.8822 14.1095 47.8822 14.1095 47.8367 14.3291C47.6143 15.3793 47.6143 15.3793 47.4258 15.5683C47.0979 15.584 46.7694 15.5879 46.4411 15.5873C46.2305 15.5872 46.0198 15.5872 45.8028 15.5872C45.5713 15.5864 45.3397 15.5855 45.1081 15.5846C44.8725 15.5843 44.6368 15.5841 44.4012 15.5839C43.7799 15.5832 43.1587 15.5816 42.5374 15.5798C41.9039 15.578 41.2704 15.5773 40.6368 15.5764C39.393 15.5746 38.1491 15.5718 36.9053 15.5683C36.8889 15.6904 36.8726 15.8125 36.8557 15.9384C36.6213 17.5794 36.2656 19.1232 35.9033 20.7577C41.5243 20.8405 41.5243 20.8405 47.2588 20.9251C47.0903 22.6138 46.7558 24.283 46.4238 25.9471C40.3069 25.9471 34.19 25.9471 27.8877 25.9471C27.9903 25.1244 28.0931 24.3582 28.2638 23.5553C28.327 23.2561 28.327 23.2561 28.3915 22.9508C28.4375 22.736 28.4835 22.5211 28.5309 22.2998C28.58 22.0681 28.6291 21.8365 28.6782 21.6048C28.8109 20.9791 28.9442 20.3535 29.0777 19.7279C29.2176 19.0722 29.3568 18.4162 29.4961 17.7604C29.7298 16.6599 29.964 15.5595 30.1985 14.4591C30.5292 12.9075 30.859 11.3557 31.1888 9.80389C31.4174 8.72799 31.6462 7.65213 31.8751 6.57628C31.9305 6.31565 31.986 6.05503 32.0414 5.79441C32.1993 5.05193 32.3573 4.30948 32.5156 3.56707C32.5635 3.34222 32.6113 3.11737 32.6592 2.89251C32.7244 2.58564 32.7899 2.27881 32.8553 1.97197C32.8919 1.80027 32.9285 1.62857 32.9661 1.45166C33.0483 1.07792 33.1389 0.706055 33.2314 0.334778Z" fill="white" fill-opacity="0.8"/>
<path d="M86.001 0.334782C87.2033 0.326173 88.4057 0.32038 89.6081 0.316391C90.0157 0.314725 90.4232 0.312453 90.8308 0.309525C99.7739 0.246948 99.7739 0.246948 102.359 2.64701C103.782 4.13686 104.092 5.93779 104.072 7.9391C103.915 10.5566 103.019 12.3931 101.197 14.2291C101.109 14.3238 101.02 14.4185 100.929 14.5161C98.5215 16.8606 94.7425 17.1062 91.5952 17.0853C91.3782 17.0846 91.1612 17.0838 90.9377 17.083C90.4054 17.0811 89.8731 17.0783 89.3408 17.0749C89.3208 17.1771 89.3007 17.2793 89.2801 17.3847C88.7176 20.2457 88.1183 23.0968 87.5039 25.9471C85.1894 25.9471 82.8749 25.9471 80.4902 25.9471C81.0656 22.8932 81.6861 19.8534 82.3448 16.8166C82.4402 16.3752 82.5355 15.9339 82.6308 15.4925C82.8285 14.5777 83.0265 13.6629 83.2249 12.7482C83.4534 11.6942 83.6812 10.6402 83.9087 9.58602C84.1297 8.56199 84.3512 7.53804 84.5729 6.51415C84.6664 6.08202 84.7598 5.64986 84.8531 5.21769C84.983 4.61657 85.1133 4.01556 85.2438 3.41457C85.2818 3.23779 85.3199 3.061 85.3592 2.87885C85.546 2.02081 85.7477 1.17564 86.001 0.334782ZM91.8457 5.35681C91.5838 6.10143 91.3891 6.84853 91.2234 7.61934C91.1979 7.73602 91.1724 7.85271 91.1462 7.97293C91.0929 8.21765 91.0399 8.46244 90.9871 8.70728C90.9061 9.08283 90.8241 9.45816 90.742 9.83347C90.6902 10.0719 90.6384 10.3104 90.5867 10.5489C90.55 10.7173 90.55 10.7173 90.5124 10.8891C90.3855 11.4658 90.3855 11.4658 90.3428 12.0528C93.5717 12.1917 93.5717 12.1917 96.3545 10.7136C97.0816 9.81344 97.0962 8.82768 97.0949 7.70892C96.9872 6.94949 96.6842 6.51554 96.1353 5.99502C95.1867 5.35368 94.3074 5.31148 93.2025 5.33588C93.0716 5.33739 92.9408 5.3389 92.8059 5.34046C92.4858 5.34437 92.1658 5.35038 91.8457 5.35681Z" fill="white" fill-opacity="0.8"/>
<path d="M141.545 -0.0339753C141.681 -0.0349295 141.818 -0.0358837 141.958 -0.0368668C142.246 -0.0384413 142.533 -0.0395395 142.821 -0.0401874C143.251 -0.041796 143.681 -0.0469896 144.111 -0.0522848C145.947 -0.0636815 147.664 0.115516 149.458 0.502231C149.2 2.19481 148.837 3.85613 148.456 5.52426C147.822 5.72435 147.393 5.60304 146.752 5.44971C144.014 4.90532 140.926 5.12351 138.516 6.62348C136.542 8.07859 135.391 9.91525 134.847 12.3027C134.507 14.6725 134.583 16.9387 136.01 18.9327C136.938 20.0891 138.342 20.6702 139.772 20.9251C140.354 20.9784 140.931 20.9889 141.515 20.9879C141.675 20.9878 141.835 20.9876 142 20.9875C143.701 20.9596 145.355 20.6783 146.917 19.9815C147.454 19.7533 147.454 19.7533 147.955 19.7533C147.863 20.4833 147.771 21.2131 147.679 21.9429C147.647 22.1912 147.616 22.4394 147.585 22.6877C147.54 23.0447 147.495 23.4016 147.449 23.7585C147.409 24.0807 147.409 24.0807 147.367 24.4094C147.287 24.9428 147.287 24.9428 147.12 25.445C146.666 25.5906 146.237 25.7029 145.773 25.8007C145.65 25.829 145.527 25.8572 145.399 25.8864C140.989 26.8688 136.172 26.6464 132.258 24.2732C129.864 22.7307 128.362 20.439 127.667 17.6935C126.916 13.6985 127.444 9.38281 129.747 5.97415C132.186 2.74482 135.482 0.746413 139.467 0.0786198C140.165 -0.00717447 140.843 -0.0300602 141.545 -0.0339753Z" fill="white" fill-opacity="0.8"/>
<path d="M151.629 0.334778C158.021 0.334778 164.414 0.334778 171 0.334778C170.812 2.21966 170.812 2.21966 170.676 2.85625C170.648 2.99285 170.619 3.12944 170.589 3.27018C170.544 3.47442 170.544 3.47442 170.499 3.6828C170.469 3.82414 170.44 3.96548 170.409 4.11111C170.188 5.14257 170.188 5.14257 169.998 5.52421C167.904 5.52421 165.81 5.52421 163.652 5.52421C163.597 5.96614 163.542 6.40808 163.485 6.86341C163.433 7.1569 163.376 7.44973 163.314 7.74147C163.264 7.98261 163.264 7.98261 163.212 8.22863C163.175 8.40043 163.139 8.57224 163.101 8.74925C163.062 8.93367 163.023 9.1181 162.983 9.30812C162.856 9.91428 162.727 10.5203 162.598 11.1262C162.509 11.548 162.42 11.9698 162.331 12.3916C162.144 13.2736 161.957 14.1554 161.77 15.0372C161.553 16.0573 161.337 17.0777 161.122 18.0982C160.914 19.0808 160.706 20.0632 160.498 21.0456C160.409 21.4636 160.321 21.8817 160.232 22.2997C160.109 22.8818 159.986 23.4637 159.862 24.0455C159.825 24.2197 159.789 24.3939 159.751 24.5733C159.717 24.7308 159.683 24.8882 159.649 25.0505C159.619 25.1881 159.59 25.3257 159.56 25.4674C159.478 25.7797 159.478 25.7797 159.311 25.9471C158.792 25.962 158.278 25.9664 157.76 25.9635C157.605 25.9632 157.449 25.963 157.289 25.9627C156.79 25.9618 156.292 25.9597 155.793 25.9576C155.456 25.9567 155.119 25.956 154.782 25.9553C153.954 25.9534 153.125 25.9505 152.297 25.9471C153.023 22.2056 153.82 18.4789 154.613 14.751C154.807 13.836 155.001 12.9209 155.195 12.0059C155.345 11.297 155.496 10.5882 155.646 9.87935C155.718 9.54151 155.789 9.20365 155.861 8.86577C155.96 8.39762 156.06 7.92955 156.159 7.46149C156.189 7.32273 156.218 7.18397 156.248 7.04101C156.358 6.52534 156.472 6.02495 156.639 5.52421C154.655 5.52421 152.671 5.52421 150.627 5.52421C150.821 3.77307 151.239 2.05288 151.629 0.334778Z" fill="white" fill-opacity="0.8"/>
<path d="M95.0184 32.978C95.294 32.978 95.5695 32.978 95.8534 32.978C96.039 33.7209 96.0397 34.446 96.0308 35.2065C96.0301 35.3304 96.0293 35.4544 96.0286 35.5821C96.0266 35.8859 96.0236 36.1896 96.0204 36.4934C96.1306 36.4934 96.2408 36.4934 96.3544 36.4934C96.397 36.3548 96.4396 36.2163 96.4835 36.0736C96.7138 35.4162 96.995 34.7988 97.2937 34.1707C97.348 34.0555 97.4022 33.9402 97.4581 33.8215C97.5907 33.5401 97.7239 33.259 97.8573 32.978C98.2431 32.978 98.6288 32.978 99.0263 32.978C99.0814 34.138 99.1365 35.2981 99.1933 36.4934C99.3119 36.2536 99.4305 36.0139 99.5527 35.7669C99.7077 35.4545 99.8627 35.1422 100.018 34.8298C100.096 34.6715 100.174 34.5133 100.255 34.3502C100.367 34.1244 100.367 34.1244 100.482 33.8941C100.551 33.7547 100.62 33.6153 100.691 33.4717C100.863 33.1454 100.863 33.1454 101.03 32.978C101.308 32.9711 101.587 32.9708 101.865 32.978C101.764 33.6366 101.561 34.1399 101.249 34.7272C101.16 34.8967 101.071 35.0662 100.979 35.2408C100.886 35.4159 100.792 35.591 100.696 35.7715C100.603 35.9485 100.509 36.1256 100.413 36.308C100.241 36.6346 100.068 36.961 99.8945 37.287C99.7694 37.5233 99.6466 37.7607 99.5272 38C99.1415 38 98.7557 38 98.3583 38C98.3482 37.7984 98.3381 37.5969 98.3276 37.3892C98.3135 37.1255 98.2994 36.8617 98.2852 36.598C98.2787 36.4651 98.2721 36.3321 98.2653 36.1952C98.2432 35.4846 98.2432 35.4846 98.0243 34.8194C97.9847 34.9098 97.9451 35.0002 97.9043 35.0933C97.7255 35.5009 97.5462 35.9082 97.3668 36.3155C97.3045 36.4578 97.2421 36.6001 97.1779 36.7468C97.1182 36.8822 97.0585 37.0176 96.9969 37.1571C96.9418 37.2824 96.8867 37.4078 96.83 37.537C96.6884 37.8326 96.6884 37.8326 96.5214 38C96.1318 38.0068 95.742 38.0071 95.3524 38C95.2961 37.3514 95.2407 36.7027 95.1854 36.0539C95.1695 35.8707 95.1536 35.6875 95.1372 35.4988C95.1146 35.2317 95.1146 35.2317 95.0915 34.9593C95.0775 34.7962 95.0635 34.6332 95.0491 34.4652C95.0175 33.9681 95.0133 33.4759 95.0184 32.978Z" fill="white" fill-opacity="0.8"/>
<path d="M47.2588 32.978C47.6445 32.978 48.0303 32.978 48.4277 32.978C48.596 33.4693 48.7625 33.9612 48.9287 34.4532C48.9765 34.5927 49.0243 34.7322 49.0735 34.8759C49.1187 35.0103 49.1639 35.1446 49.2105 35.283C49.2525 35.4066 49.2945 35.5302 49.3377 35.6576C49.4297 35.9912 49.4297 35.9912 49.4297 36.4934C49.5399 36.4934 49.6501 36.4934 49.7637 36.4934C49.7699 36.3939 49.7762 36.2944 49.7826 36.1919C49.8709 35.0753 50.1087 34.0489 50.4316 32.978C50.7072 32.978 50.9827 32.978 51.2666 32.978C50.9326 34.652 50.5986 36.326 50.2646 38C49.8789 38 49.4931 38 49.0957 38C48.71 36.8951 48.3242 35.7903 47.9268 34.652C47.714 35.6284 47.714 35.6284 47.5021 36.6051C47.4754 36.7266 47.4487 36.8482 47.4212 36.9734C47.3806 37.1601 47.3806 37.1601 47.3391 37.3506C47.2588 37.6652 47.2588 37.6652 47.0918 38C46.8163 38 46.5407 38 46.2568 38C46.3922 37.2885 46.528 36.577 46.6639 35.8656C46.7023 35.6637 46.7407 35.4617 46.7803 35.2536C46.8175 35.0594 46.8546 34.8651 46.8928 34.6651C46.9269 34.4862 46.9611 34.3074 46.9962 34.1231C47.0737 33.7377 47.1592 33.3581 47.2588 32.978Z" fill="white" fill-opacity="0.8"/>
<path d="M32.8975 32.978C33.2281 32.978 33.5588 32.978 33.8994 32.978C34.2852 34.0276 34.6709 35.0772 35.0684 36.1586C35.1235 36.1586 35.1786 36.1586 35.2354 36.1586C35.4558 35.109 35.6762 34.0594 35.9033 32.978C36.1789 32.978 36.4544 32.978 36.7383 32.978C36.6345 34.0536 36.4653 35.0924 36.2373 36.1481C36.2076 36.2902 36.1779 36.4323 36.1473 36.5787C35.9258 37.6201 35.9258 37.6201 35.7363 38C35.4057 38 35.075 38 34.7344 38C34.6017 37.6863 34.4696 37.3724 34.3378 37.0584C34.2641 36.8836 34.1905 36.7088 34.1147 36.5287C33.9109 36.0198 33.7327 35.5087 33.5654 34.9868C33.2175 35.5873 33.0976 36.1932 32.9601 36.87C32.9166 37.0815 32.8731 37.293 32.8283 37.5109C32.796 37.6723 32.7637 37.8337 32.7305 38C32.4549 38 32.1794 38 31.8955 38C31.9992 36.9243 32.1685 35.8856 32.3965 34.8298C32.4262 34.6877 32.4559 34.5456 32.4865 34.3992C32.708 33.3578 32.708 33.3578 32.8975 32.978Z" fill="white" fill-opacity="0.8"/>
<path d="M2.83887 32.978C3.16951 32.978 3.50016 32.978 3.84082 32.978C4.28613 34.094 4.73145 35.21 5.17676 36.326C5.39719 35.2764 5.61762 34.2268 5.84473 33.1454C6.12026 33.0901 6.3958 33.0349 6.67969 32.978C6.62793 34.1556 6.43348 35.2827 6.17871 36.4306C6.14895 36.5656 6.11919 36.7005 6.08853 36.8395C5.86699 37.8103 5.86699 37.8103 5.67773 38C5.34382 38.0068 5.00969 38.0071 4.67578 38C4.24558 36.9514 3.85045 35.8997 3.50684 34.8194C3.46055 35.0069 3.41427 35.1944 3.36659 35.3876C3.3055 35.6341 3.2444 35.8807 3.18329 36.1272C3.15283 36.2507 3.12237 36.3743 3.09099 36.5016C2.9654 37.0074 2.83639 37.5053 2.67188 38C2.39634 38 2.1208 38 1.83691 38C2.06168 36.2953 2.42842 34.6458 2.83887 32.978Z" fill="white" fill-opacity="0.8"/>
<path d="M142.445 32.978C142.943 33.1861 143.181 33.321 143.464 33.7784C143.792 34.5919 143.742 35.5515 143.499 36.3855C143.147 37.1699 142.75 37.6537 141.944 38C141.036 38.1185 140.241 38.157 139.418 37.728C138.871 37.0329 138.733 36.444 138.792 35.5727C138.928 34.6303 139.335 34.0543 140.044 33.4279C140.824 32.8723 141.507 32.8951 142.445 32.978ZM140.107 34.4846C139.691 35.1991 139.684 35.8558 139.773 36.6608C140.092 37.1205 140.092 37.1205 140.608 37.3304C141.208 37.372 141.208 37.372 141.777 37.163C142.278 36.6737 142.605 36.1694 142.779 35.489C142.779 35.0095 142.713 34.6268 142.612 34.1498C141.674 33.523 140.867 33.6793 140.107 34.4846Z" fill="white" fill-opacity="0.8"/>
<path d="M121.069 32.978C121.337 32.974 121.605 32.9712 121.873 32.9688C122.022 32.9671 122.171 32.9654 122.325 32.9637C123.014 32.9875 123.426 33.1644 123.908 33.6476C123.961 34.3735 123.983 34.7067 123.574 35.3216C123.464 35.3216 123.354 35.3216 123.24 35.3216C123.24 35.4321 123.24 35.5426 123.24 35.6564C123.35 35.6564 123.461 35.6564 123.574 35.6564C123.743 36.3825 123.809 36.8506 123.407 37.4978C122.64 37.9753 122.069 38.0568 121.174 38.0314C120.966 38.0269 120.758 38.0223 120.544 38.0177C120.386 38.0118 120.229 38.006 120.067 38C120.17 36.8486 120.384 35.7625 120.662 34.6415C120.701 34.4807 120.74 34.3198 120.781 34.154C120.876 33.7618 120.972 33.3698 121.069 32.978ZM121.737 33.815C121.682 34.2569 121.627 34.6989 121.57 35.1542C122.149 35.0713 122.149 35.0713 122.739 34.9868C122.849 34.7106 122.96 34.4344 123.073 34.1498C122.756 33.7564 122.756 33.7564 122.217 33.7941C122.059 33.801 121.901 33.8079 121.737 33.815ZM121.403 35.8238C121.142 36.5591 121.142 36.5591 121.069 37.3304C122.002 37.2971 122.002 37.2971 122.739 36.8282C122.691 36.2746 122.691 36.2746 122.405 35.8238C122.071 35.817 121.737 35.8167 121.403 35.8238Z" fill="white" fill-opacity="0.8"/>
<path d="M114.223 32.978C115.29 32.9271 116.268 32.9621 117.229 33.4802C117.742 33.9994 117.802 34.4037 117.803 35.1228C117.774 36.074 117.672 36.5962 117.062 37.3304C115.985 38.26 114.55 38.0625 113.221 38C113.324 36.9244 113.494 35.8856 113.722 34.8299C113.751 34.6878 113.781 34.5457 113.812 34.3993C114.033 33.3579 114.033 33.3579 114.223 32.978ZM114.891 33.815C114.779 34.2787 114.667 34.7425 114.557 35.2065C114.525 35.3381 114.493 35.4696 114.46 35.6051C114.43 35.7319 114.4 35.8586 114.369 35.9893C114.327 36.1642 114.327 36.1642 114.284 36.3426C114.207 36.689 114.207 36.689 114.223 37.163C115.234 37.233 115.757 37.1836 116.561 36.4934C116.992 35.9236 116.956 35.3475 116.895 34.652C116.767 34.2304 116.767 34.2304 116.394 33.9824C115.894 33.8776 115.4 33.8364 114.891 33.815Z" fill="white" fill-opacity="0.8"/>
<path d="M93.0144 32.978C93.9267 33.4679 93.9267 33.4679 94.1833 33.9824C94.3035 35.1973 94.3166 36.2062 93.6125 37.2323C92.9731 37.8749 92.4085 38.0721 91.5114 38.0732C90.8455 38.0576 90.5609 38.0303 89.9772 37.6861C89.3027 36.8934 89.4371 35.985 89.5075 34.9868C89.7971 34.0999 90.2777 33.681 91.0105 33.1454C91.6889 32.9187 92.305 32.8871 93.0144 32.978ZM90.6765 34.652C90.3436 35.2718 90.2408 35.7941 90.3425 36.4934C90.6626 37.0095 90.6626 37.0095 91.1775 37.3304C91.7674 37.3621 92.1417 37.3403 92.6008 36.9426C93.2871 36.1492 93.4205 35.5154 93.3484 34.4846C93.2123 34.0563 93.2123 34.0563 92.8474 33.815C91.7931 33.6616 91.345 33.765 90.6765 34.652Z" fill="white" fill-opacity="0.8"/>
<path d="M26.2911 32.9466C26.4494 32.9442 26.6076 32.9418 26.7706 32.9394C27.2276 32.9786 27.498 33.0789 27.888 33.3128C27.8329 33.5337 27.7778 33.7547 27.721 33.9824C27.4976 33.9766 27.4976 33.9766 27.2696 33.9706C27.0742 33.9676 26.8787 33.9646 26.6773 33.9615C26.4836 33.9576 26.2898 33.9537 26.0902 33.9497C25.572 33.9811 25.3042 34.0253 24.8822 34.3172C24.4501 34.9978 24.2765 35.5213 24.3812 36.326C24.5266 36.7252 24.5266 36.7252 24.8822 36.9956C25.3265 37.1502 25.7541 37.2389 26.2181 37.3304C26.3283 36.8885 26.4385 36.4465 26.5521 35.9912C26.2214 35.9912 25.8908 35.9912 25.5501 35.9912C25.6052 35.715 25.6603 35.4388 25.7171 35.1542C26.3233 35.1542 26.9295 35.1542 27.554 35.1542C27.5022 35.503 27.45 35.8517 27.3975 36.2004C27.3539 36.4918 27.3539 36.4918 27.3094 36.789C27.2413 37.2017 27.1634 37.5973 27.053 38C24.5421 38.1441 24.5421 38.1441 23.9011 37.6129C23.2608 36.8011 23.2955 35.9817 23.3792 34.9868C23.6787 34.1027 24.1491 33.6812 24.8822 33.1454C25.3917 32.9751 25.7575 32.9502 26.2911 32.9466Z" fill="white" fill-opacity="0.8"/>
<path d="M59.7832 32.978C60.8386 32.9205 61.7191 32.8831 62.6221 33.4802C62.844 34.1475 62.8678 34.4828 62.5699 35.1228C62.2881 35.489 62.2881 35.489 61.9541 35.8238C62.0254 36.3515 62.0254 36.3515 62.1837 36.9328C62.2332 37.1318 62.2827 37.3307 62.3337 37.5357C62.3738 37.6889 62.4138 37.8421 62.4551 38C62.1244 38 61.7938 38 61.4531 38C61.4266 37.8709 61.4002 37.7419 61.3729 37.6089C61.3339 37.4411 61.295 37.2732 61.2548 37.1002C61.218 36.9332 61.1812 36.7662 61.1433 36.5941C60.9652 36.0505 60.9652 36.0505 60.1172 35.8238C60.007 36.5419 59.8968 37.2601 59.7832 38C59.4526 38 59.1219 38 58.7812 38C59.1152 36.326 59.4492 34.652 59.7832 32.978ZM60.6182 33.815C60.3726 34.4696 60.3726 34.4696 60.2842 35.1542C61.06 35.073 61.06 35.073 61.7871 34.8194C61.7871 34.5432 61.7871 34.2669 61.7871 33.9824C61.4014 33.9271 61.0156 33.8719 60.6182 33.815Z" fill="white" fill-opacity="0.8"/>
<path d="M135.431 32.978C136.491 32.9203 137.356 32.8954 138.27 33.4802C138.457 33.9615 138.457 33.9615 138.437 34.4846C138.217 34.924 138.217 34.924 137.936 35.3216C137.7 35.6258 137.7 35.6258 137.602 35.9912C137.702 36.3849 137.814 36.7756 137.936 37.163C137.956 37.6548 137.956 37.6548 137.936 38C137.66 38 137.384 38 137.101 38C137.074 37.871 137.048 37.7419 137.02 37.609C136.981 37.4411 136.942 37.2732 136.902 37.1002C136.865 36.9332 136.829 36.7662 136.791 36.5941C136.637 36.1199 136.637 36.1199 136.163 35.9324C136.032 35.8965 135.9 35.8607 135.765 35.8238C135.742 35.9669 135.72 36.1099 135.697 36.2574C135.668 36.4423 135.638 36.6272 135.608 36.8178C135.565 37.0945 135.565 37.0945 135.52 37.3768C135.431 37.8326 135.431 37.8326 135.264 38C134.985 38.0068 134.707 38.0072 134.429 38C134.68 36.3068 135.05 34.6456 135.431 32.978ZM136.099 33.815C136.044 34.2569 135.988 34.6989 135.932 35.1542C136.769 35.099 136.769 35.099 137.435 34.652C137.435 34.431 137.435 34.2101 137.435 33.9824C136.982 33.7557 136.598 33.8041 136.099 33.815Z" fill="white" fill-opacity="0.8"/>
<path d="M106.207 32.978C106.446 32.974 106.684 32.9712 106.923 32.9688C107.055 32.9671 107.188 32.9654 107.325 32.9637C108.026 32.9897 108.55 33.1509 109.046 33.6476C109.13 34.5141 109.13 34.5141 109.046 34.9868C108.929 35.0904 108.812 35.194 108.691 35.3007C108.588 35.4181 108.484 35.5355 108.378 35.6564C108.412 36.096 108.504 36.4962 108.615 36.9224C108.712 37.3304 108.712 37.3304 108.712 38C108.436 38 108.161 38 107.877 38C107.657 37.3371 107.436 36.6742 107.209 35.9912C106.989 35.9912 106.768 35.9912 106.541 35.9912C106.376 36.6541 106.21 37.317 106.04 38C105.765 38 105.489 38 105.205 38C105.32 36.889 105.546 35.8225 105.8 34.7357C105.839 34.5661 105.878 34.3965 105.918 34.2217C106.014 33.807 106.11 33.3924 106.207 32.978ZM106.875 33.815C106.82 34.2569 106.765 34.6989 106.708 35.1542C107.546 35.099 107.546 35.099 108.211 34.652C108.143 34.1862 108.143 34.1862 107.877 33.815C107.543 33.8082 107.209 33.8079 106.875 33.815Z" fill="white" fill-opacity="0.8"/>
<path d="M67.7988 32.978C69.768 32.9077 69.768 32.9077 70.4707 33.3128C70.7316 33.8673 70.7316 33.8673 70.8047 34.4846C70.5959 34.9345 70.5959 34.9345 70.3037 35.3216C70.0685 35.6258 70.0685 35.6258 69.9697 35.9912C70.0697 36.3849 70.1817 36.7756 70.3037 37.163C70.3246 37.6547 70.3246 37.6547 70.3037 38C70.0282 38 69.7526 38 69.4688 38C69.4423 37.871 69.4158 37.7419 69.3885 37.609C69.3496 37.4411 69.3106 37.2732 69.2704 37.1002C69.2336 36.9332 69.1968 36.7662 69.1589 36.5941C69.0051 36.1199 69.0051 36.1199 68.5314 35.9323C68.3999 35.8965 68.2683 35.8607 68.1328 35.8238C68.1106 35.9669 68.0885 36.1099 68.0656 36.2573C68.0361 36.4423 68.0066 36.6272 67.9763 36.8177C67.9327 37.0945 67.9327 37.0945 67.8882 37.3768C67.7988 37.8326 67.7988 37.8326 67.6318 38C67.3536 38.0068 67.0751 38.0071 66.7969 38C67.0486 36.3068 67.4181 34.6455 67.7988 32.978ZM68.4668 33.815C68.4117 34.2569 68.3566 34.6988 68.2998 35.1542C69.1373 35.099 69.1373 35.099 69.8027 34.652C69.8027 34.431 69.8027 34.21 69.8027 33.9824C69.3504 33.7556 68.9662 33.8041 68.4668 33.815Z" fill="white" fill-opacity="0.8"/>
<path d="M102.366 32.978C103.303 32.978 104.24 32.978 105.205 32.978C105.15 33.2542 105.095 33.5304 105.038 33.815C104.432 33.815 103.826 33.815 103.201 33.815C103.146 34.1464 103.091 34.4779 103.034 34.8194C103.585 34.8746 104.136 34.9299 104.704 34.9868C104.649 35.263 104.594 35.5392 104.537 35.8238C103.931 35.8238 103.325 35.8238 102.7 35.8238C102.645 36.2657 102.59 36.7077 102.533 37.163C103.139 37.163 103.746 37.163 104.37 37.163C104.315 37.4392 104.26 37.7154 104.203 38C103.266 38 102.329 38 101.364 38C101.698 36.326 102.032 34.652 102.366 32.978Z" fill="white" fill-opacity="0.8"/>
<path d="M12.2902 32.9616C12.5388 32.9627 12.7873 32.9647 13.0358 32.9675C13.1625 32.9682 13.2892 32.969 13.4197 32.9698C13.7336 32.9718 14.0475 32.9748 14.3613 32.978C14.3062 33.2542 14.2511 33.5304 14.1943 33.815C13.5882 33.815 12.982 33.815 12.3574 33.815C12.3023 34.2017 12.2472 34.5884 12.1904 34.9868C12.7415 34.9868 13.2926 34.9868 13.8604 34.9868C13.8052 35.263 13.7501 35.5392 13.6934 35.8238C13.0872 35.8238 12.481 35.8238 11.8564 35.8238C11.8013 36.2657 11.7462 36.7076 11.6895 37.163C12.2956 37.163 12.9018 37.163 13.5264 37.163C13.5264 37.4392 13.5264 37.7154 13.5264 38C12.5344 38 11.5425 38 10.5205 38C10.6247 37.4733 10.7291 36.9467 10.8336 36.4201C10.8627 36.2731 10.8917 36.126 10.9217 35.9745C11.066 35.2483 11.2129 34.5227 11.3672 33.7986C11.3931 33.6767 11.4189 33.5547 11.4456 33.4291C11.592 32.8888 11.6857 32.9781 12.2902 32.9616Z" fill="white" fill-opacity="0.8"/>
<path d="M110.382 32.978C111.319 32.978 112.255 32.978 113.221 32.978C113.166 33.2542 113.11 33.5304 113.054 33.815C112.448 33.8702 111.841 33.9255 111.217 33.9824C111.107 34.3138 110.996 34.6453 110.883 34.9868C111.434 34.9868 111.985 34.9868 112.553 34.9868C112.553 35.263 112.553 35.5392 112.553 35.8238C111.947 35.8238 111.34 35.8238 110.716 35.8238C110.661 36.2105 110.606 36.5972 110.549 36.9956C111.155 37.0508 111.761 37.1061 112.386 37.163C112.331 37.4392 112.276 37.7154 112.219 38C111.282 38 110.345 38 109.38 38C109.615 36.2905 109.974 34.6543 110.382 32.978Z" fill="white" fill-opacity="0.8"/>
<path d="M77.3174 32.978C78.2542 32.978 79.191 32.978 80.1562 32.978C80.1011 33.2542 80.046 33.5304 79.9893 33.815C79.3831 33.8702 78.7769 33.9255 78.1523 33.9824C78.0421 34.3138 77.9319 34.6453 77.8184 34.9868C78.3694 34.9868 78.9205 34.9868 79.4883 34.9868C79.4883 35.263 79.4883 35.5392 79.4883 35.8238C78.8821 35.8238 78.2759 35.8238 77.6514 35.8238C77.5963 36.2105 77.5412 36.5972 77.4844 36.9956C78.0906 37.0508 78.6967 37.1061 79.3213 37.163C79.2662 37.4392 79.2111 37.7154 79.1543 38C78.2175 38 77.2806 38 76.3154 38C76.5755 36.3053 76.9384 34.6494 77.3174 32.978Z" fill="white" fill-opacity="0.8"/>
<path d="M43.585 32.978C44.4667 32.978 45.3484 32.978 46.2568 32.978C46.2568 33.2542 46.2568 33.5304 46.2568 33.815C45.5955 33.815 44.9343 33.815 44.2529 33.815C44.1978 34.2017 44.1427 34.5884 44.0859 34.9868C44.637 34.9868 45.1881 34.9868 45.7559 34.9868C45.7008 35.263 45.6456 35.5392 45.5889 35.8238C44.9827 35.8238 44.3765 35.8238 43.752 35.8238C43.6968 36.2657 43.6417 36.7077 43.585 37.163C44.1911 37.163 44.7973 37.163 45.4219 37.163C45.4219 37.4392 45.4219 37.7154 45.4219 38C44.4299 38 43.438 38 42.416 38C42.5552 37.3385 42.6947 36.6771 42.8349 36.0158C42.8825 35.7908 42.93 35.5657 42.9773 35.3406C43.0453 35.0173 43.1139 34.694 43.1825 34.3708C43.2236 34.1762 43.2647 33.9816 43.307 33.781C43.418 33.3128 43.418 33.3128 43.585 32.978Z" fill="white" fill-opacity="0.8"/>
<path d="M149.124 32.978C150.061 32.978 150.998 32.978 151.963 32.978C151.908 33.2542 151.853 33.5304 151.796 33.815C151.19 33.8702 150.584 33.9255 149.959 33.9824C149.849 34.3138 149.739 34.6453 149.625 34.9868C150.176 34.9868 150.727 34.9868 151.295 34.9868C151.295 35.263 151.295 35.5392 151.295 35.8238C150.689 35.8238 150.083 35.8238 149.458 35.8238C149.403 36.2105 149.348 36.5972 149.291 36.9956C149.897 37.0508 150.503 37.1061 151.128 37.163C151.073 37.4392 151.018 37.7154 150.961 38C150.024 38 149.087 38 148.122 38C148.382 36.3053 148.745 34.6494 149.124 32.978Z" fill="white" fill-opacity="0.8"/>
<path d="M29.0566 32.978C29.9935 32.978 30.9303 32.978 31.8955 32.978C31.8404 33.2542 31.7853 33.5304 31.7285 33.815C31.1223 33.8702 30.5162 33.9255 29.8916 33.9824C29.7814 34.3138 29.6712 34.6453 29.5576 34.9868C30.1087 34.9868 30.6598 34.9868 31.2275 34.9868C31.2275 35.263 31.2275 35.5392 31.2275 35.8238C30.6214 35.8238 30.0152 35.8238 29.3906 35.8238C29.3355 36.2105 29.2804 36.5972 29.2236 36.9956C29.8298 37.0508 30.436 37.1061 31.0605 37.163C31.0054 37.4392 30.9503 37.7154 30.8936 38C29.9567 38 29.0199 38 28.0547 38C28.3148 36.3053 28.6777 34.6494 29.0566 32.978Z" fill="white" fill-opacity="0.8"/>
<path d="M56.1094 32.978C56.9911 32.978 57.8728 32.978 58.7812 32.978C58.7812 33.2542 58.7812 33.5304 58.7812 33.815C58.12 33.815 57.4587 33.815 56.7773 33.815C56.7222 34.2017 56.6671 34.5884 56.6104 34.9868C57.1614 34.9868 57.7125 34.9868 58.2803 34.9868C58.2252 35.263 58.1701 35.5392 58.1133 35.8238C57.5071 35.8238 56.9009 35.8238 56.2764 35.8238C56.2213 36.2657 56.1662 36.7077 56.1094 37.163C56.7156 37.163 57.3217 37.163 57.9463 37.163C57.9463 37.4392 57.9463 37.7154 57.9463 38C57.0095 38 56.0726 38 55.1074 38C55.1792 36.885 55.3663 35.824 55.6084 34.7357C55.6382 34.6015 55.6679 34.4673 55.6986 34.329C55.9195 33.3587 55.9195 33.3587 56.1094 32.978Z" fill="white" fill-opacity="0.8"/>
<path d="M131.59 32.978C133.627 32.9066 133.627 32.9066 134.408 33.5848C134.69 34.1817 134.628 34.711 134.429 35.3216C133.786 36.1118 132.881 36.1844 131.924 36.326C131.902 36.4328 131.879 36.5396 131.857 36.6497C131.827 36.788 131.798 36.9263 131.767 37.0688C131.738 37.2067 131.709 37.3446 131.679 37.4867C131.59 37.8326 131.59 37.8326 131.423 38C131.145 38.0068 130.866 38.0071 130.588 38C130.922 36.326 131.256 34.652 131.59 32.978ZM132.425 33.815C132.164 34.5503 132.164 34.5503 132.091 35.3216C132.867 35.2404 132.867 35.2404 133.594 34.9868C133.622 34.5822 133.622 34.5822 133.594 34.1498C133.287 33.7669 133.287 33.7669 132.821 33.794C132.691 33.8009 132.56 33.8078 132.425 33.815Z" fill="white" fill-opacity="0.8"/>
<path d="M63.958 32.978C65.9954 32.9066 65.9954 32.9066 66.776 33.5848C67.0581 34.1817 66.9961 34.711 66.7969 35.3216C66.1538 36.1118 65.2492 36.1844 64.292 36.326C64.2698 36.4328 64.2476 36.5396 64.2248 36.6497C64.1953 36.788 64.1658 36.9263 64.1354 37.0688C64.1064 37.2067 64.0773 37.3446 64.0474 37.4867C63.958 37.8326 63.958 37.8326 63.791 38C63.5128 38.0068 63.2343 38.0071 62.9561 38C63.29 36.326 63.624 34.652 63.958 32.978ZM64.793 33.815C64.532 34.5503 64.532 34.5503 64.459 35.3216C65.2965 35.2664 65.2965 35.2664 65.9619 34.8194C65.9135 34.2658 65.9135 34.2658 65.6279 33.815C65.3497 33.8082 65.0712 33.8078 64.793 33.815Z" fill="white" fill-opacity="0.8"/>
<path d="M87.1908 32.9362C87.9715 32.9437 88.4892 33.1084 89.1738 33.4802C89.4327 33.9992 89.3892 34.4141 89.3408 34.9868C89.017 35.5487 88.7817 35.774 88.1927 36.0435C87.6666 36.1596 87.2058 36.1842 86.6689 36.1586C86.5587 36.7663 86.4485 37.374 86.335 38C86.0043 38 85.6737 38 85.333 38C85.4718 37.3116 85.6115 36.6233 85.7519 35.9351C85.7996 35.7008 85.8471 35.4665 85.8943 35.2322C85.9621 34.8959 86.0307 34.5598 86.0995 34.2237C86.1406 34.0212 86.1817 33.8187 86.224 33.6101C86.3886 32.9207 86.523 32.9498 87.1908 32.9362ZM87.1699 33.815C87.0597 34.3122 86.9495 34.8094 86.8359 35.3216C87.444 35.377 87.7402 35.392 88.2449 35.0287C88.5502 34.6761 88.5502 34.6761 88.4641 34.2754C88.4228 34.1787 88.3814 34.082 88.3389 33.9824C87.9531 33.9272 87.5674 33.8719 87.1699 33.815Z" fill="white" fill-opacity="0.8"/>
<path d="M157.557 32.9571C157.756 32.9564 157.756 32.9564 157.959 32.9557C158.309 32.978 158.309 32.978 158.643 33.1454C158.587 33.4216 158.532 33.6978 158.476 33.9824C157.98 33.9824 157.484 33.9824 156.973 33.9824C156.918 34.2586 156.862 34.5348 156.806 34.8194C156.93 34.8608 157.054 34.9023 157.181 34.9449C157.707 35.1844 157.973 35.3505 158.309 35.8238C158.423 36.6256 158.423 36.967 158.016 37.6652C157.202 38.1678 156.404 38.0968 155.47 38C155.36 37.9448 155.249 37.8895 155.136 37.8326C155.191 37.5564 155.246 37.2802 155.303 36.9956C155.405 37.0135 155.508 37.0314 155.614 37.0499C155.749 37.0699 155.884 37.09 156.023 37.1107C156.157 37.1321 156.29 37.1534 156.428 37.1754C156.822 37.2011 156.822 37.2011 157.105 36.9152C157.172 36.8312 157.238 36.7473 157.307 36.6608C157.055 35.9536 156.584 35.7141 155.971 35.3216C155.713 34.804 155.755 34.3851 155.804 33.815C156.332 33.1444 156.723 32.9543 157.557 32.9571Z" fill="white" fill-opacity="0.8"/>
<path d="M155.303 33.1454C155.248 33.4216 155.193 33.6978 155.136 33.9824C154.64 33.9824 154.144 33.9824 153.633 33.9824C153.578 34.2033 153.523 34.4243 153.466 34.652C153.56 34.7109 153.655 34.7698 153.752 34.8305C154.751 35.5047 154.751 35.5047 155 36.2528C154.957 37.0527 154.688 37.4446 154.134 38C153.675 38.0386 153.675 38.0386 153.132 38.0314C152.953 38.0303 152.774 38.0292 152.589 38.0281C152.13 38 152.13 38 151.796 37.8326C151.851 37.5564 151.906 37.2802 151.963 36.9956C152.068 37.0077 152.172 37.0198 152.28 37.0322C152.485 37.0555 152.485 37.0555 152.693 37.0793C152.897 37.1026 152.897 37.1026 153.104 37.1264C153.461 37.1686 153.461 37.1686 153.8 37.163C153.912 36.7038 153.912 36.7038 153.8 36.1586C153.499 35.9095 153.499 35.9095 153.132 35.6878C152.497 35.2594 152.497 35.2594 152.346 34.7795C152.316 34.1112 152.381 33.758 152.787 33.2186C153.622 32.8259 154.435 32.8554 155.303 33.1454Z" fill="white" fill-opacity="0.8"/>
<path d="M83.4964 33.1454C83.4413 33.4216 83.3862 33.6978 83.3294 33.9824C82.8334 33.9824 82.3374 33.9824 81.8264 33.9824C81.7713 34.2033 81.7162 34.4243 81.6595 34.652C81.74 34.7046 81.8205 34.7573 81.9034 34.8115C83.025 35.5733 83.025 35.5733 83.1624 36.1586C83.14 36.7875 83.1001 37.1888 82.7227 37.6992C82.1926 38.1026 81.8576 38.0682 81.2002 38.0418C81.0048 38.0358 80.8093 38.0298 80.6079 38.0235C80.459 38.0158 80.31 38.008 80.1565 38C79.9687 37.3722 79.9687 37.3722 80.1565 36.9956C80.2611 37.0077 80.3658 37.0198 80.4735 37.0322C80.6783 37.0555 80.6783 37.0555 80.8871 37.0793C81.0905 37.1026 81.0905 37.1026 81.2981 37.1264C81.6543 37.1686 81.6543 37.1686 81.9934 37.163C82.1056 36.7038 82.1056 36.7038 81.9934 36.1586C81.6926 35.9095 81.6926 35.9095 81.3255 35.6878C80.6906 35.2594 80.6906 35.2594 80.5394 34.7795C80.51 34.1112 80.5742 33.758 80.981 33.2186C81.8157 32.8259 82.6287 32.8554 83.4964 33.1454Z" fill="white" fill-opacity="0.8"/>
<path d="M75.0526 32.9571C75.2485 32.9564 75.2485 32.9564 75.4485 32.9557C75.8145 32.978 75.8145 32.978 76.3154 33.1454C76.2603 33.4216 76.2052 33.6978 76.1484 33.9824C75.5974 33.9824 75.0463 33.9824 74.4785 33.9824C74.4731 34.3661 74.4731 34.3661 74.6455 34.8194C74.9199 35.0598 74.9199 35.0598 75.2404 35.2902C75.5886 35.5694 75.7836 35.7274 75.9208 36.156C75.9548 36.7823 75.8403 37.1186 75.5222 37.6652C74.7024 38.171 73.9141 38.0675 72.9756 38C72.9205 37.7238 72.8654 37.4476 72.8086 37.163C73.3096 36.9956 73.3096 36.9956 73.8105 37.0898C74.3406 37.2244 74.3406 37.2244 74.8125 36.8282C74.748 36.4085 74.6969 36.2057 74.3794 35.9147C74.2218 35.8024 74.2218 35.8024 74.061 35.6878C73.5839 35.2972 73.4828 35.173 73.2783 34.5578C73.3161 33.8619 73.4852 33.6248 73.9775 33.1454C74.3704 32.9485 74.6156 32.9556 75.0526 32.9571Z" fill="white" fill-opacity="0.8"/>
<path d="M148.289 33.1454C148.234 33.4216 148.179 33.6978 148.122 33.9824C147.938 33.9707 147.938 33.9707 147.75 33.9588C146.71 33.9088 146.71 33.9088 145.763 34.2858C145.253 34.882 145.237 35.4299 145.245 36.1802C145.261 36.5163 145.261 36.5163 145.513 36.8177C146.006 37.1407 146.306 37.1818 146.89 37.1735C147.027 37.172 147.163 37.1704 147.304 37.1689C147.409 37.1669 147.513 37.165 147.621 37.163C147.566 37.4392 147.511 37.7154 147.454 38C147.138 38.0137 146.821 38.0233 146.504 38.0314C146.24 38.0401 146.24 38.0401 145.97 38.049C145.38 37.9934 145.085 37.8536 144.615 37.4978C144.109 36.669 144.039 36.0184 144.176 35.0594C144.412 34.1483 144.855 33.6395 145.648 33.1558C146.473 32.9254 147.492 32.7461 148.289 33.1454Z" fill="white" fill-opacity="0.8"/>
<path d="M124.576 32.978C124.907 32.978 125.237 32.978 125.578 32.978C125.854 33.5857 126.129 34.1933 126.413 34.8194C126.53 34.702 126.647 34.5846 126.768 34.4637C126.844 34.3884 126.921 34.3131 127 34.2355C127.169 34.0631 127.333 33.8853 127.491 33.7032C128.131 32.9913 128.131 32.9913 128.814 32.9152C128.958 32.9359 129.103 32.9567 129.252 32.978C129.025 33.568 128.647 33.9338 128.201 34.37C127.057 35.5003 126.573 36.3635 126.413 38C126.082 38 125.752 38 125.411 38C125.468 37.8081 125.468 37.8081 125.525 37.6123C125.887 36.0506 125.573 35.1716 124.844 33.8183C124.576 33.3128 124.576 33.3128 124.576 32.978Z" fill="white" fill-opacity="0.8"/>
<path d="M51.7676 32.978C53.035 32.978 54.3025 32.978 55.6084 32.978C55.5533 33.2542 55.4982 33.5304 55.4414 33.815C54.9454 33.815 54.4495 33.815 53.9385 33.815C53.6629 35.196 53.3874 36.5771 53.1035 38C52.7729 38 52.4422 38 52.1016 38C52.3771 36.6189 52.6526 35.2379 52.9365 33.815C52.4957 33.815 52.0548 33.815 51.6006 33.815C51.6557 33.5388 51.7108 33.2625 51.7676 32.978Z" fill="white" fill-opacity="0.8"/>
<path d="M37.2393 32.978C38.5067 32.978 39.7742 32.978 41.0801 32.978C41.025 33.2542 40.9699 33.5304 40.9131 33.815C40.4171 33.815 39.9212 33.815 39.4102 33.815C39.3964 34.0083 39.3826 34.2017 39.3684 34.4009C39.237 35.6257 38.8879 36.8117 38.5752 38C38.2997 38 38.0241 38 37.7402 38C37.8448 37.0292 38.0198 36.102 38.2516 35.1542C38.2828 35.0245 38.3139 34.8948 38.3459 34.7612C38.4217 34.4456 38.4983 34.1303 38.5752 33.815C38.0792 33.815 37.5833 33.815 37.0723 33.815C37.1274 33.5388 37.1825 33.2625 37.2393 32.978Z" fill="white" fill-opacity="0.8"/>
<path d="M7.18066 32.978C8.44813 32.978 9.71561 32.978 11.0215 32.978C11.0215 33.2542 11.0215 33.5304 11.0215 33.815C10.2775 33.8978 10.2775 33.8978 9.51855 33.9824C9.49414 34.0981 9.46972 34.2139 9.44456 34.3332C9.33419 34.8546 9.22286 35.3758 9.11151 35.897C9.05387 36.1704 9.05387 36.1704 8.99507 36.4492C8.95794 36.6224 8.92081 36.7956 8.88255 36.974C8.84844 37.1344 8.81434 37.2949 8.7792 37.4601C8.68359 37.8326 8.68359 37.8326 8.5166 38C8.23836 38.0068 7.95987 38.0071 7.68164 38C7.89734 36.5882 8.18159 35.2031 8.5166 33.815C8.07574 33.815 7.63488 33.815 7.18066 33.815C7.18066 33.5388 7.18066 33.2625 7.18066 32.978Z" fill="white" fill-opacity="0.8"/>
<path d="M19.298 32.9675C19.4995 32.9727 19.4995 32.9727 19.7051 32.978C19.4894 34.3898 19.2051 35.7749 18.8701 37.163C19.4763 37.163 20.0825 37.163 20.707 37.163C20.707 37.4392 20.707 37.7154 20.707 38C19.7151 38 18.7232 38 17.7012 38C17.8402 37.3116 17.9797 36.6232 18.1201 35.9351C18.1678 35.7008 18.2152 35.4665 18.2624 35.2321C18.3302 34.8959 18.3989 34.5598 18.4676 34.2237C18.5087 34.0212 18.5498 33.8187 18.5922 33.61C18.7423 32.9811 18.7423 32.9811 19.298 32.9675Z" fill="white" fill-opacity="0.8"/>
<path d="M15.3633 32.978C15.6388 32.978 15.9144 32.978 16.1982 32.978C16.107 34.3475 15.8357 35.6594 15.5303 36.9956C16.1365 37.0508 16.7426 37.1061 17.3672 37.163C17.3121 37.4392 17.257 37.7154 17.2002 38C16.2634 38 15.3265 38 14.3613 38C14.5959 36.2949 14.9524 34.6477 15.3633 32.978Z" fill="white" fill-opacity="0.8"/>
<path d="M71.9736 32.978C72.2492 32.978 72.5247 32.978 72.8086 32.978C72.7368 34.0929 72.5497 35.154 72.3076 36.2423C72.2779 36.3765 72.2481 36.5107 72.2174 36.6489C71.9966 37.6192 71.9966 37.6192 71.8066 38C71.5311 38 71.2556 38 70.9717 38C71.1964 36.2953 71.5632 34.6458 71.9736 32.978Z" fill="white" fill-opacity="0.8"/>
<path d="M22.21 32.978C22.4855 32.978 22.761 32.978 23.0449 32.978C22.9412 34.0536 22.7719 35.0924 22.5439 36.1481C22.5142 36.2902 22.4845 36.4323 22.4539 36.5787C22.2324 37.6201 22.2324 37.6201 22.043 38C21.7674 38 21.4919 38 21.208 38C21.3228 36.889 21.549 35.8225 21.8029 34.7357C21.842 34.5661 21.8811 34.3965 21.9213 34.2217C22.0169 33.807 22.1132 33.3924 22.21 32.978Z" fill="white" fill-opacity="0.8"/>
<path d="M1.42987 32.9675C1.63136 32.9727 1.63136 32.9727 1.83691 32.978C1.58521 34.6712 1.21572 36.3325 0.834961 38C0.559424 38 0.283887 38 0 38C0.0747461 36.8574 0.26692 35.7604 0.500977 34.6415C0.530737 34.498 0.560497 34.3544 0.591159 34.2065C0.853188 32.9816 0.853188 32.9816 1.42987 32.9675Z" fill="white" fill-opacity="0.8"/>
</g>
<defs>
<clipPath id="clip0_455_105">
<rect width="171" height="38" fill="white"/>
</clipPath>
</defs>
</svg>
