<svg width="143" height="38" viewBox="0 0 143 38" fill="none" xmlns="http://www.w3.org/2000/svg">
<g clip-path="url(#clip0_455_77)">
<path d="M33.825 2.98301C35.1674 3.71341 36.4015 4.56333 37.5372 5.55344C38.0013 5.95811 38.4658 6.36647 38.892 6.8099C39.9839 7.94583 40.946 9.18449 41.7372 10.5523C42.6202 12.0787 43.2631 13.7002 43.6474 15.4212C43.814 16.167 43.9491 16.9206 43.971 17.6879C43.9929 18.4535 44.0518 19.2218 44.0106 19.9844C43.949 21.1248 43.7612 22.2515 43.4537 23.356C43.1052 24.6079 42.6293 25.8073 42.0121 26.9497C41.4384 28.0118 40.7571 29 39.9966 29.9379C39.3798 30.6986 38.6817 31.3778 37.9788 32.0528C37.3325 32.6733 36.6166 33.2106 35.8869 33.7282C34.8871 34.4374 33.8307 35.0516 32.7261 35.5806C31.4788 36.178 30.1904 36.6672 28.8595 37.0464C27.7708 37.3566 26.6634 37.5758 25.5469 37.7477C25.0681 37.8214 24.5809 37.8405 24.0978 37.8874C23.2678 37.968 22.4351 38.0226 21.6023 37.9908C20.8213 37.961 20.0412 37.8948 19.2624 37.8264C17.8664 37.7039 16.4992 37.4209 15.1516 37.0424C14.1185 36.7521 13.1109 36.3876 12.1262 35.9601C10.7173 35.3484 9.38174 34.6051 8.125 33.7213C7.36853 33.1894 6.64152 32.6197 5.97012 31.9815C5.66751 31.6938 5.35196 31.4184 5.06543 31.1155C3.93417 29.9193 2.93764 28.6212 2.13446 27.1784C1.57127 26.1667 1.11653 25.1088 0.764969 24.0062C0.502068 23.1816 0.324386 22.3386 0.179044 21.4845C-0.0279814 20.268 -0.0197503 19.0453 0.0283361 17.8235C0.0531773 17.1923 0.170987 16.5625 0.277179 15.9373C0.447417 14.9351 0.741176 13.9649 1.1037 13.0161C1.58547 11.7552 2.21712 10.5729 2.97761 9.45929C3.48295 8.71927 4.03613 8.01869 4.63655 7.35186C5.76086 6.10319 7.02449 5.02141 8.41241 4.0798C10.0505 2.96847 11.8087 2.10226 13.6683 1.42912C14.96 0.961547 16.2845 0.624915 17.6317 0.38179C18.3416 0.25368 19.0652 0.201873 19.7829 0.11749C20.6716 0.0129862 21.5649 -0.0210799 22.4575 0.0124055C23.2486 0.0420794 24.0385 0.111004 24.8278 0.175583C26.136 0.282606 27.4148 0.555515 28.6778 0.901415C29.8185 1.21381 30.9382 1.59242 32.0126 2.0915C32.6165 2.37202 33.2095 2.67627 33.825 2.98301ZM24.6003 25.3147C24.8512 25.5978 25.0927 25.89 25.3547 26.1624C26.5102 27.3642 27.8299 28.3183 29.4417 28.8109C31.1358 29.3288 32.7814 29.2218 34.3506 28.3648C35.4987 27.7378 36.3583 26.8097 37.0282 25.6988C37.8312 24.367 38.2817 22.9093 38.5321 21.383C38.5507 21.2697 38.5617 21.1552 38.5787 21.022C37.7489 20.9876 36.9469 20.9544 36.1754 20.9224C36.136 20.9517 36.1247 20.9559 36.1205 20.9638C36.0697 21.0605 36.0196 21.1576 35.9699 21.2549C35.3592 22.4519 34.4215 23.2587 33.1295 23.6406C32.1171 23.9398 31.0881 23.9375 30.0547 23.7914C28.7864 23.6121 27.5747 23.2291 26.4056 22.7151C25.7694 22.4354 25.1514 22.114 24.5206 21.761C24.5124 21.4322 24.5041 21.1033 24.5104 20.7362C24.743 20.4635 24.9714 20.1872 25.2089 19.9189C26.1869 18.8137 27.2137 17.7587 28.385 16.8549C29.2006 16.2256 30.0663 15.6831 31.0541 15.3641C32.2996 14.9618 33.5024 15.026 34.6419 15.7159C35.1837 16.044 35.6463 16.4665 36.0473 16.9531C36.1796 17.1136 36.3105 17.1869 36.5227 17.1808C37.0693 17.1651 37.6166 17.1756 38.1637 17.1756C38.2613 17.1756 38.359 17.1756 38.452 17.1756C38.4599 17.1282 38.4691 17.1076 38.4656 17.0894C38.197 15.7046 37.8024 14.3631 37.1062 13.1254C36.2536 11.6096 35.0645 10.4603 33.4426 9.80176C32.1909 9.29357 30.9002 9.02667 29.5384 9.23238C27.9965 9.46528 26.5899 10.0276 25.3153 10.9234C25.0227 11.129 24.7401 11.3488 24.4448 11.5052C24.4268 9.16798 24.4088 6.83074 24.3904 4.44089C22.7227 4.9851 21.1036 5.51344 19.489 6.04033C19.4843 6.14132 19.4788 6.21051 19.4781 6.27975C19.4621 7.89304 19.4469 9.50635 19.4308 11.1196C19.4277 11.4382 19.4214 11.7567 19.3823 12.0591C18.9991 11.7258 18.6164 11.3921 18.2328 11.0594C17.5115 10.4339 16.7111 9.94271 15.8134 9.61126C14.7793 9.22945 13.7206 9.05429 12.6212 9.21272C11.8288 9.32692 11.0726 9.57278 10.3409 9.89011C8.42589 10.7206 7.08766 12.1061 6.36798 14.0769C5.91841 15.308 5.75223 16.5875 5.72663 17.8909C5.70406 19.0402 5.79347 20.1821 5.94442 21.3198C5.9994 21.7341 6.03382 22.1584 6.15238 22.5558C6.59858 24.0513 7.28423 25.4258 8.31967 26.6073C9.23082 27.647 10.3226 28.4266 11.6451 28.8493C13.8021 29.5387 15.8531 29.2177 17.799 28.1264C18.3251 27.8313 18.8015 27.4471 19.308 27.1602C19.3088 27.2399 19.3109 27.3196 19.3103 27.3992C19.2931 29.5108 19.2754 31.6224 19.2589 33.7341C19.2581 33.8369 19.2669 33.9399 19.2726 34.075C21.0808 33.4591 22.8441 32.8585 24.6071 32.258C24.6071 32.0946 24.608 31.9655 24.6069 31.8364C24.5898 29.7845 24.5722 27.7327 24.5557 25.6809C24.5547 25.5516 24.5619 25.4223 24.6003 25.3147Z" fill="white" fill-opacity="0.8"/>
<path d="M19.3773 16.0309C19.3907 16.6962 19.3865 17.354 19.3858 18.0388C18.2246 19.6813 16.9498 21.189 15.2534 22.2804C14.1469 22.9922 12.9375 23.3212 11.6236 23.2129C10.473 23.118 9.46247 22.6951 8.66791 21.8336C7.39654 20.4551 7.30561 18.4872 8.27345 16.9047C8.80953 16.0282 9.61587 15.474 10.5402 15.0852C11.888 14.5184 13.2868 14.3297 14.7431 14.5277C16.1215 14.7151 17.4536 15.045 18.7024 15.6724C18.9242 15.7839 19.1407 15.9062 19.3773 16.0309Z" fill="white" fill-opacity="0.8"/>
<path d="M54.2288 19.0774C53.5658 17.8706 52.9137 16.6837 52.2617 15.4968C52.2411 15.502 52.2206 15.5073 52.2001 15.5125C52.2001 17.4491 52.2001 19.3857 52.2001 21.3406C50.784 21.3406 49.4008 21.3406 48.001 21.3406C48.001 16.3214 48.001 11.3176 48.001 6.276C49.3739 5.86321 50.7557 5.44776 52.1827 5.01874C52.2114 5.48688 52.194 5.91127 52.1972 6.33466C52.2003 6.76475 52.1979 7.19487 52.1979 7.62498C52.1979 8.05509 52.1979 8.4852 52.1979 8.91531C52.1979 9.34541 52.1979 9.77552 52.1979 10.2056C52.1979 10.6357 52.1979 11.0658 52.1979 11.496C52.1979 11.9261 52.1979 12.3562 52.1979 12.7863C52.1979 13.2118 52.1979 13.6374 52.1979 14.0629C52.2157 14.0691 52.2335 14.0754 52.2514 14.0816C52.3155 13.9969 52.3821 13.914 52.4435 13.8273C53.4823 12.359 54.5244 10.893 55.5538 9.41805C55.6763 9.24254 55.803 9.18623 56.0063 9.18736C57.3451 9.19475 58.684 9.19118 60.0228 9.19118C60.1042 9.19118 60.1856 9.19118 60.2732 9.19118C60.3108 9.33634 60.1988 9.40484 60.1377 9.48525C59.4638 10.3717 58.7846 11.2541 58.1068 12.1376C57.4974 12.9319 56.8877 13.726 56.279 14.5208C56.2427 14.5682 56.2136 14.6212 56.1739 14.6829C57.6205 16.8915 59.0642 19.0957 60.5101 21.3032C60.2867 21.3728 56.0912 21.3993 55.4822 21.3375C55.0713 20.5965 54.6555 19.8469 54.2288 19.0774Z" fill="white" fill-opacity="0.8"/>
<path d="M107.887 18.8412C108.457 19.6727 109.015 20.4861 109.6 21.3401C109.455 21.3488 109.368 21.3587 109.281 21.3587C107.799 21.3597 106.317 21.356 104.836 21.3635C104.639 21.3645 104.53 21.3145 104.43 21.1297C103.577 19.5584 102.709 17.995 101.846 16.4293C101.673 16.1161 101.502 15.8025 101.327 15.4905C101.273 15.3949 101.228 15.2746 101.046 15.3541C101.046 17.3325 101.046 19.3234 101.046 21.3368C99.6428 21.3368 98.2691 21.3368 96.894 21.3368C96.8321 21.1097 96.8029 7.2878 96.8673 6.48059C98.2317 6.00307 99.6118 5.52005 101.03 5.02356C101.03 8.11411 101.03 11.152 101.03 14.1759C101.192 14.2823 101.254 14.1833 101.318 14.0868C101.551 13.7383 101.785 13.3908 102.017 13.0421C102.828 11.8257 103.639 10.6103 104.444 9.39024C104.531 9.25811 104.616 9.18735 104.783 9.18808C106.204 9.1942 107.624 9.19161 109.045 9.19216C109.082 9.19217 109.119 9.19816 109.213 9.20636C107.801 11.0473 106.419 12.8494 105.025 14.6663C105.981 16.0614 106.928 17.4422 107.887 18.8412Z" fill="white" fill-opacity="0.8"/>
<path d="M68.4777 9.10015C69.6254 9.41463 70.6232 9.95447 71.4573 10.7706C72.2947 11.59 72.8548 12.58 73.1014 13.728C73.3471 14.871 73.3464 16.0166 73.0192 17.1499C72.5699 18.7059 71.6058 19.8463 70.2021 20.6205C69.1772 21.1858 68.0714 21.4612 66.9049 21.5509C65.6365 21.6483 64.402 21.522 63.2039 21.1021C61.6293 20.5501 60.393 19.5873 59.6491 18.0579C59.2639 17.266 59.0785 16.4266 59.0643 15.5442C59.0528 14.8251 59.0917 14.1139 59.298 13.4214C59.8663 11.5135 61.1058 10.2093 62.9111 9.42687C63.8865 9.00414 64.9119 8.81488 65.9744 8.8016C66.815 8.79109 67.6432 8.86164 68.4777 9.10015ZM66.0453 11.7539C65.0459 11.809 64.3242 12.2928 63.9093 13.1989C63.3468 14.427 63.3058 15.6913 63.7823 16.9516C64.2784 18.2636 65.4949 18.8573 66.809 18.5447C67.6473 18.3453 68.1887 17.7824 68.5243 17.0121C68.7932 16.3948 68.868 15.7439 68.8446 15.0709C68.8238 14.4704 68.7287 13.8928 68.4872 13.3435C68.0313 12.3062 67.254 11.7471 66.0453 11.7539Z" fill="white" fill-opacity="0.8"/>
<path d="M87.6467 21.5866C86.7637 21.597 85.9322 21.4812 85.1314 21.1682C83.7534 20.6295 82.8638 19.4552 82.8584 17.9216C82.856 17.2124 82.958 16.5373 83.3059 15.9129C83.7494 15.117 84.4434 14.6161 85.2634 14.2726C86.176 13.8903 87.1349 13.709 88.1185 13.6615C88.7186 13.6326 89.3202 13.6129 89.9206 13.6221C90.3351 13.6284 90.7487 13.6911 91.1987 13.7319C91.1895 13.6483 91.1793 13.5347 91.1639 13.4218C91.0625 12.6769 90.6386 12.1918 89.9401 11.9582C89.6533 11.8623 89.3469 11.7982 89.0455 11.778C87.7186 11.6891 86.4183 11.8246 85.1693 12.3136C84.9636 12.3941 84.7621 12.4854 84.5329 12.5826C84.5329 11.5725 84.5329 10.6031 84.5329 9.6303C85.216 9.32538 85.9256 9.14003 86.649 9.00898C87.8292 8.79518 89.0223 8.74823 90.2153 8.83015C91.134 8.89325 92.025 9.09496 92.8552 9.52936C94.0684 10.1641 94.7876 11.1604 95.0671 12.488C95.1555 12.9078 95.1957 13.3335 95.1937 13.7652C95.1868 15.2809 95.1827 16.7967 95.1946 18.3124C95.2003 19.0373 95.2398 19.7622 95.2737 20.4867C95.2827 20.6791 95.3279 20.8698 95.3554 21.0615C95.3679 21.1491 95.3777 21.237 95.3911 21.3435C94.1331 21.3435 92.9007 21.3435 91.6452 21.3435C91.5629 20.7658 91.4813 20.1935 91.3894 19.5486C90.4756 20.8962 89.2503 21.5727 87.6467 21.5866ZM89.0004 18.8191C90.492 18.5852 91.2785 16.9077 91.1627 15.931C90.2518 15.9555 89.3331 15.8587 88.4268 16.0453C88.1304 16.1063 87.8293 16.194 87.5601 16.3291C86.8528 16.6838 86.6374 17.4265 87.0603 18.0492C87.1932 18.2448 87.3912 18.4142 87.5936 18.5406C88.0034 18.7964 88.4664 18.8666 89.0004 18.8191Z" fill="white" fill-opacity="0.8"/>
<path d="M72.8242 10.6571C72.8242 10.1659 72.8242 9.70551 72.8242 9.20649C73.1058 9.17766 73.3783 9.19499 73.6492 9.19211C73.9252 9.18916 74.2011 9.19146 74.4771 9.19146C74.7511 9.19146 75.0252 9.19146 75.3299 9.19146C75.3299 8.28066 75.3299 7.39443 75.3299 6.49312C76.6609 6.00152 77.9694 5.5182 79.3169 5.02051C79.3169 6.41696 79.3169 7.78131 79.3169 9.18198C80.3021 9.18198 81.2561 9.18198 82.2303 9.18198C82.2303 10.1947 82.2303 11.1709 82.2303 12.1834C81.2657 12.1834 80.3112 12.1834 79.3255 12.1834C79.3255 12.319 79.3255 12.4187 79.3255 12.5184C79.3255 13.9214 79.3176 15.3245 79.3315 16.7274C79.3347 17.0506 79.3814 17.3812 79.4621 17.6944C79.6849 18.5594 80.3113 18.902 81.1729 18.817C81.4044 18.7942 81.6302 18.717 81.8603 18.6734C81.977 18.6513 82.0974 18.6486 82.2526 18.6336C82.3228 19.5506 82.3908 20.439 82.4604 21.3484C81.809 21.4166 81.193 21.4766 80.5782 21.5464C79.6664 21.65 78.7665 21.5709 77.8799 21.3556C76.9862 21.1386 76.2365 20.6961 75.748 19.8827C75.4482 19.3835 75.2881 18.8348 75.2191 18.2631C75.169 17.8484 75.1425 17.4286 75.14 17.0109C75.1307 15.526 75.1363 14.041 75.1362 12.5561C75.1362 12.4455 75.1362 12.335 75.1362 12.1886C74.3596 12.1886 73.6096 12.1886 72.8242 12.1886C72.8242 11.6645 72.8242 11.1762 72.8242 10.6571Z" fill="white" fill-opacity="0.8"/>
<path d="M77.0409 27.0367C77.0409 28.9348 77.0409 30.8065 77.0409 32.7011C76.7715 32.7011 76.5325 32.7011 76.2942 32.7011C76.2308 32.4737 76.2191 25.8236 76.2876 25.4661C76.583 25.4661 76.8872 25.4534 77.1889 25.4754C77.2613 25.4806 77.3505 25.5895 77.389 25.6711C77.5986 26.1143 77.7967 26.5631 77.9951 27.0116C78.2802 27.656 78.5636 28.3012 78.8449 28.9474C79.1751 29.7059 79.502 30.4658 79.8311 31.2247C79.8466 31.2604 79.8704 31.2923 79.9085 31.3566C79.9788 31.1906 80.0356 31.0502 80.0973 30.912C80.4514 30.119 80.8046 29.3257 81.162 28.5342C81.5783 27.6123 82.0051 26.695 82.4125 25.7691C82.5126 25.5417 82.6342 25.4281 82.8931 25.4583C83.0933 25.4817 83.2985 25.463 83.4938 25.463C83.5646 25.7064 83.5792 32.3418 83.5132 32.7037C83.2773 32.7037 83.0371 32.7037 82.7977 32.7037C82.7115 32.4143 82.7098 27.9668 82.799 26.7012C81.8835 28.7393 80.9924 30.7231 80.1 32.7097C79.9661 32.7097 79.8561 32.7097 79.7087 32.7097C78.8302 30.7629 77.9454 28.8022 77.0504 26.8186C77.047 26.8873 77.044 26.9487 77.0409 27.0367Z" fill="white" fill-opacity="0.8"/>
<path d="M126.403 30.6339C126.345 30.9263 126.316 31.2061 126.216 31.4572C125.946 32.1304 125.393 32.4752 124.721 32.6486C124.536 32.6963 124.338 32.7105 124.146 32.7135C123.502 32.7235 122.858 32.7219 122.215 32.7232C122.156 32.7233 122.097 32.7117 122.019 32.7035C122.019 30.2988 122.019 27.9077 122.019 25.4921C122.095 25.4826 122.172 25.4647 122.249 25.4644C122.862 25.4622 123.476 25.4606 124.089 25.4642C124.558 25.4669 125.005 25.5678 125.387 25.8492C125.878 26.2109 126.066 26.7013 126.007 27.3171C125.946 27.9538 125.642 28.405 125.107 28.7224C125.056 28.7527 125.008 28.7893 124.922 28.8481C125.03 28.8838 125.101 28.9095 125.173 28.9313C125.893 29.1486 126.311 29.6747 126.364 30.4288C126.368 30.4891 126.387 30.5484 126.403 30.6339ZM125.253 31.453C125.541 31.1079 125.555 30.6949 125.487 30.2891C125.399 29.7666 124.999 29.5294 124.529 29.4187C123.979 29.2893 123.416 29.3236 122.856 29.3532C122.842 29.3539 122.829 29.3814 122.796 29.4187C122.803 30.2464 122.782 31.0994 122.808 31.978C123.302 31.9652 123.755 31.9916 124.213 31.9334C124.603 31.8839 124.944 31.7666 125.253 31.453ZM124.632 28.326C124.988 28.1133 125.129 27.7694 125.175 27.3835C125.232 26.906 124.967 26.4925 124.509 26.3388C124.328 26.2782 124.134 26.2506 123.944 26.2297C123.571 26.1888 123.198 26.211 122.817 26.2142C122.817 27.0242 122.817 27.7939 122.817 28.5969C123.06 28.5969 123.284 28.6165 123.503 28.5925C123.874 28.552 124.26 28.5652 124.632 28.326Z" fill="white" fill-opacity="0.8"/>
<path d="M104.401 29.3535C104.536 28.8006 104.772 28.3377 105.18 27.9641C105.55 27.6244 105.975 27.4416 106.476 27.4289C106.897 27.4183 107.32 27.4087 107.682 27.6703C107.871 27.8064 108.038 27.9718 108.254 28.1579C108.256 27.8007 108.259 27.4713 108.259 27.1419C108.26 26.794 108.26 26.4461 108.26 26.0982C108.26 25.7621 108.26 25.4261 108.26 25.0667C108.526 25.0667 108.765 25.0667 109.005 25.0667C109.07 25.2821 109.085 32.3451 109.017 32.7027C108.954 32.7095 108.886 32.7221 108.817 32.7233C108.646 32.7264 108.474 32.7243 108.28 32.7243C108.28 32.4421 108.28 32.1901 108.28 31.8726C108.18 31.9778 108.116 32.0333 108.067 32.0996C107.69 32.6038 107.17 32.8137 106.56 32.8368C106.21 32.8501 105.872 32.8118 105.549 32.655C105.087 32.4296 104.765 32.0707 104.562 31.6085C104.409 31.2615 104.312 30.8955 104.334 30.5082C104.356 30.132 104.377 29.7556 104.401 29.3535ZM105.133 30.0546C105.119 30.4143 105.141 30.7716 105.268 31.1108C105.567 31.9081 106.192 32.2149 106.819 32.1525C107.488 32.0859 108.074 31.5203 108.193 30.8504C108.284 30.3362 108.314 29.8147 108.203 29.2999C108.073 28.7023 107.724 28.2856 107.114 28.1493C106.486 28.0088 105.948 28.1699 105.547 28.7052C105.259 29.0895 105.17 29.5336 105.133 30.0546Z" fill="white" fill-opacity="0.8"/>
<path d="M49.0842 28.453C49.0842 28.5617 49.0842 28.6432 49.0842 28.7482C49.2488 28.7058 49.3194 28.5738 49.4064 28.4747C49.9043 27.9078 50.3942 27.3338 50.8884 26.7635C51.2158 26.3857 51.5535 26.0166 51.8701 25.63C51.9651 25.5141 52.0534 25.4564 52.2007 25.461C52.4525 25.4689 52.7047 25.4632 53.0083 25.4632C52.7872 25.845 52.4691 26.0771 52.2334 26.3767C51.9942 26.6808 51.7159 26.9541 51.4538 27.24C51.1987 27.5183 50.9398 27.7933 50.6873 28.074C50.4301 28.36 50.1786 28.6512 49.917 28.9489C51.0338 30.2044 52.1285 31.4351 53.2719 32.7205C52.8624 32.7205 52.5207 32.7297 52.1803 32.7133C52.1061 32.7097 52.0241 32.6253 51.9667 32.5597C51.5639 32.0989 51.1654 31.6343 50.7678 31.169C50.3239 30.6497 49.8822 30.1285 49.4397 29.6079C49.3412 29.492 49.2434 29.3755 49.149 29.2638C49.1274 29.2692 49.1169 29.2698 49.1087 29.2745C49.1014 29.2787 49.0915 29.2874 49.0915 29.2941C49.0847 30.4094 49.0788 31.5246 49.0724 32.6399C49.0723 32.6495 49.0666 32.659 49.0558 32.6927C48.8189 32.7528 48.5705 32.7255 48.2998 32.7054C48.2998 30.3026 48.2998 27.9121 48.2998 25.4827C48.5401 25.447 48.788 25.4576 49.078 25.4834C49.091 25.9772 49.0823 26.4647 49.0839 26.9519C49.0854 27.4432 49.0842 27.9346 49.0842 28.453Z" fill="white" fill-opacity="0.8"/>
<path d="M94.0306 30.0173C94.0397 29.6491 94.0026 29.3191 93.9355 28.9854C93.8052 28.3376 93.1861 27.9538 92.4509 28.1554C91.7849 28.338 91.3922 29.0316 91.393 29.5798C91.3944 30.501 91.3936 31.4223 91.3937 32.3435C91.3937 32.4542 91.3937 32.5648 91.3937 32.6884C91.1087 32.7474 90.8497 32.7285 90.5674 32.7066C90.5674 30.1618 90.5674 27.6288 90.5674 25.0742C90.8235 25.0161 91.0834 25.0448 91.3843 25.0559C91.4034 25.5936 91.3909 26.1218 91.3932 26.6494C91.3954 27.1791 91.3937 27.7088 91.3937 28.3064C91.4723 28.2167 91.5094 28.177 91.5436 28.135C91.9278 27.6635 92.4094 27.3983 93.0309 27.4294C93.2139 27.4386 93.4017 27.4258 93.5791 27.4626C94.3191 27.6163 94.6616 28.1645 94.765 28.8171C94.811 29.1076 94.8228 29.4057 94.8253 29.7005C94.8328 30.5808 94.828 31.4611 94.828 32.3414C94.828 32.4522 94.828 32.563 94.828 32.6991C94.5628 32.6991 94.324 32.6991 94.0823 32.6991C94.0779 32.6949 94.07 32.6883 94.0633 32.6806C94.0569 32.6732 94.0469 32.6646 94.0468 32.6564C94.0409 31.7868 94.0358 30.9173 94.0306 30.0173Z" fill="white" fill-opacity="0.8"/>
<path d="M72.561 27.5526C72.5997 27.5808 72.6351 27.6236 72.6275 27.6335C72.5719 27.7063 72.51 27.7747 72.446 27.8405C71.8119 28.4924 71.1767 29.1432 70.5429 29.7952C70.4732 29.8669 70.4096 29.9445 70.328 30.0364C70.3994 30.1204 70.4528 30.1923 70.5152 30.2554C71.2129 30.9605 71.9129 31.6636 72.6099 32.3695C72.6995 32.4602 72.7759 32.5639 72.9087 32.7209C72.5117 32.7209 72.1905 32.7264 71.8698 32.7161C71.8091 32.7141 71.7386 32.6604 71.6925 32.6116C71.1168 32.0038 70.5467 31.3907 69.9708 30.7831C69.8167 30.6206 69.6479 30.4723 69.4511 30.2841C69.4493 30.6995 69.4469 31.0905 69.4461 31.4815C69.4452 31.8792 69.4459 32.2769 69.4459 32.6993C69.181 32.6993 68.9416 32.6993 68.7006 32.6993C68.6349 32.4866 68.6211 25.4073 68.6906 25.0615C68.9259 25.0615 69.165 25.0615 69.4375 25.0615C69.4375 26.648 69.4375 28.2189 69.4375 29.8709C69.5604 29.7708 69.6318 29.7252 69.6876 29.6652C70.1954 29.1199 70.7004 28.5721 71.2064 28.0251C71.2272 28.0026 71.2564 27.9851 71.2702 27.9592C71.4807 27.5618 71.831 27.5016 72.2315 27.55C72.3322 27.5622 72.4356 27.5519 72.561 27.5526Z" fill="white" fill-opacity="0.8"/>
<path d="M138.751 26.6968C138.751 26.137 138.751 25.6079 138.751 25.0613C139.028 25.0613 139.267 25.0613 139.539 25.0613C139.539 26.6481 139.539 28.2187 139.539 29.8052C139.703 29.8053 139.761 29.6974 139.832 29.623C140.007 29.4384 140.173 29.2441 140.344 29.0559C140.757 28.604 141.172 28.1539 141.585 27.7016C141.671 27.6068 141.763 27.5453 141.902 27.5495C142.177 27.558 142.452 27.552 142.768 27.552C142.717 27.6325 142.685 27.6874 142.648 27.738C142.624 27.7706 142.591 27.7966 142.563 27.8259C141.921 28.4844 141.279 29.1424 140.639 29.802C140.569 29.8739 140.51 29.9555 140.431 30.05C140.519 30.1454 140.591 30.229 140.669 30.3073C141.359 31.0046 142.052 31.7001 142.741 32.3989C142.822 32.4815 142.887 32.5805 143 32.7226C142.618 32.7226 142.304 32.7338 141.993 32.7153C141.906 32.7101 141.811 32.6301 141.744 32.5609C141.347 32.1495 140.957 31.7317 140.565 31.3153C140.245 30.9751 139.927 30.6339 139.554 30.2367C139.554 31.0985 139.554 31.888 139.554 32.7006C139.281 32.7006 139.041 32.7006 138.802 32.7006C138.795 32.6929 138.788 32.6855 138.782 32.6774C138.776 32.6695 138.766 32.6608 138.766 32.6524C138.76 30.6775 138.756 28.7025 138.751 26.6968Z" fill="white" fill-opacity="0.8"/>
<path d="M116.855 29.4626C116.941 29.4527 117 29.4455 117.054 29.439C117.231 28.7051 116.787 28.1133 116.066 28.109C115.539 28.1058 115.064 28.2696 114.635 28.5736C114.572 28.6184 114.504 28.6564 114.395 28.7243C114.395 28.447 114.383 28.2145 114.403 27.985C114.409 27.9146 114.494 27.8192 114.565 27.7919C114.886 27.6674 115.209 27.517 115.544 27.463C115.974 27.394 116.421 27.3721 116.85 27.5033C117.49 27.6985 117.813 28.1646 117.891 28.8046C117.935 29.168 117.944 29.5372 117.948 29.904C117.955 30.713 117.95 31.5222 117.95 32.3312C117.95 32.4429 117.95 32.5546 117.95 32.6589C117.718 32.7398 117.495 32.7462 117.156 32.6802C117.156 32.4518 117.156 32.2143 117.156 31.9497C116.948 32.1608 116.787 32.3559 116.595 32.5136C116.005 32.9993 114.763 32.9483 114.252 32.3671C114.034 32.1184 113.904 31.8418 113.902 31.5085C113.902 31.4061 113.907 31.3034 113.901 31.2013C113.865 30.5568 114.303 30.0337 114.854 29.8424C115.207 29.7201 115.583 29.6626 115.952 29.5923C116.242 29.5371 116.536 29.5067 116.855 29.4626ZM116.859 31.5207C117.132 31.0989 117.158 30.6334 117.135 30.1196C116.857 30.1498 116.615 30.1674 116.376 30.2042C116.036 30.2566 115.696 30.3146 115.359 30.3858C114.982 30.4655 114.803 30.7395 114.724 31.0921C114.63 31.5135 114.917 31.9839 115.329 32.0954C115.916 32.2541 116.468 32.0558 116.859 31.5207Z" fill="white" fill-opacity="0.8"/>
<path d="M67.1153 31.9198C67.1153 32.1938 67.1153 32.4372 67.1153 32.702C66.8443 32.702 66.6043 32.702 66.3189 32.702C66.3189 32.4809 66.3189 32.2561 66.3189 32.0312C66.2987 32.0273 66.2785 32.0235 66.2583 32.0196C66.2146 32.07 66.1686 32.1187 66.1274 32.1712C65.7836 32.6093 65.3298 32.8207 64.7781 32.838C64.394 32.85 64.0298 32.7938 63.6942 32.587C63.328 32.3613 63.1187 32.0265 63.0741 31.6147C62.9632 30.5926 63.3779 29.957 64.4193 29.7171C64.9623 29.592 65.5227 29.542 66.0757 29.4617C66.2804 29.4319 66.3296 29.3846 66.3033 29.1904C66.2855 29.0595 66.2625 28.9272 66.2218 28.802C66.0778 28.3585 65.7603 28.1267 65.2846 28.1116C64.8017 28.0963 64.3595 28.2357 63.9482 28.4806C63.8353 28.5478 63.7311 28.6297 63.5998 28.721C63.5189 28.4581 63.5594 28.2062 63.5711 27.9601C63.5739 27.9013 63.6639 27.8278 63.7304 27.7941C64.1426 27.5857 64.5715 27.4234 65.0421 27.4318C65.3363 27.437 65.6361 27.433 65.9228 27.488C66.5685 27.6118 66.9207 28.048 67.0454 28.6735C67.0929 28.9117 67.1099 29.1592 67.1122 29.4027C67.1201 30.2315 67.1153 31.0603 67.1153 31.9198ZM64.2677 30.503C64.2223 30.5439 64.174 30.5819 64.132 30.626C63.7343 31.0423 63.8598 31.7615 64.3685 32.0273C64.8393 32.2734 65.4297 32.121 65.7868 31.8064C66.2893 31.3635 66.3521 30.7842 66.2868 30.1251C65.6026 30.2013 64.9351 30.2188 64.2677 30.503Z" fill="white" fill-opacity="0.8"/>
<path d="M86.4244 29.6966C86.9519 29.6149 87.4539 29.5358 87.9568 29.4634C88.1819 29.431 88.23 29.3959 88.1999 29.1739C88.1466 28.7806 88.0474 28.3975 87.6455 28.2119C87.3604 28.0802 87.0507 28.0801 86.7453 28.1408C86.33 28.2234 85.9419 28.3712 85.6111 28.6467C85.5817 28.6712 85.5452 28.687 85.4741 28.7296C85.4381 28.4616 85.451 28.2206 85.4631 27.9822C85.4658 27.928 85.5326 27.8585 85.5875 27.8284C86.0126 27.5956 86.4591 27.4223 86.9527 27.432C87.2572 27.438 87.5674 27.4371 87.8641 27.4953C88.4438 27.609 88.7761 28.0085 88.9312 28.5589C88.9832 28.7432 89.0061 28.9415 89.0073 29.1336C89.0143 30.2496 89.0112 31.3657 89.0101 32.4817C89.01 32.5507 88.9983 32.6196 88.9905 32.7055C88.7337 32.7055 88.4946 32.7055 88.2242 32.7055C88.2242 32.472 88.2242 32.2521 88.2242 31.9541C88.1108 32.0848 88.0442 32.1534 87.9867 32.2291C87.4151 32.982 86.0991 33.0475 85.3929 32.4301C85.1728 32.2377 85.045 31.9792 84.9927 31.6875C84.9283 31.3282 84.9466 30.9734 85.0844 30.635C85.2722 30.174 85.6488 29.9245 86.1022 29.7741C86.1986 29.7421 86.3001 29.7255 86.4244 29.6966ZM85.8121 31.3762C85.8514 31.7284 86.0504 31.9577 86.3735 32.0752C86.7606 32.2159 87.1378 32.1649 87.4845 31.952C88.0705 31.5921 88.3348 30.8897 88.1632 30.1269C87.9494 30.1499 87.7296 30.1662 87.5123 30.1986C87.1811 30.2479 86.8485 30.2947 86.522 30.3673C86.0347 30.4757 85.7691 30.8175 85.8121 31.3762Z" fill="white" fill-opacity="0.8"/>
<path d="M127.542 32.131C127.297 31.6242 127.274 31.1285 127.49 30.6318C127.656 30.2479 127.941 29.9655 128.338 29.8405C128.695 29.728 129.067 29.6585 129.436 29.5925C129.805 29.5266 130.179 29.4888 130.545 29.4393C130.71 28.6149 130.141 28.0882 129.55 28.1039C129.041 28.1174 128.592 28.2699 128.17 28.5348C128.077 28.5929 127.986 28.654 127.853 28.7411C127.821 28.4598 127.83 28.2188 127.844 27.9801C127.847 27.9266 127.916 27.8598 127.971 27.829C128.386 27.5979 128.823 27.4341 129.305 27.4309C129.57 27.4291 129.842 27.4054 130.099 27.4534C130.912 27.6051 131.363 28.1268 131.384 29.0364C131.411 30.1819 131.391 31.3286 131.39 32.4747C131.39 32.5443 131.379 32.6138 131.372 32.7029C131.119 32.7029 130.88 32.7029 130.607 32.7029C130.607 32.4785 130.607 32.26 130.607 32.0416C130.591 32.0303 130.575 32.0191 130.559 32.0078C130.122 32.6255 129.534 32.8963 128.795 32.838C128.275 32.7969 127.861 32.5719 127.542 32.131ZM130.594 30.3641C130.585 30.2958 130.575 30.2275 130.564 30.142C130.459 30.142 130.368 30.1316 130.28 30.1438C129.918 30.1939 129.555 30.2439 129.196 30.3083C129.017 30.3403 128.835 30.3841 128.669 30.4562C128.318 30.6083 128.162 30.9293 128.196 31.3669C128.222 31.6964 128.451 31.98 128.779 32.0834C129.577 32.3351 130.34 31.8222 130.522 31.1183C130.58 30.8949 130.572 30.6543 130.594 30.3641Z" fill="white" fill-opacity="0.8"/>
<path d="M57.8322 27.9405C58.3407 28.3931 58.5729 28.9662 58.6342 29.6007C58.681 30.0859 58.6943 30.5786 58.5394 31.0582C58.2354 31.9993 57.6455 32.6183 56.6433 32.7902C55.9131 32.9154 55.227 32.8279 54.6039 32.3945C54.1936 32.1091 53.9091 31.7186 53.7651 31.2553C53.5194 30.4652 53.5322 29.6652 53.8407 28.8866C54.1039 28.2225 54.5735 27.7628 55.2591 27.5548C55.9189 27.3547 56.587 27.3501 57.238 27.5937C57.4431 27.6705 57.6235 27.8136 57.8322 27.9405ZM56.1072 28.1049C55.4153 28.1195 54.9215 28.4464 54.6404 29.074C54.4183 29.5697 54.3766 30.0879 54.4649 30.6297C54.5949 31.4274 55.0819 32.0284 55.9514 32.1476C56.5712 32.2325 57.2774 31.9955 57.5892 31.322C57.9647 30.5109 57.9633 29.6841 57.5589 28.8716C57.3733 28.4989 57.0668 28.277 56.6761 28.1725C56.511 28.1283 56.3347 28.1261 56.1072 28.1049Z" fill="white" fill-opacity="0.8"/>
<path d="M99.6724 30.9372C99.6724 31.539 99.6724 32.1101 99.6724 32.7025C99.381 32.7025 99.1225 32.7025 98.8438 32.7025C98.8438 30.9941 98.8438 29.2993 98.8438 27.6061C99.0641 27.5393 99.2965 27.5318 99.6569 27.5841C99.6569 27.798 99.6569 28.0179 99.6569 28.3136C99.7522 28.2093 99.7971 28.1637 99.838 28.1148C100.221 27.6575 100.696 27.4056 101.306 27.427C101.581 27.4366 101.852 27.4309 102.116 27.5446C102.684 27.7895 102.929 28.2643 103.044 28.8287C103.09 29.0571 103.111 29.2942 103.113 29.5276C103.12 30.521 103.117 31.5144 103.116 32.5078C103.116 32.5669 103.105 32.626 103.097 32.7038C102.843 32.7038 102.602 32.7038 102.327 32.7038C102.321 32.5944 102.311 32.4863 102.311 32.3782C102.309 31.5077 102.318 30.6371 102.305 29.7667C102.301 29.5045 102.255 29.2404 102.205 28.9817C102.067 28.272 101.447 27.9778 100.756 28.1489C100.074 28.3176 99.6878 28.9948 99.6753 29.5547C99.6653 30.0051 99.6727 30.4558 99.6724 30.9372Z" fill="white" fill-opacity="0.8"/>
<path d="M136.448 32.6854C136.422 32.3068 136.413 31.9489 136.412 31.591C136.409 30.9254 136.419 30.2596 136.406 29.5942C136.402 29.3728 136.362 29.147 136.304 28.9327C136.115 28.2351 135.533 27.9773 134.842 28.1557C134.139 28.337 133.782 29.0223 133.776 29.6394C133.767 30.5405 133.773 31.4417 133.773 32.3429C133.773 32.4536 133.773 32.5643 133.773 32.6995C133.507 32.6995 133.268 32.6995 133.028 32.6995C132.964 32.4855 132.948 27.9477 133.014 27.5731C133.249 27.5731 133.488 27.5731 133.758 27.5731C133.758 27.8014 133.758 28.0219 133.758 28.3166C133.908 28.1567 134.006 28.0496 134.106 27.9443C134.442 27.5918 134.855 27.4255 135.339 27.4294C135.624 27.4317 135.907 27.4181 136.184 27.5296C136.758 27.761 137.014 28.231 137.145 28.7905C137.195 29.007 137.213 29.2353 137.214 29.4585C137.222 30.462 137.218 31.4656 137.217 32.4692C137.217 32.5391 137.207 32.6089 137.199 32.7061C136.949 32.7061 136.708 32.7061 136.448 32.6854Z" fill="white" fill-opacity="0.8"/>
<path d="M59.9836 27.5518C60.072 27.5466 60.1317 27.5413 60.2351 27.5323C60.2358 27.2733 60.2341 27.0216 60.2377 26.7699C60.2465 26.1456 60.1557 26.3098 60.7153 26.0995C60.7993 26.068 60.8887 26.0509 61.0148 26.0164C61.0702 26.5284 61.0076 27.0248 61.0573 27.5461C61.4755 27.5461 61.8795 27.5461 62.3076 27.5461C62.3076 27.7773 62.3076 27.9764 62.3076 28.2189C61.9003 28.2189 61.4877 28.2189 61.0627 28.2189C61.0503 28.318 61.0365 28.3764 61.0366 28.4348C61.038 29.3869 61.0396 30.3391 61.046 31.2912C61.0468 31.4017 61.0643 31.5156 61.0955 31.6216C61.2237 32.0576 61.5032 32.216 61.9559 32.1161C62.0736 32.0902 62.1894 32.0557 62.3183 32.0219C62.3183 32.2433 62.3183 32.455 62.3183 32.677C61.8379 32.8959 61.3572 32.9042 60.8925 32.6933C60.4448 32.4902 60.2924 32.0726 60.2508 31.6154C60.2267 31.3511 60.2381 31.0834 60.2376 30.8173C60.2363 30.08 60.2372 29.3427 60.2372 28.6055C60.2372 28.4948 60.2372 28.3842 60.2372 28.235C59.9288 28.235 59.6488 28.235 59.3486 28.235C59.3486 27.9975 59.3486 27.799 59.3486 27.5555C59.5546 27.5542 59.7548 27.5531 59.9836 27.5518Z" fill="white" fill-opacity="0.8"/>
<path d="M112.256 27.6139C112.696 27.4022 113.005 27.3792 113.343 27.5339C113.343 27.7787 113.343 28.0312 113.343 28.3089C113.235 28.2806 113.134 28.2519 113.031 28.2273C112.573 28.1177 112.159 28.2851 111.893 28.6747C111.642 29.0411 111.529 29.4509 111.522 29.8865C111.509 30.7049 111.513 31.5236 111.51 32.3421C111.51 32.4528 111.51 32.5635 111.51 32.6992C111.245 32.6992 111.006 32.6992 110.765 32.6992C110.701 32.4938 110.679 28.0161 110.746 27.5656C110.858 27.5612 110.977 27.5547 111.095 27.5525C111.217 27.5501 111.338 27.5519 111.491 27.5519C111.491 27.8552 111.491 28.1362 111.491 28.4172C111.74 28.1344 111.882 27.7841 112.256 27.6139Z" fill="white" fill-opacity="0.8"/>
<path d="M96.3711 29.4008C96.3711 28.7792 96.3711 28.1884 96.3711 27.575C96.6403 27.575 96.8791 27.575 97.1174 27.575C97.1795 27.7926 97.197 32.3027 97.1343 32.7014C96.8993 32.7014 96.6602 32.7014 96.4224 32.7014C96.414 32.6918 96.4068 32.6845 96.4007 32.6763C96.3948 32.6684 96.3855 32.6595 96.3855 32.6511C96.3802 31.5779 96.3757 30.5047 96.3711 29.4008Z" fill="white" fill-opacity="0.8"/>
<path d="M97.1114 25.2582C97.3169 25.4538 97.3905 25.6604 97.2747 25.9084C97.1801 26.1109 96.9583 26.2264 96.7166 26.204C96.4835 26.1825 96.3145 26.003 96.2972 25.7586C96.2752 25.4457 96.4121 25.2083 96.6567 25.1669C96.8059 25.1417 96.9637 25.1268 97.1114 25.2582Z" fill="white" fill-opacity="0.8"/>
</g>
<defs>
<clipPath id="clip0_455_77">
<rect width="143" height="38" fill="white"/>
</clipPath>
</defs>
</svg>
