<svg width="1920" height="186" viewBox="0 0 1920 186" fill="none" xmlns="http://www.w3.org/2000/svg">
<path d="M-20.0547 132.75L-18.0457 152.53L-13.1293 133.266L-16.5314 152.854L-6.59996 135.631L-15.1607 153.575L-0.950776 139.67L-14.0354 154.639L3.39924 145.083L-13.2387 155.967L6.12745 151.469L-12.8299 157.46L7.03153 158.354L-12.8392 159.009L6.04443 165.228L-13.266 160.498L3.23935 171.581L-14.0787 161.816L-1.17566 176.942L-15.2168 162.866L-6.87317 180.912L-16.5961 163.57L-13.4306 183.198L-18.1142 163.876L-20.3617 183.63L-19.6585 163.761L-27.1523 182.176L-21.1146 163.234L-33.2988 178.944L-22.3743 162.333L-38.3454 174.174L-23.3444 161.126L-41.9178 168.219L-23.9528 159.702L-43.751 161.52L-24.1544 158.166L-43.7091 154.576L-23.9343 156.633L-41.7952 147.9L-23.3087 155.217L-38.1512 141.989L-22.3242 154.021L-33.0474 137.28L-21.0537 153.136L-26.8623 134.122L-19.5913 152.626L-20.0547 132.75Z" fill="black"/>
<path d="M33.0284 158.085L27.037 147.791L30.4651 147.578L32.6516 151.869L34.2143 154.923L34.3745 154.913L35.5677 151.698L37.2037 147.157L40.6317 146.944L35.9759 157.901L33.0284 158.085ZM33.2913 162.989L32.8765 156.336L35.8987 156.148L36.3135 162.801L33.2913 162.989ZM48.8037 162.344C47.5222 162.424 46.3386 162.183 45.253 161.622C44.1674 161.061 43.2769 160.191 42.5816 159.012C41.8863 157.833 41.4836 156.361 41.3736 154.595C41.267 152.886 41.4722 151.419 41.989 150.193C42.5129 148.967 43.2755 148.015 44.2768 147.338C45.2776 146.654 46.4544 146.27 47.8071 146.186C49.1313 146.103 50.3324 146.339 51.4105 146.894C52.4952 147.441 53.3773 148.29 54.0565 149.441C54.7429 150.592 55.1394 152.021 55.2459 153.73C55.356 155.496 55.1464 157.006 54.6171 158.261C54.0879 159.517 53.3195 160.49 52.312 161.182C51.3116 161.873 50.1422 162.26 48.8037 162.344ZM48.6326 159.599C49.3873 159.552 50.0445 159.318 50.6043 158.897C51.1637 158.47 51.5859 157.846 51.8708 157.028C52.1628 156.209 52.2704 155.184 52.1936 153.953C52.1204 152.778 51.8923 151.813 51.5093 151.058C51.1259 150.296 50.6267 149.741 50.0118 149.393C49.4036 149.038 48.7257 148.883 47.9782 148.93C47.2662 148.974 46.627 149.211 46.0605 149.639C45.5006 150.06 45.0707 150.673 44.7707 151.478C44.4702 152.276 44.3566 153.262 44.4298 154.437C44.4875 155.362 44.6373 156.16 44.8793 156.832C45.1279 157.495 45.4407 158.04 45.8175 158.467C46.201 158.886 46.6308 159.188 47.1068 159.373C47.59 159.557 48.0986 159.633 48.6326 159.599ZM63.9371 161.293C62.7481 161.367 61.694 161.197 60.7748 160.783C59.8551 160.361 59.1208 159.703 58.5718 158.808C58.03 157.913 57.7174 156.796 57.6339 155.457L57.0394 145.921L60.0723 145.732L60.6529 155.044C60.6942 155.706 60.7937 156.272 60.9516 156.741C61.1091 157.203 61.3217 157.575 61.5895 157.859C61.8645 158.142 62.1844 158.344 62.5492 158.464C62.9136 158.577 63.3237 158.619 63.7793 158.591C64.2136 158.564 64.5974 158.472 64.9307 158.315C65.2707 158.151 65.5524 157.912 65.7758 157.598C65.9992 157.284 66.1604 156.888 66.2592 156.41C66.3648 155.924 66.3969 155.351 66.3556 154.689L65.7751 145.376L68.808 145.187L69.4025 154.724C69.4851 156.048 69.3096 157.188 68.876 158.144C68.4425 159.101 67.7994 159.848 66.9467 160.387C66.1008 160.919 65.0976 161.221 63.9371 161.293ZM80.9821 160.016L77.1138 154.2L75.1488 154.323L74.4233 154.207L74.6125 152.255L74.5912 151.913L76.9727 151.765C77.5351 151.73 77.9814 151.609 78.3116 151.402C78.6414 151.189 78.8703 150.907 78.9985 150.555C79.1263 150.197 79.1755 149.783 79.1462 149.313C79.1107 148.744 78.9807 148.32 78.756 148.041C78.5313 147.761 78.2448 147.579 77.8964 147.494C77.5551 147.408 77.1709 147.378 76.7437 147.405L74.9169 147.508L74.4111 146.617L73.8307 144.874C74.1297 144.855 74.4145 144.838 74.6851 144.821C74.9627 144.803 75.2724 144.784 75.6142 144.763C75.963 144.741 76.3866 144.715 76.885 144.684C77.8746 144.622 78.757 144.731 79.532 145.012C80.3067 145.285 80.9247 145.74 81.386 146.376C81.8544 147.011 82.1206 147.841 82.1845 148.867C82.2307 149.607 82.1358 150.321 81.8999 151.007C81.6635 151.687 81.2674 152.269 80.7115 152.754C80.1557 153.239 79.4181 153.56 78.4988 153.717L78.6483 153.536C78.9402 153.518 79.1945 153.527 79.4112 153.564C79.635 153.6 79.8442 153.687 80.0386 153.825C80.2397 153.955 80.4381 154.157 80.6339 154.431L84.5489 159.794L80.9821 160.016ZM72.7804 160.528L71.8123 145L74.7812 144.815L75.7492 160.342L72.7804 160.528ZM89.9465 159.457L88.9784 143.93L94.2967 143.598C95.4572 143.526 96.4181 143.634 97.1794 143.922C97.9478 144.21 98.5279 144.632 98.9199 145.186C99.3185 145.733 99.5408 146.377 99.587 147.117C99.646 148.064 99.4194 148.843 98.9072 149.454C98.4016 150.057 97.7027 150.426 96.8106 150.56C97.5692 150.577 98.2173 150.712 98.7548 150.964C99.2922 151.216 99.7122 151.591 100.015 152.086C100.324 152.582 100.503 153.21 100.55 153.972C100.616 155.018 100.443 155.916 100.032 156.663C99.6279 157.403 99.0242 157.98 98.221 158.395C97.4249 158.809 96.4679 159.051 95.3502 159.12L89.9465 159.457ZM92.7008 156.691L94.8473 156.557C95.7871 156.499 96.4644 156.299 96.8791 155.959C97.2934 155.612 97.4742 155.014 97.4214 154.167C97.3814 153.526 97.2347 153.064 96.9811 152.779C96.7275 152.495 96.388 152.323 95.9626 152.264C95.5444 152.204 95.0576 152.192 94.5023 152.226L92.4305 152.355L92.7008 156.691ZM92.2907 150.113L94.3518 149.984C94.9142 149.949 95.3579 149.843 95.6827 149.665C96.0142 149.48 96.2452 149.23 96.3756 148.915C96.5132 148.599 96.5677 148.213 96.5393 147.757C96.5078 147.138 96.2667 146.709 95.816 146.473C95.3724 146.236 94.7911 146.14 94.072 146.185L92.0537 146.311L92.2907 150.113ZM103.233 158.629L102.265 143.101L111.748 142.51L111.919 145.244L104.336 145.717L105.323 144.69L105.641 149.795L104.551 149.166L111.471 148.735L111.641 151.447L104.977 151.863L105.721 151.077L106.069 156.662L104.962 155.755L112.694 155.273L112.866 158.029L103.233 158.629ZM120.215 157.785C119.054 157.857 118.014 157.74 117.094 157.433C116.174 157.118 115.438 156.6 114.885 155.876C114.34 155.146 114.037 154.196 113.979 153.028L116.884 152.846C116.932 153.401 117.083 153.863 117.334 154.233C117.593 154.596 117.956 154.859 118.424 155.023C118.898 155.187 119.478 155.247 120.161 155.204C120.766 155.167 121.257 155.072 121.633 154.92C122.009 154.76 122.282 154.547 122.451 154.279C122.62 154.011 122.694 153.699 122.672 153.343C122.647 152.952 122.509 152.632 122.258 152.383C122.006 152.127 121.62 151.901 121.101 151.704C120.581 151.501 119.906 151.286 119.077 151.059C118.131 150.789 117.296 150.462 116.572 150.079C115.854 149.687 115.287 149.197 114.872 148.609C114.456 148.013 114.221 147.284 114.167 146.423C114.08 145.02 114.483 143.926 115.378 143.142C116.279 142.349 117.545 141.902 119.175 141.801C120.293 141.731 121.226 141.848 121.974 142.151C122.722 142.455 123.306 142.937 123.726 143.597C124.153 144.256 124.444 145.085 124.599 146.083L121.726 146.262C121.663 145.823 121.53 145.46 121.326 145.172C121.129 144.877 120.862 144.665 120.525 144.536C120.195 144.399 119.788 144.346 119.304 144.376C118.563 144.422 118.002 144.593 117.62 144.889C117.238 145.184 117.065 145.609 117.099 146.165C117.122 146.528 117.22 146.843 117.394 147.111C117.568 147.372 117.873 147.617 118.309 147.848C118.751 148.07 119.384 148.309 120.208 148.565C120.901 148.787 121.564 148.999 122.199 149.202C122.833 149.406 123.399 149.656 123.897 149.954C124.401 150.244 124.803 150.623 125.104 151.09C125.411 151.55 125.592 152.153 125.646 152.901C125.746 154.388 125.318 155.548 124.362 156.379C123.405 157.203 122.023 157.672 120.215 157.785ZM131.85 151.603C131.508 151.624 131.217 151.542 130.977 151.357C130.736 151.164 130.578 150.867 130.503 150.464L129.861 149.797L130.571 149.141L132.782 149.004C133.387 148.966 133.883 148.842 134.27 148.632C134.664 148.415 134.948 148.1 135.123 147.689C135.297 147.278 135.365 146.759 135.326 146.133C135.264 145.15 134.974 144.504 134.454 144.193C133.941 143.875 133.243 143.743 132.361 143.798L130.182 143.934L129.104 141.428C129.403 141.41 129.762 141.387 130.182 141.361C130.602 141.335 131.008 141.309 131.4 141.285C131.799 141.26 132.112 141.241 132.34 141.226C134.226 141.109 135.675 141.415 136.685 142.146C137.702 142.868 138.265 144.095 138.373 145.825C138.416 146.515 138.357 147.187 138.198 147.84C138.046 148.493 137.765 149.086 137.355 149.619C136.944 150.145 136.386 150.58 135.678 150.924C134.97 151.261 134.082 151.463 133.014 151.53L131.85 151.603ZM128.075 157.08L127.107 141.553L130.086 141.367L131.054 156.895L128.075 157.08ZM147.545 156.188C146.264 156.268 145.08 156.027 143.994 155.466C142.909 154.905 142.018 154.035 141.323 152.856C140.628 151.677 140.225 150.205 140.115 148.439C140.009 146.731 140.214 145.263 140.73 144.037C141.254 142.811 142.017 141.86 143.018 141.183C144.019 140.498 145.196 140.114 146.549 140.03C147.873 139.947 149.074 140.183 150.152 140.738C151.237 141.285 152.119 142.134 152.798 143.285C153.484 144.436 153.881 145.866 153.987 147.574C154.098 149.34 153.888 150.85 153.359 152.106C152.829 153.361 152.061 154.334 151.053 155.026C150.053 155.717 148.884 156.105 147.545 156.188ZM147.374 153.444C148.129 153.396 148.786 153.163 149.346 152.742C149.905 152.314 150.327 151.691 150.612 150.872C150.904 150.054 151.012 149.029 150.935 147.797C150.862 146.622 150.634 145.657 150.251 144.902C149.867 144.14 149.368 143.585 148.753 143.237C148.145 142.882 147.467 142.728 146.72 142.774C146.008 142.819 145.368 143.055 144.802 143.483C144.242 143.904 143.812 144.517 143.512 145.322C143.212 146.12 143.098 147.106 143.171 148.281C143.229 149.206 143.379 150.005 143.621 150.676C143.869 151.339 144.182 151.884 144.559 152.311C144.942 152.73 145.372 153.032 145.848 153.217C146.332 153.401 146.84 153.477 147.374 153.444ZM159.495 151.026L158.984 148.324L160.678 145.056L164.282 139.235L167.881 139.011L162.991 146.563L161.944 147.486L159.495 151.026ZM156.984 155.278L156.016 139.75L159.017 139.563L159.985 155.091L156.984 155.278ZM165.709 154.734L160.657 146.955L162.841 145.189L169.244 154.514L165.709 154.734ZM170.938 154.408L169.97 138.88L179.453 138.289L179.623 141.023L172.041 141.496L173.028 140.469L173.346 145.574L172.256 144.945L179.176 144.514L179.345 147.226L172.682 147.642L173.426 146.856L173.774 152.441L172.667 151.534L180.399 151.052L180.571 153.808L170.938 154.408ZM194.887 152.915L191.019 147.099L189.054 147.221L188.329 147.106L188.518 145.154L188.496 144.812L190.878 144.663C191.44 144.628 191.887 144.508 192.217 144.301C192.547 144.088 192.776 143.805 192.904 143.454C193.032 143.096 193.081 142.682 193.051 142.212C193.016 141.643 192.886 141.218 192.661 140.939C192.437 140.66 192.15 140.478 191.802 140.393C191.46 140.307 191.076 140.277 190.649 140.304L188.822 140.407L188.316 139.516L187.736 137.773C188.035 137.754 188.32 137.736 188.59 137.72C188.868 137.702 189.178 137.683 189.519 137.662C189.868 137.64 190.292 137.614 190.79 137.582C191.78 137.521 192.662 137.63 193.437 137.911C194.212 138.184 194.83 138.639 195.291 139.275C195.76 139.91 196.026 140.74 196.09 141.766C196.136 142.506 196.041 143.219 195.805 143.906C195.569 144.585 195.173 145.168 194.617 145.653C194.061 146.137 193.323 146.459 192.404 146.616L192.554 146.435C192.845 146.417 193.1 146.426 193.316 146.463C193.54 146.499 193.749 146.586 193.944 146.724C194.145 146.854 194.343 147.056 194.539 147.33L198.454 152.693L194.887 152.915ZM186.686 153.426L185.718 137.899L188.686 137.714L189.654 153.241L186.686 153.426ZM200.118 152.589L199.15 137.061L208.633 136.47L208.804 139.204L201.221 139.677L202.208 138.65L202.526 143.755L201.436 143.126L208.357 142.695L208.526 145.407L201.862 145.823L202.606 145.037L202.954 150.622L201.847 149.715L209.579 149.233L209.751 151.988L200.118 152.589ZM211.099 151.904L215.011 136.073L219.325 135.804L225.174 151.027L222.002 151.225L220.29 146.453L222.043 147.577L214.375 148.055L214.694 145.602L221.187 145.197L220.277 146.422L218.412 141.274L217.351 138.006L217.212 138.015L216.575 141.389L214.26 151.707L211.099 151.904ZM226.941 150.917L225.973 135.389L228.974 135.202L229.877 149.683L228.071 148.048L235.77 147.568L235.944 150.355L226.941 150.917ZM241.751 149.993L240.783 134.466L250.266 133.875L250.436 136.609L242.854 137.081L243.841 136.055L244.159 141.16L243.069 140.531L249.989 140.099L250.158 142.812L243.494 143.227L244.239 142.441L244.587 148.026L243.48 147.12L251.212 146.638L251.383 149.393L241.751 149.993ZM258.732 149.149C257.572 149.222 256.532 149.104 255.612 148.797C254.692 148.483 253.956 147.964 253.403 147.241C252.857 146.51 252.555 145.561 252.496 144.392L255.401 144.211C255.45 144.765 255.6 145.228 255.852 145.598C256.111 145.961 256.474 146.224 256.941 146.388C257.416 146.551 257.995 146.611 258.679 146.569C259.284 146.531 259.775 146.436 260.151 146.284C260.527 146.125 260.8 145.911 260.969 145.643C261.138 145.376 261.211 145.064 261.189 144.708C261.165 144.316 261.027 143.996 260.775 143.747C260.524 143.491 260.138 143.265 259.618 143.069C259.098 142.865 258.424 142.65 257.595 142.423C256.649 142.153 255.814 141.827 255.089 141.443C254.372 141.052 253.805 140.562 253.389 139.973C252.973 139.377 252.739 138.648 252.685 137.787C252.598 136.384 253.001 135.291 253.896 134.506C254.797 133.714 256.062 133.267 257.693 133.165C258.811 133.095 259.743 133.212 260.491 133.516C261.239 133.819 261.823 134.301 262.243 134.961C262.67 135.621 262.961 136.449 263.117 137.448L260.244 137.627C260.181 137.187 260.047 136.824 259.844 136.537C259.646 136.242 259.38 136.03 259.043 135.9C258.713 135.764 258.305 135.711 257.821 135.741C257.081 135.787 256.52 135.958 256.138 136.253C255.756 136.548 255.582 136.974 255.617 137.529C255.64 137.892 255.738 138.208 255.912 138.476C256.085 138.736 256.39 138.982 256.826 139.212C257.269 139.435 257.902 139.674 258.726 139.93C259.418 140.151 260.082 140.363 260.717 140.567C261.351 140.77 261.917 141.021 262.414 141.319C262.919 141.609 263.321 141.988 263.622 142.455C263.929 142.915 264.11 143.518 264.163 144.265C264.263 145.753 263.835 146.912 262.879 147.744C261.923 148.568 260.541 149.036 258.732 149.149ZM269.259 148.279L268.531 136.606C268.509 136.257 268.557 135.993 268.674 135.815C268.792 135.629 268.98 135.502 269.241 135.436L264.563 135.728L264.393 132.994L275.168 132.322L275.338 135.056L271.462 135.298L272.259 148.091L269.259 148.279ZM275.299 147.902L279.212 132.07L283.526 131.801L289.375 147.024L286.203 147.222L284.49 142.451L286.243 143.575L278.576 144.053L278.895 141.599L285.388 141.194L284.478 142.42L282.613 137.272L281.551 134.004L281.413 134.013L280.776 137.387L278.46 147.705L275.299 147.902ZM292.432 146.834L291.704 135.161C291.682 134.813 291.73 134.549 291.848 134.37C291.965 134.184 292.153 134.058 292.414 133.992L287.736 134.283L287.566 131.549L298.341 130.877L298.512 133.611L294.635 133.853L295.433 146.647L292.432 146.834ZM301.342 146.278L300.374 130.751L309.857 130.16L310.027 132.893L302.445 133.366L303.432 132.34L303.75 137.444L302.66 136.816L309.58 136.384L309.749 139.097L303.085 139.512L303.83 138.726L304.178 144.311L303.071 143.405L310.803 142.923L310.974 145.678L301.342 146.278ZM317.089 145.297L316.121 129.769L325.113 129.208L325.305 131.941L317.605 132.421L319.155 130.62L319.569 137.262L317.846 136.276L324.937 135.834L325.106 138.547L318.773 138.942L319.608 137.892L320.058 145.112L317.089 145.297ZM326.047 144.738L329.959 128.906L334.274 128.637L340.122 143.861L336.95 144.059L335.238 139.287L336.991 140.411L329.323 140.889L329.642 138.435L336.135 138.031L335.225 139.256L333.36 134.108L332.299 130.84L332.16 130.849L331.523 134.223L329.208 144.541L326.047 144.738ZM341.89 143.751L340.922 128.223L345.791 127.919L348.47 135.975L349.39 138.866L349.443 138.863L350.018 135.879L351.622 127.556L356.513 127.251L357.481 142.779L354.545 142.962L354.025 134.621L353.985 130.035L353.9 130.04L352.823 134.61L350.753 143.198L348.682 143.327L345.497 135.067L343.861 130.666L343.765 130.672L344.296 135.228L344.816 143.568L341.89 143.751ZM360.608 142.584L359.64 127.056L362.673 126.867L363.641 142.395L360.608 142.584ZM366.752 142.201L365.784 126.673L368.785 126.486L369.688 140.967L367.881 139.332L375.581 138.852L375.755 141.639L366.752 142.201ZM378.749 136.532L372.757 126.238L376.185 126.024L378.372 130.316L379.935 133.37L380.095 133.36L381.288 130.145L382.924 125.604L386.352 125.391L381.696 136.348L378.749 136.532ZM379.012 141.436L378.597 134.783L381.619 134.595L382.034 141.248L379.012 141.436ZM398.988 140.513C397.706 140.592 396.523 140.352 395.437 139.79C394.351 139.229 393.461 138.359 392.766 137.18C392.07 136.002 391.668 134.529 391.558 132.764C391.451 131.055 391.656 129.588 392.173 128.362C392.697 127.136 393.459 126.184 394.461 125.507C395.462 124.823 396.638 124.438 397.991 124.354C399.315 124.272 400.516 124.508 401.595 125.062C402.679 125.609 403.561 126.458 404.241 127.61C404.927 128.76 405.323 130.19 405.43 131.899C405.54 133.664 405.33 135.175 404.801 136.43C404.272 137.685 403.504 138.659 402.496 139.35C401.496 140.042 400.326 140.429 398.988 140.513ZM398.817 137.768C399.571 137.721 400.229 137.487 400.788 137.066C401.348 136.638 401.77 136.015 402.055 135.197C402.347 134.378 402.454 133.353 402.378 132.121C402.304 130.947 402.076 129.982 401.693 129.226C401.31 128.464 400.811 127.909 400.196 127.562C399.588 127.206 398.91 127.052 398.162 127.099C397.45 127.143 396.811 127.38 396.244 127.808C395.685 128.229 395.255 128.842 394.955 129.647C394.654 130.444 394.541 131.431 394.614 132.605C394.672 133.531 394.821 134.329 395.063 135C395.312 135.664 395.625 136.209 396.001 136.636C396.385 137.055 396.815 137.357 397.291 137.541C397.774 137.726 398.283 137.801 398.817 137.768ZM408.426 139.603L407.458 124.075L416.45 123.514L416.642 126.247L408.942 126.727L410.492 124.926L410.906 131.568L409.183 130.582L416.274 130.14L416.443 132.853L410.11 133.247L410.945 132.198L411.395 139.417L408.426 139.603ZM419.711 138.899L418.743 123.371L427.734 122.811L427.926 125.543L420.227 126.023L421.776 124.222L422.19 130.865L420.467 129.879L427.558 129.437L427.727 132.149L421.394 132.544L422.229 131.495L422.679 138.714L419.711 138.899ZM430.941 138.199L429.973 122.671L433.006 122.482L433.974 138.01L430.941 138.199ZM443.497 137.641C442.08 137.73 440.825 137.493 439.732 136.933C438.647 136.371 437.775 135.511 437.116 134.351C436.465 133.184 436.086 131.746 435.979 130.037C435.876 128.393 436.069 126.955 436.557 125.724C437.052 124.492 437.806 123.519 438.819 122.806C439.84 122.092 441.083 121.689 442.55 121.598C443.611 121.532 444.595 121.674 445.503 122.025C446.412 122.375 447.158 122.936 447.742 123.708C448.333 124.478 448.673 125.458 448.761 126.646L445.707 126.836C445.646 126.204 445.465 125.704 445.163 125.337C444.862 124.97 444.481 124.715 444.022 124.572C443.563 124.429 443.066 124.374 442.532 124.408C441.799 124.453 441.156 124.686 440.603 125.107C440.058 125.527 439.642 126.135 439.355 126.932C439.069 127.729 438.963 128.715 439.036 129.89C439.114 131.135 439.347 132.132 439.737 132.88C440.126 133.62 440.624 134.147 441.229 134.459C441.834 134.765 442.5 134.895 443.226 134.849C443.91 134.807 444.462 134.672 444.884 134.446C445.305 134.212 445.612 133.911 445.803 133.542C445.995 133.172 446.083 132.759 446.069 132.303L449.123 132.112C449.168 133.174 448.962 134.109 448.505 134.917C448.054 135.717 447.401 136.354 446.544 136.829C445.687 137.297 444.671 137.568 443.497 137.641ZM451.686 136.906L450.718 121.378L460.201 120.787L460.371 123.521L452.789 123.993L453.776 122.967L454.094 128.072L453.004 127.443L459.924 127.011L460.093 129.724L453.43 130.139L454.174 129.353L454.522 134.938L453.415 134.032L461.147 133.55L461.318 136.305L451.686 136.906Z" fill="black"/>
<path d="M505.924 99.9592L507.933 119.739L512.85 100.475L509.447 120.063L519.379 102.84L510.818 120.784L525.028 106.879L511.944 121.848L529.378 112.292L512.74 123.176L532.106 118.678L513.149 124.669L533.01 125.564L513.14 126.218L532.023 132.438L512.713 127.707L529.218 138.79L511.9 129.025L524.803 144.151L510.762 130.075L519.106 148.121L509.383 130.779L512.548 150.407L507.865 131.085L505.617 150.839L506.32 130.97L498.827 149.385L504.864 130.443L492.68 146.153L503.605 129.542L487.634 141.383L502.634 128.335L484.061 135.428L502.026 126.911L482.228 128.73L501.824 125.375L482.27 121.785L502.045 123.843L484.184 115.11L502.67 122.426L487.828 109.198L503.655 121.231L492.931 104.489L504.925 120.345L499.117 101.331L506.388 119.835L505.924 99.9592Z" fill="black"/>
<path d="M559.007 125.294L553.016 115L556.444 114.787L558.63 119.078L560.193 122.133L560.353 122.123L561.546 118.907L563.182 114.367L566.61 114.153L561.955 125.11L559.007 125.294ZM559.27 130.199L558.855 123.545L561.877 123.357L562.292 130.01L559.27 130.199ZM574.782 129.553C573.501 129.633 572.317 129.392 571.232 128.831C570.146 128.27 569.256 127.4 568.56 126.221C567.865 125.042 567.462 123.57 567.352 121.804C567.246 120.095 567.451 118.628 567.968 117.402C568.492 116.176 569.254 115.225 570.256 114.547C571.256 113.863 572.433 113.479 573.786 113.395C575.11 113.312 576.311 113.548 577.389 114.103C578.474 114.65 579.356 115.499 580.035 116.65C580.722 117.801 581.118 119.231 581.225 120.939C581.335 122.705 581.125 124.215 580.596 125.471C580.067 126.726 579.298 127.699 578.291 128.391C577.29 129.082 576.121 129.47 574.782 129.553ZM574.611 126.809C575.366 126.761 576.023 126.528 576.583 126.107C577.142 125.679 577.565 125.056 577.85 124.237C578.142 123.419 578.249 122.393 578.172 121.162C578.099 119.987 577.871 119.022 577.488 118.267C577.105 117.505 576.605 116.95 575.991 116.602C575.382 116.247 574.704 116.093 573.957 116.139C573.245 116.184 572.606 116.42 572.039 116.848C571.479 117.269 571.049 117.882 570.749 118.687C570.449 119.485 570.335 120.471 570.409 121.646C570.466 122.571 570.616 123.37 570.858 124.041C571.107 124.704 571.419 125.249 571.796 125.676C572.18 126.095 572.61 126.397 573.086 126.582C573.569 126.766 574.077 126.842 574.611 126.809ZM589.916 128.502C588.727 128.577 587.673 128.406 586.754 127.992C585.834 127.57 585.1 126.912 584.551 126.017C584.009 125.122 583.696 124.005 583.613 122.667L583.018 113.13L586.051 112.941L586.632 122.253C586.673 122.915 586.772 123.481 586.93 123.95C587.088 124.412 587.3 124.785 587.568 125.068C587.843 125.351 588.163 125.553 588.528 125.673C588.892 125.786 589.302 125.828 589.758 125.8C590.192 125.773 590.576 125.681 590.909 125.524C591.249 125.36 591.531 125.121 591.755 124.807C591.978 124.493 592.139 124.097 592.238 123.619C592.344 123.134 592.376 122.56 592.334 121.898L591.754 112.585L594.787 112.396L595.381 121.933C595.464 123.257 595.288 124.397 594.855 125.354C594.421 126.31 593.778 127.057 592.925 127.596C592.08 128.128 591.076 128.43 589.916 128.502ZM606.961 127.225L603.093 121.409L601.128 121.532L600.402 121.416L600.591 119.464L600.57 119.122L602.951 118.974C603.514 118.939 603.96 118.818 604.29 118.612C604.62 118.398 604.849 118.116 604.977 117.765C605.105 117.406 605.154 116.992 605.125 116.523C605.089 115.953 604.959 115.529 604.735 115.25C604.51 114.971 604.224 114.788 603.875 114.703C603.534 114.617 603.15 114.587 602.722 114.614L600.896 114.717L600.39 113.827L599.809 112.083C600.109 112.065 600.393 112.047 600.664 112.03C600.941 112.013 601.251 111.993 601.593 111.972C601.942 111.95 602.365 111.924 602.864 111.893C603.853 111.831 604.736 111.94 605.511 112.221C606.285 112.494 606.903 112.949 607.365 113.585C607.833 114.22 608.099 115.051 608.163 116.076C608.209 116.816 608.115 117.53 607.879 118.216C607.642 118.896 607.246 119.478 606.69 119.963C606.134 120.448 605.397 120.769 604.478 120.926L604.627 120.745C604.919 120.727 605.173 120.736 605.39 120.773C605.614 120.809 605.823 120.896 606.017 121.034C606.218 121.164 606.417 121.366 606.613 121.64L610.528 127.003L606.961 127.225ZM598.759 127.737L597.791 112.209L600.76 112.024L601.728 127.552L598.759 127.737ZM615.925 126.667L614.957 111.139L620.275 110.807C621.436 110.735 622.397 110.843 623.158 111.131C623.927 111.419 624.507 111.841 624.899 112.395C625.297 112.942 625.52 113.586 625.566 114.326C625.625 115.273 625.398 116.052 624.886 116.663C624.38 117.266 623.681 117.635 622.789 117.769C623.548 117.786 624.196 117.921 624.734 118.173C625.271 118.426 625.691 118.8 625.993 119.295C626.303 119.791 626.482 120.419 626.529 121.181C626.594 122.228 626.422 123.125 626.011 123.872C625.607 124.612 625.003 125.189 624.2 125.604C623.404 126.018 622.447 126.26 621.329 126.33L615.925 126.667ZM618.68 123.9L620.826 123.767C621.766 123.708 622.443 123.509 622.858 123.168C623.272 122.821 623.453 122.223 623.4 121.376C623.36 120.735 623.213 120.273 622.96 119.988C622.706 119.704 622.367 119.532 621.941 119.473C621.523 119.413 621.036 119.401 620.481 119.435L618.409 119.565L618.68 123.9ZM618.269 117.322L620.331 117.193C620.893 117.158 621.337 117.052 621.661 116.875C621.993 116.69 622.224 116.439 622.354 116.124C622.492 115.808 622.547 115.422 622.518 114.967C622.487 114.347 622.246 113.919 621.795 113.682C621.351 113.445 620.77 113.349 620.051 113.394L618.032 113.52L618.269 117.322ZM629.212 125.838L628.244 110.311L637.727 109.719L637.897 112.453L630.315 112.926L631.302 111.9L631.62 117.004L630.53 116.375L637.45 115.944L637.619 118.656L630.955 119.072L631.7 118.286L632.048 123.871L630.941 122.964L638.673 122.482L638.844 125.238L629.212 125.838ZM646.193 124.994C645.033 125.066 643.993 124.949 643.073 124.642C642.153 124.327 641.417 123.809 640.864 123.086C640.318 122.355 640.016 121.405 639.958 120.237L642.862 120.056C642.911 120.61 643.061 121.072 643.313 121.443C643.572 121.805 643.935 122.069 644.402 122.232C644.877 122.396 645.456 122.456 646.14 122.414C646.745 122.376 647.236 122.281 647.612 122.129C647.988 121.97 648.261 121.756 648.43 121.488C648.599 121.22 648.673 120.908 648.65 120.552C648.626 120.161 648.488 119.841 648.237 119.592C647.985 119.336 647.599 119.11 647.079 118.914C646.559 118.71 645.885 118.495 645.056 118.268C644.11 117.998 643.275 117.671 642.55 117.288C641.833 116.896 641.266 116.406 640.851 115.818C640.435 115.222 640.2 114.493 640.146 113.632C640.059 112.229 640.462 111.135 641.357 110.351C642.258 109.558 643.524 109.111 645.154 109.01C646.272 108.94 647.205 109.057 647.953 109.361C648.701 109.664 649.284 110.146 649.704 110.806C650.131 111.465 650.423 112.294 650.578 113.292L647.705 113.471C647.642 113.032 647.508 112.669 647.305 112.381C647.108 112.086 646.841 111.874 646.504 111.745C646.174 111.608 645.767 111.555 645.282 111.585C644.542 111.632 643.981 111.802 643.599 112.098C643.217 112.393 643.044 112.819 643.078 113.374C643.101 113.737 643.199 114.052 643.373 114.32C643.547 114.581 643.851 114.827 644.287 115.057C644.73 115.279 645.363 115.518 646.187 115.774C646.88 115.996 647.543 116.208 648.178 116.412C648.812 116.615 649.378 116.866 649.876 117.163C650.38 117.454 650.782 117.832 651.083 118.3C651.39 118.759 651.571 119.363 651.625 120.11C651.724 121.597 651.296 122.757 650.34 123.588C649.384 124.413 648.002 124.881 646.193 124.994ZM657.829 118.812C657.487 118.833 657.196 118.751 656.956 118.566C656.715 118.374 656.557 118.076 656.482 117.673L655.84 117.006L656.55 116.351L658.76 116.213C659.365 116.175 659.862 116.051 660.249 115.841C660.643 115.624 660.927 115.309 661.101 114.898C661.276 114.487 661.343 113.968 661.304 113.342C661.243 112.359 660.953 111.713 660.433 111.402C659.92 111.084 659.222 110.952 658.339 111.007L656.161 111.143L655.083 108.637C655.382 108.619 655.741 108.596 656.161 108.57C656.581 108.544 656.987 108.519 657.379 108.494C657.777 108.469 658.091 108.45 658.318 108.436C660.205 108.318 661.654 108.624 662.664 109.355C663.681 110.077 664.244 111.304 664.351 113.034C664.394 113.725 664.336 114.396 664.177 115.05C664.025 115.702 663.743 116.295 663.334 116.828C662.923 117.354 662.364 117.789 661.657 118.133C660.949 118.471 660.061 118.673 658.993 118.739L657.829 118.812ZM654.054 124.289L653.086 108.762L656.065 108.576L657.033 124.104L654.054 124.289ZM673.524 123.397C672.242 123.477 671.059 123.236 669.973 122.675C668.888 122.114 667.997 121.244 667.302 120.065C666.607 118.886 666.204 117.414 666.094 115.648C665.987 113.94 666.192 112.472 666.709 111.247C667.233 110.02 667.996 109.069 668.997 108.392C669.998 107.707 671.175 107.323 672.527 107.239C673.852 107.156 675.053 107.392 676.131 107.947C677.216 108.494 678.098 109.343 678.777 110.494C679.463 111.645 679.86 113.075 679.966 114.784C680.076 116.549 679.867 118.06 679.337 119.315C678.808 120.57 678.04 121.543 677.032 122.235C676.032 122.926 674.862 123.314 673.524 123.397ZM673.353 120.653C674.108 120.606 674.765 120.372 675.325 119.951C675.884 119.523 676.306 118.9 676.591 118.082C676.883 117.263 676.991 116.238 676.914 115.006C676.841 113.831 676.613 112.866 676.23 112.111C675.846 111.349 675.347 110.794 674.732 110.446C674.124 110.091 673.446 109.937 672.698 109.983C671.986 110.028 671.347 110.264 670.781 110.693C670.221 111.114 669.791 111.726 669.491 112.531C669.19 113.329 669.077 114.315 669.15 115.49C669.208 116.416 669.358 117.214 669.6 117.885C669.848 118.548 670.161 119.093 670.538 119.52C670.921 119.939 671.351 120.241 671.827 120.426C672.31 120.61 672.819 120.686 673.353 120.653ZM685.474 118.235L684.963 115.533L686.657 112.265L690.26 106.444L693.859 106.22L688.97 113.772L687.923 114.695L685.474 118.235ZM682.963 122.487L681.995 106.96L684.995 106.772L685.964 122.3L682.963 122.487ZM691.688 121.943L686.636 114.164L688.82 112.398L695.222 121.723L691.688 121.943ZM696.917 121.617L695.949 106.09L705.432 105.498L705.602 108.232L698.02 108.705L699.007 107.679L699.325 112.783L698.235 112.154L705.155 111.723L705.324 114.436L698.66 114.851L699.405 114.065L699.753 119.65L698.646 118.744L706.378 118.262L706.549 121.017L696.917 121.617ZM720.866 120.124L716.998 114.308L715.033 114.431L714.307 114.315L714.496 112.363L714.475 112.021L716.857 111.873C717.419 111.838 717.865 111.717 718.196 111.51C718.525 111.297 718.754 111.015 718.883 110.664C719.01 110.305 719.06 109.891 719.03 109.421C718.995 108.852 718.865 108.428 718.64 108.149C718.415 107.87 718.129 107.687 717.78 107.602C717.439 107.516 717.055 107.486 716.628 107.513L714.801 107.616L714.295 106.726L713.715 104.982C714.014 104.963 714.299 104.946 714.569 104.929C714.847 104.911 715.156 104.892 715.498 104.871C715.847 104.849 716.271 104.823 716.769 104.792C717.759 104.73 718.641 104.839 719.416 105.12C720.191 105.393 720.809 105.848 721.27 106.484C721.738 107.119 722.005 107.95 722.069 108.975C722.115 109.715 722.02 110.429 721.784 111.115C721.547 111.795 721.151 112.377 720.596 112.862C720.04 113.347 719.302 113.668 718.383 113.825L718.532 113.644C718.824 113.626 719.079 113.635 719.295 113.672C719.519 113.708 719.728 113.795 719.923 113.933C720.124 114.063 720.322 114.265 720.518 114.539L724.433 119.902L720.866 120.124ZM712.664 120.636L711.696 105.108L714.665 104.923L715.633 120.45L712.664 120.636ZM726.097 119.798L725.129 104.27L734.612 103.679L734.782 106.413L727.2 106.886L728.187 105.859L728.505 110.964L727.415 110.335L734.335 109.904L734.505 112.616L727.841 113.032L728.585 112.246L728.933 117.831L727.826 116.924L735.558 116.442L735.73 119.198L726.097 119.798ZM737.077 119.114L740.99 103.282L745.304 103.013L751.153 118.236L747.981 118.434L746.268 113.663L748.021 114.786L740.354 115.264L740.673 112.811L747.166 112.406L746.256 113.631L744.391 108.484L743.33 105.216L743.191 105.224L742.554 108.598L740.238 118.917L737.077 119.114ZM752.92 118.126L751.952 102.598L754.953 102.411L755.856 116.892L754.049 115.257L761.749 114.777L761.923 117.565L752.92 118.126ZM767.729 117.203L766.761 101.675L776.245 101.084L776.415 103.818L768.833 104.29L769.819 103.264L770.138 108.369L769.048 107.74L775.968 107.308L776.137 110.021L769.473 110.436L770.217 109.65L770.566 115.235L769.458 114.329L777.19 113.847L777.362 116.602L767.729 117.203ZM784.711 116.358C783.551 116.431 782.51 116.313 781.591 116.006C780.671 115.692 779.934 115.173 779.382 114.45C778.836 113.719 778.534 112.77 778.475 111.601L781.38 111.42C781.429 111.975 781.579 112.437 781.831 112.807C782.089 113.17 782.452 113.433 782.92 113.597C783.395 113.76 783.974 113.821 784.657 113.778C785.263 113.74 785.753 113.645 786.13 113.493C786.506 113.334 786.778 113.12 786.948 112.853C787.117 112.585 787.19 112.273 787.168 111.917C787.143 111.525 787.006 111.205 786.754 110.956C786.502 110.7 786.117 110.474 785.597 110.278C785.077 110.075 784.402 109.859 783.573 109.632C782.627 109.363 781.792 109.036 781.068 108.652C780.35 108.261 779.784 107.771 779.368 107.182C778.952 106.586 778.717 105.858 778.664 104.996C778.576 103.594 778.98 102.5 779.874 101.715C780.775 100.923 782.041 100.476 783.672 100.374C784.789 100.305 785.722 100.421 786.47 100.725C787.218 101.029 787.802 101.51 788.222 102.17C788.649 102.83 788.94 103.659 789.095 104.657L786.223 104.836C786.159 104.397 786.026 104.033 785.822 103.746C785.625 103.451 785.358 103.239 785.021 103.11C784.691 102.973 784.284 102.92 783.8 102.95C783.06 102.996 782.498 103.167 782.117 103.462C781.735 103.758 781.561 104.183 781.596 104.738C781.618 105.101 781.717 105.417 781.891 105.685C782.064 105.946 782.369 106.191 782.805 106.421C783.248 106.644 783.881 106.883 784.704 107.139C785.397 107.36 786.061 107.573 786.695 107.776C787.33 107.979 787.896 108.23 788.393 108.528C788.897 108.818 789.3 109.197 789.6 109.664C789.908 110.124 790.088 110.727 790.142 111.474C790.242 112.962 789.814 114.121 788.858 114.953C787.902 115.777 786.519 116.246 784.711 116.358ZM795.237 115.488L794.51 103.815C794.488 103.466 794.536 103.203 794.653 103.024C794.77 102.838 794.959 102.712 795.219 102.645L790.542 102.937L790.371 100.203L801.147 99.5313L801.317 102.265L797.441 102.507L798.238 115.301L795.237 115.488ZM801.278 115.111L805.19 99.2792L809.505 99.0103L815.353 114.234L812.182 114.431L810.469 109.66L812.222 110.784L804.555 111.262L804.873 108.808L811.366 108.404L810.456 109.629L808.592 104.481L807.53 101.213L807.391 101.222L806.755 104.596L804.439 114.914L801.278 115.111ZM818.41 114.043L817.683 102.371C817.661 102.022 817.709 101.758 817.826 101.579C817.943 101.393 818.132 101.267 818.392 101.201L813.715 101.492L813.545 98.7584L824.32 98.0867L824.49 100.821L820.614 101.062L821.411 113.856L818.41 114.043ZM827.32 113.488L826.352 97.9599L835.836 97.3687L836.006 100.103L828.424 100.575L829.41 99.5489L829.729 104.654L828.639 104.025L835.559 103.593L835.728 106.306L829.064 106.721L829.809 105.935L830.157 111.52L829.05 110.614L836.781 110.132L836.953 112.887L827.32 113.488ZM843.068 112.506L842.1 96.9782L851.092 96.4176L851.284 99.1502L843.584 99.6302L845.134 97.829L845.548 104.471L843.825 103.485L850.916 103.043L851.085 105.756L844.752 106.151L845.587 105.102L846.037 112.321L843.068 112.506ZM852.025 111.947L855.938 96.1155L860.252 95.8465L866.101 111.07L862.929 111.268L861.216 106.496L862.97 107.62L855.302 108.098L855.621 105.645L862.114 105.24L861.204 106.465L859.339 101.317L858.278 98.0495L858.139 98.0581L857.502 101.432L855.187 111.75L852.025 111.947ZM867.868 110.96L866.9 95.4321L871.77 95.1285L874.449 103.184L875.369 106.075L875.422 106.072L875.997 103.088L877.601 94.765L882.492 94.4601L883.46 109.988L880.523 110.171L880.003 101.83L879.964 97.2443L879.879 97.2496L878.802 101.819L876.732 110.407L874.66 110.536L871.476 102.276L869.84 97.8754L869.744 97.8814L870.274 102.437L870.794 110.777L867.868 110.96ZM886.587 109.793L885.619 94.2651L888.651 94.0761L889.619 109.604L886.587 109.793ZM892.731 109.41L891.763 93.8821L894.764 93.695L895.667 108.176L893.86 106.541L901.56 106.061L901.734 108.848L892.731 109.41ZM904.728 103.741L898.736 93.4474L902.164 93.2336L904.351 97.525L905.913 100.579L906.074 100.57L907.267 97.3539L908.903 92.8135L912.331 92.5998L907.675 103.557L904.728 103.741ZM904.99 108.645L904.576 101.992L907.598 101.804L908.013 108.457L904.99 108.645ZM924.966 107.722C923.685 107.802 922.501 107.561 921.416 107C920.33 106.438 919.44 105.568 918.744 104.39C918.049 103.211 917.646 101.738 917.536 99.9728C917.43 98.2641 917.635 96.7969 918.152 95.5711C918.676 94.3449 919.438 93.3932 920.44 92.7161C921.44 92.0319 922.617 91.6477 923.97 91.5633C925.294 91.4808 926.495 91.7168 927.573 92.2714C928.658 92.8184 929.54 93.6676 930.219 94.8188C930.906 95.9696 931.302 97.3993 931.409 99.108C931.519 100.874 931.309 102.384 930.78 103.639C930.251 104.894 929.482 105.868 928.475 106.56C927.474 107.251 926.305 107.638 924.966 107.722ZM924.795 104.977C925.55 104.93 926.207 104.696 926.767 104.275C927.327 103.847 927.749 103.224 928.034 102.406C928.326 101.587 928.433 100.562 928.356 99.3304C928.283 98.1557 928.055 97.1908 927.672 96.4356C927.289 95.6733 926.789 95.1184 926.175 94.7708C925.566 94.4156 924.888 94.2613 924.141 94.3079C923.429 94.3523 922.79 94.5887 922.223 95.0171C921.663 95.4379 921.233 96.0508 920.933 96.8557C920.633 97.6535 920.519 98.6397 920.593 99.8145C920.65 100.74 920.8 101.538 921.042 102.209C921.291 102.873 921.603 103.418 921.98 103.845C922.364 104.264 922.794 104.566 923.27 104.751C923.753 104.935 924.261 105.01 924.795 104.977ZM934.405 106.812L933.437 91.284L942.429 90.7234L942.621 93.456L934.921 93.936L936.471 92.1348L936.885 98.7773L935.161 97.7912L942.253 97.3492L942.422 100.062L936.089 100.456L936.924 99.4074L937.374 106.627L934.405 106.812ZM945.689 106.108L944.721 90.5805L953.713 90.02L953.905 92.7525L946.205 93.2325L947.755 91.4313L948.169 98.0738L946.446 97.0878L953.537 96.6457L953.706 99.3582L947.373 99.753L948.208 98.7039L948.658 105.923L945.689 106.108ZM956.92 105.408L955.952 89.8804L958.984 89.6913L959.952 105.219L956.92 105.408ZM969.475 104.85C968.059 104.939 966.804 104.703 965.711 104.142C964.625 103.58 963.753 102.72 963.095 101.56C962.443 100.393 962.064 98.955 961.958 97.2464C961.855 95.6018 962.048 94.1639 962.536 92.9327C963.031 91.7012 963.785 90.7286 964.798 90.015C965.819 89.301 967.062 88.8983 968.529 88.8069C969.59 88.7407 970.574 88.883 971.482 89.2338C972.39 89.5846 973.136 90.1456 973.721 90.9168C974.312 91.6876 974.652 92.667 974.74 93.8551L971.686 94.0455C971.625 93.4132 971.444 92.9134 971.142 92.5463C970.84 92.1792 970.46 91.9241 970.001 91.7812C969.541 91.6383 969.045 91.5835 968.511 91.6168C967.778 91.6625 967.135 91.8956 966.582 92.316C966.036 92.7359 965.62 93.3444 965.334 94.1413C965.048 94.9381 964.941 95.924 965.015 97.0987C965.092 98.3446 965.326 99.3413 965.716 100.089C966.105 100.829 966.602 101.356 967.208 101.668C967.813 101.974 968.479 102.104 969.205 102.058C969.888 102.016 970.441 101.881 970.863 101.655C971.284 101.421 971.591 101.12 971.782 100.751C971.973 100.381 972.062 99.9685 972.048 99.5119L975.102 99.3215C975.147 100.384 974.941 101.318 974.484 102.126C974.033 102.926 973.38 103.564 972.523 104.039C971.666 104.507 970.65 104.777 969.475 104.85ZM977.665 104.115L976.697 88.5871L986.18 87.9959L986.35 90.7298L978.768 91.2025L979.755 90.1761L980.073 95.2808L978.983 94.6519L985.903 94.2205L986.072 96.933L979.408 97.3485L980.153 96.5623L980.501 102.148L979.394 101.241L987.125 100.759L987.297 103.514L977.665 104.115Z" fill="black"/>
<path d="M1031.9 67.1684L1033.91 86.9482L1038.83 67.6841L1035.43 87.2724L1045.36 70.0491L1036.8 87.9931L1051.01 74.088L1037.92 89.057L1055.36 79.5013L1038.72 90.385L1058.09 85.8874L1039.13 91.8787L1058.99 92.7728L1039.12 93.4273L1058 99.6468L1038.69 94.9159L1055.2 106L1037.88 96.2342L1050.78 111.36L1036.74 97.2844L1045.08 115.33L1035.36 97.9885L1038.53 117.616L1033.84 98.2944L1031.6 118.049L1032.3 98.1794L1024.81 116.595L1030.84 97.652L1018.66 113.363L1029.58 96.7514L1013.61 108.592L1028.61 95.5442L1010.04 102.637L1028 94.1201L1008.21 95.9387L1027.8 92.5847L1008.25 88.9944L1028.02 91.0518L1010.16 82.3188L1028.65 89.6351L1013.81 76.4072L1029.63 88.4397L1018.91 71.6979L1030.9 87.5543L1025.1 68.5402L1032.37 87.0445L1031.9 67.1684Z" fill="black"/>
<path d="M1084.99 92.5032L1078.99 82.2095L1082.42 81.9958L1084.61 86.2872L1086.17 89.3417L1086.33 89.3317L1087.53 86.1161L1089.16 81.5757L1092.59 81.362L1087.93 92.3194L1084.99 92.5032ZM1085.25 97.4076L1084.83 90.7545L1087.86 90.566L1088.27 97.2192L1085.25 97.4076ZM1100.76 96.7622C1099.48 96.8421 1098.3 96.6014 1097.21 96.0401C1096.13 95.4788 1095.23 94.6088 1094.54 93.43C1093.84 92.2512 1093.44 90.7789 1093.33 89.0133C1093.22 87.3046 1093.43 85.8374 1093.95 84.6116C1094.47 83.3853 1095.23 82.4337 1096.23 81.7566C1097.24 81.0724 1098.41 80.6881 1099.76 80.6038C1101.09 80.5212 1102.29 80.7573 1103.37 81.3118C1104.45 81.8589 1105.34 82.708 1106.01 83.8592C1106.7 85.01 1107.1 86.4398 1107.2 88.1484C1107.31 89.9141 1107.1 91.4245 1106.57 92.6797C1106.05 93.9348 1105.28 94.9083 1104.27 95.6C1103.27 96.2914 1102.1 96.6787 1100.76 96.7622ZM1100.59 94.0176C1101.35 93.9706 1102 93.7366 1102.56 93.3158C1103.12 92.8878 1103.54 92.2647 1103.83 91.4464C1104.12 90.6278 1104.23 89.6026 1104.15 88.3709C1104.08 87.1962 1103.85 86.2312 1103.47 85.4761C1103.08 84.7138 1102.58 84.1588 1101.97 83.8112C1101.36 83.456 1100.68 83.3018 1099.94 83.3484C1099.22 83.3927 1098.58 83.6291 1098.02 84.0576C1097.46 84.4784 1097.03 85.0913 1096.73 85.8962C1096.43 86.6939 1096.31 87.6802 1096.39 88.8549C1096.45 89.7804 1096.6 90.5787 1096.84 91.2498C1097.09 91.9133 1097.4 92.4584 1097.78 92.8852C1098.16 93.3044 1098.59 93.6064 1099.06 93.7911C1099.55 93.9754 1100.06 94.0509 1100.59 94.0176ZM1115.89 95.7115C1114.71 95.7856 1113.65 95.6155 1112.73 95.2011C1111.81 94.7796 1111.08 94.1214 1110.53 93.2264C1109.99 92.3311 1109.68 91.2142 1109.59 89.8757L1109 80.3391L1112.03 80.15L1112.61 89.4624C1112.65 90.1245 1112.75 90.69 1112.91 91.1591C1113.07 91.621 1113.28 91.9937 1113.55 92.2771C1113.82 92.5602 1114.14 92.7618 1114.51 92.882C1114.87 92.9951 1115.28 93.0374 1115.74 93.009C1116.17 92.9819 1116.56 92.8901 1116.89 92.7335C1117.23 92.5694 1117.51 92.3303 1117.73 92.0162C1117.96 91.702 1118.12 91.306 1118.22 90.8282C1118.32 90.3427 1118.35 89.769 1118.31 89.1068L1117.73 79.7945L1120.77 79.6054L1121.36 89.142C1121.44 90.4663 1121.27 91.6065 1120.83 92.5626C1120.4 93.5188 1119.76 94.2664 1118.9 94.8056C1118.06 95.3372 1117.06 95.6392 1115.89 95.7115ZM1132.94 94.4345L1129.07 88.6184L1127.11 88.7409L1126.38 88.6253L1126.57 86.6731L1126.55 86.3313L1128.93 86.1829C1129.49 86.1478 1129.94 86.0271 1130.27 85.8206C1130.6 85.6071 1130.83 85.3248 1130.96 84.9738C1131.08 84.6156 1131.13 84.2016 1131.1 83.7317C1131.07 83.1621 1130.94 82.7378 1130.71 82.4588C1130.49 82.1798 1130.2 81.9975 1129.85 81.912C1129.51 81.8261 1129.13 81.7964 1128.7 81.8231L1126.87 81.9262L1126.37 81.0358L1125.79 79.2923C1126.09 79.2737 1126.37 79.2559 1126.64 79.239C1126.92 79.2217 1127.23 79.2024 1127.57 79.1811C1127.92 79.1594 1128.34 79.133 1128.84 79.1019C1129.83 79.0402 1130.71 79.1496 1131.49 79.43C1132.26 79.7034 1132.88 80.158 1133.34 80.7939C1133.81 81.4294 1134.08 82.2597 1134.14 83.285C1134.19 84.0254 1134.09 84.7389 1133.86 85.4254C1133.62 86.1048 1133.23 86.687 1132.67 87.1719C1132.11 87.6569 1131.38 87.978 1130.46 88.1354L1130.61 87.9545C1130.9 87.9363 1131.15 87.9455 1131.37 87.982C1131.59 88.0181 1131.8 88.1051 1132 88.2431C1132.2 88.3735 1132.4 88.5755 1132.59 88.8492L1136.51 94.2121L1132.94 94.4345ZM1124.74 94.9458L1123.77 79.4181L1126.74 79.2331L1127.71 94.7607L1124.74 94.9458ZM1141.9 93.8756L1140.94 78.348L1146.25 78.0164C1147.41 77.9441 1148.38 78.0521 1149.14 78.3406C1149.91 78.6286 1150.49 79.0498 1150.88 79.6043C1151.28 80.1512 1151.5 80.7949 1151.54 81.5354C1151.6 82.4822 1151.38 83.2611 1150.86 83.872C1150.36 84.4753 1149.66 84.844 1148.77 84.9783C1149.53 84.9953 1150.18 85.13 1150.71 85.3824C1151.25 85.6348 1151.67 86.0088 1151.97 86.5046C1152.28 86.9999 1152.46 87.6284 1152.51 88.3902C1152.57 89.4368 1152.4 90.3338 1151.99 91.0813C1151.59 91.8212 1150.98 92.3984 1150.18 92.813C1149.38 93.2271 1148.43 93.4691 1147.31 93.5387L1141.9 93.8756ZM1144.66 91.1095L1146.81 90.9757C1147.74 90.9171 1148.42 90.7176 1148.84 90.3773C1149.25 90.0298 1149.43 89.4325 1149.38 88.5853C1149.34 87.9445 1149.19 87.4819 1148.94 87.1976C1148.69 86.9132 1148.35 86.7414 1147.92 86.6821C1147.5 86.6225 1147.02 86.6099 1146.46 86.6445L1144.39 86.7737L1144.66 91.1095ZM1144.25 84.531L1146.31 84.4026C1146.87 84.3675 1147.32 84.2612 1147.64 84.0837C1147.97 83.8987 1148.2 83.6484 1148.33 83.333C1148.47 83.0171 1148.53 82.6313 1148.5 82.1756C1148.47 81.5558 1148.22 81.1277 1147.77 80.8913C1147.33 80.6546 1146.75 80.5586 1146.03 80.6034L1144.01 80.7292L1144.25 84.531ZM1155.19 93.0473L1154.22 77.5196L1163.71 76.9284L1163.88 79.6623L1156.29 80.135L1157.28 79.1087L1157.6 84.2133L1156.51 83.5844L1163.43 83.153L1163.6 85.8655L1156.93 86.281L1157.68 85.4949L1158.03 91.0801L1156.92 90.1735L1164.65 89.6915L1164.82 92.4468L1155.19 93.0473ZM1172.17 92.203C1171.01 92.2754 1169.97 92.158 1169.05 91.8508C1168.13 91.5365 1167.4 91.0178 1166.84 90.2946C1166.3 89.5639 1166 88.6143 1165.94 87.4458L1168.84 87.2647C1168.89 87.8192 1169.04 88.2815 1169.29 88.6518C1169.55 89.0145 1169.91 89.2777 1170.38 89.4415C1170.86 89.6049 1171.44 89.6653 1172.12 89.6227C1172.72 89.5849 1173.21 89.49 1173.59 89.3379C1173.97 89.1787 1174.24 88.9651 1174.41 88.6973C1174.58 88.4294 1174.65 88.1175 1174.63 87.7616C1174.6 87.37 1174.47 87.0498 1174.22 86.801C1173.96 86.5451 1173.58 86.319 1173.06 86.1227C1172.54 85.9193 1171.86 85.7041 1171.03 85.477C1170.09 85.2072 1169.25 84.8805 1168.53 84.4968C1167.81 84.1055 1167.25 83.6156 1166.83 83.0268C1166.41 82.4309 1166.18 81.7023 1166.13 80.8408C1166.04 79.4383 1166.44 78.3446 1167.34 77.5598C1168.24 76.7675 1169.5 76.3205 1171.13 76.2188C1172.25 76.1492 1173.18 76.2661 1173.93 76.5697C1174.68 76.8733 1175.26 77.355 1175.68 78.015C1176.11 78.6745 1176.4 79.5033 1176.56 80.5014L1173.68 80.6805C1173.62 80.2413 1173.49 79.8779 1173.28 79.5905C1173.09 79.2954 1172.82 79.0833 1172.48 78.9542C1172.15 78.8176 1171.75 78.7644 1171.26 78.7945C1170.52 78.8407 1169.96 79.0115 1169.58 79.3069C1169.2 79.6023 1169.02 80.0276 1169.06 80.583C1169.08 80.946 1169.18 81.2615 1169.35 81.5294C1169.53 81.7902 1169.83 82.0357 1170.27 82.2658C1170.71 82.4883 1171.34 82.7276 1172.17 82.9836C1172.86 83.2048 1173.52 83.4172 1174.16 83.6206C1174.79 83.8241 1175.36 84.0747 1175.85 84.3725C1176.36 84.6626 1176.76 85.0414 1177.06 85.5086C1177.37 85.9683 1177.55 86.5717 1177.6 87.3188C1177.7 88.8064 1177.28 89.9659 1176.32 90.7974C1175.36 91.6217 1173.98 92.0903 1172.17 92.203ZM1183.81 86.0208C1183.47 86.0421 1183.18 85.9602 1182.93 85.775C1182.69 85.5828 1182.54 85.2853 1182.46 84.8826L1181.82 84.215L1182.53 83.5597L1184.74 83.4219C1185.34 83.3842 1185.84 83.2603 1186.23 83.0504C1186.62 82.8328 1186.91 82.5185 1187.08 82.1074C1187.25 81.6963 1187.32 81.1774 1187.28 80.5509C1187.22 79.5684 1186.93 78.9219 1186.41 78.6112C1185.9 78.293 1185.2 78.1614 1184.32 78.2164L1182.14 78.3522L1181.06 75.8464C1181.36 75.8278 1181.72 75.8054 1182.14 75.7792C1182.56 75.753 1182.97 75.7277 1183.36 75.7033C1183.76 75.6784 1184.07 75.6589 1184.3 75.6447C1186.18 75.5271 1187.63 75.8335 1188.64 76.5638C1189.66 77.2866 1190.22 78.513 1190.33 80.243C1190.37 80.9336 1190.32 81.6055 1190.16 82.2587C1190 82.9114 1189.72 83.5043 1189.31 84.0373C1188.9 84.5632 1188.34 84.9983 1187.64 85.3426C1186.93 85.6798 1186.04 85.8816 1184.97 85.9482L1183.81 86.0208ZM1180.03 91.4986L1179.06 75.9709L1182.04 75.7852L1183.01 91.3129L1180.03 91.4986ZM1199.5 90.6064C1198.22 90.6863 1197.04 90.4456 1195.95 89.8843C1194.87 89.3231 1193.98 88.453 1193.28 87.2742C1192.59 86.0954 1192.18 84.6231 1192.07 82.8575C1191.97 81.1488 1192.17 79.6816 1192.69 78.4558C1193.21 77.2295 1193.97 76.2779 1194.98 75.6008C1195.98 74.9166 1197.15 74.5323 1198.51 74.448C1199.83 74.3654 1201.03 74.6015 1202.11 75.1561C1203.19 75.7031 1204.08 76.5522 1204.76 77.7034C1205.44 78.8542 1205.84 80.284 1205.95 81.9927C1206.06 83.7583 1205.85 85.2687 1205.32 86.5239C1204.79 87.779 1204.02 88.7525 1203.01 89.4442C1202.01 90.1356 1200.84 90.5229 1199.5 90.6064ZM1199.33 87.8618C1200.09 87.8148 1200.74 87.5808 1201.3 87.16C1201.86 86.732 1202.29 86.1089 1202.57 85.2906C1202.86 84.472 1202.97 83.4468 1202.89 82.2151C1202.82 81.0404 1202.59 80.0754 1202.21 79.3203C1201.83 78.558 1201.33 78.003 1200.71 77.6554C1200.1 77.3002 1199.42 77.146 1198.68 77.1926C1197.97 77.2369 1197.33 77.4733 1196.76 77.9018C1196.2 78.3226 1195.77 78.9355 1195.47 79.7404C1195.17 80.5382 1195.06 81.5244 1195.13 82.6991C1195.19 83.6247 1195.34 84.4229 1195.58 85.094C1195.83 85.7575 1196.14 86.3026 1196.52 86.7294C1196.9 87.1486 1197.33 87.4506 1197.81 87.6353C1198.29 87.8196 1198.8 87.8951 1199.33 87.8618ZM1211.45 85.4444L1210.94 82.7425L1212.64 79.4743L1216.24 73.6534L1219.84 73.429L1214.95 80.9811L1213.9 81.904L1211.45 85.4444ZM1208.94 89.6963L1207.97 74.1687L1210.97 73.9816L1211.94 89.5093L1208.94 89.6963ZM1217.67 89.1524L1212.61 81.3732L1214.8 79.6074L1221.2 88.932L1217.67 89.1524ZM1222.9 88.8264L1221.93 73.2988L1231.41 72.7075L1231.58 75.4414L1224 75.9141L1224.99 74.8878L1225.3 79.9924L1224.21 79.3635L1231.13 78.9321L1231.3 81.6447L1224.64 82.0601L1225.38 81.274L1225.73 86.8592L1224.62 85.9527L1232.36 85.4706L1232.53 88.2259L1222.9 88.8264ZM1246.85 87.3333L1242.98 81.5173L1241.01 81.6398L1240.29 81.5242L1240.48 79.5719L1240.45 79.2302L1242.84 79.0817C1243.4 79.0467 1243.84 78.9259 1244.17 78.7195C1244.5 78.506 1244.73 78.2237 1244.86 77.8726C1244.99 77.5145 1245.04 77.1004 1245.01 76.6305C1244.97 76.061 1244.84 75.6367 1244.62 75.3576C1244.39 75.0786 1244.11 74.8964 1243.76 74.8109C1243.42 74.7249 1243.03 74.6953 1242.61 74.7219L1240.78 74.8251L1240.27 73.9346L1239.69 72.1912C1239.99 72.1725 1240.28 72.1548 1240.55 72.1379C1240.83 72.1206 1241.14 72.1013 1241.48 72.08C1241.83 72.0582 1242.25 72.0318 1242.75 72.0008C1243.74 71.9391 1244.62 72.0484 1245.4 72.3289C1246.17 72.6022 1246.79 73.0568 1247.25 73.6928C1247.72 74.3283 1247.98 75.1586 1248.05 76.1838C1248.09 76.9242 1248 77.6377 1247.76 78.3243C1247.53 79.0037 1247.13 79.5859 1246.57 80.0708C1246.02 80.5557 1245.28 80.8769 1244.36 81.0342L1244.51 80.8534C1244.8 80.8352 1245.06 80.8444 1245.27 80.8809C1245.5 80.917 1245.71 81.004 1245.9 81.1419C1246.1 81.2724 1246.3 81.4744 1246.5 81.7481L1250.41 87.111L1246.85 87.3333ZM1238.64 87.8447L1237.68 72.317L1240.64 72.1319L1241.61 87.6596L1238.64 87.8447ZM1252.08 87.0072L1251.11 71.4796L1260.59 70.8884L1260.76 73.6223L1253.18 74.095L1254.17 73.0686L1254.48 78.1733L1253.39 77.5444L1260.31 77.113L1260.48 79.8255L1253.82 80.2409L1254.56 79.4548L1254.91 85.04L1253.81 84.1335L1261.54 83.6515L1261.71 86.4067L1252.08 87.0072ZM1263.06 86.3227L1266.97 70.4908L1271.28 70.2218L1277.13 85.4452L1273.96 85.6429L1272.25 80.8718L1274 81.9953L1266.33 82.4734L1266.65 80.0199L1273.14 79.6151L1272.23 80.8404L1270.37 75.6927L1269.31 72.4247L1269.17 72.4334L1268.53 75.8072L1266.22 86.1256L1263.06 86.3227ZM1278.9 85.335L1277.93 69.8073L1280.93 69.6203L1281.83 84.1014L1280.03 82.4665L1287.73 81.9865L1287.9 84.7738L1278.9 85.335ZM1293.71 84.4118L1292.74 68.8841L1302.22 68.2929L1302.39 71.0268L1294.81 71.4995L1295.8 70.4731L1296.12 75.5778L1295.03 74.9489L1301.95 74.5175L1302.12 77.23L1295.45 77.6455L1296.2 76.8593L1296.54 82.4446L1295.44 81.538L1303.17 81.056L1303.34 83.8112L1293.71 84.4118ZM1310.69 83.5675C1309.53 83.6398 1308.49 83.5224 1307.57 83.2153C1306.65 82.901 1305.91 82.3823 1305.36 81.6591C1304.81 80.9284 1304.51 79.9788 1304.45 78.8103L1307.36 78.6292C1307.41 79.1836 1307.56 79.646 1307.81 80.0162C1308.07 80.3789 1308.43 80.6422 1308.9 80.806C1309.37 80.9694 1309.95 81.0298 1310.64 80.9871C1311.24 80.9494 1311.73 80.8545 1312.11 80.7024C1312.48 80.5431 1312.76 80.3296 1312.93 80.0618C1313.1 79.7939 1313.17 79.482 1313.15 79.126C1313.12 78.7344 1312.98 78.4143 1312.73 78.1655C1312.48 77.9096 1312.1 77.6835 1311.58 77.4872C1311.06 77.2838 1310.38 77.0685 1309.55 76.8415C1308.61 76.5717 1307.77 76.2449 1307.05 75.8612C1306.33 75.47 1305.76 74.98 1305.35 74.3913C1304.93 73.7954 1304.7 73.0667 1304.64 72.2053C1304.56 70.8027 1304.96 69.7091 1305.85 68.9243C1306.75 68.1319 1308.02 67.6849 1309.65 67.5833C1310.77 67.5136 1311.7 67.6306 1312.45 67.9342C1313.2 68.2377 1313.78 68.7195 1314.2 69.3794C1314.63 70.039 1314.92 70.8677 1315.07 71.8658L1312.2 72.0449C1312.14 71.6057 1312.01 71.2424 1311.8 70.9549C1311.6 70.6599 1311.34 70.4478 1311 70.3187C1310.67 70.1821 1310.26 70.1288 1309.78 70.159C1309.04 70.2052 1308.48 70.3759 1308.1 70.6713C1307.71 70.9667 1307.54 71.3921 1307.57 71.9474C1307.6 72.3105 1307.7 72.626 1307.87 72.8939C1308.04 73.1547 1308.35 73.4001 1308.78 73.6302C1309.23 73.8528 1309.86 74.0921 1310.68 74.348C1311.38 74.5693 1312.04 74.7817 1312.67 74.9851C1313.31 75.1886 1313.87 75.4392 1314.37 75.7369C1314.88 76.0271 1315.28 76.4058 1315.58 76.8731C1315.89 77.3328 1316.07 77.9362 1316.12 78.6833C1316.22 80.1708 1315.79 81.3304 1314.84 82.1618C1313.88 82.9862 1312.5 83.4548 1310.69 83.5675ZM1321.22 82.6969L1320.49 71.0244C1320.47 70.6756 1320.51 70.4117 1320.63 70.2328C1320.75 70.0469 1320.94 69.9207 1321.2 69.8545L1316.52 70.1461L1316.35 67.4122L1327.13 66.7404L1327.3 69.4743L1323.42 69.716L1324.22 82.5098L1321.22 82.6969ZM1327.26 82.3203L1331.17 66.4883L1335.48 66.2194L1341.33 81.4428L1338.16 81.6405L1336.45 76.8693L1338.2 77.9929L1330.53 78.4709L1330.85 76.0174L1337.35 75.6127L1336.44 76.8379L1334.57 71.6903L1333.51 68.4223L1333.37 68.431L1332.73 71.8048L1330.42 82.1232L1327.26 82.3203ZM1344.39 81.2522L1343.66 69.5797C1343.64 69.2309 1343.69 68.967 1343.81 68.7882C1343.92 68.6022 1344.11 68.4761 1344.37 68.4098L1339.69 68.7014L1339.52 65.9675L1350.3 65.2958L1350.47 68.0297L1346.59 68.2713L1347.39 81.0651L1344.39 81.2522ZM1353.3 80.6967L1352.33 65.169L1361.81 64.5778L1361.99 67.3117L1354.4 67.7844L1355.39 66.7581L1355.71 71.8627L1354.62 71.2338L1361.54 70.8024L1361.71 73.515L1355.04 73.9304L1355.79 73.1443L1356.14 78.7295L1355.03 77.8229L1362.76 77.3409L1362.93 80.0962L1353.3 80.6967ZM1369.05 79.715L1368.08 64.1873L1377.07 63.6267L1377.26 66.3593L1369.56 66.8393L1371.11 65.0381L1371.53 71.6806L1369.8 70.6945L1376.89 70.2524L1377.06 72.965L1370.73 73.3598L1371.57 72.3107L1372.02 79.5299L1369.05 79.715ZM1378 79.1565L1381.92 63.3246L1386.23 63.0556L1392.08 78.279L1388.91 78.4768L1387.2 73.7056L1388.95 74.8292L1381.28 75.3072L1381.6 72.8537L1388.09 72.4489L1387.18 73.6742L1385.32 68.5266L1384.26 65.2586L1384.12 65.2672L1383.48 68.6411L1381.17 78.9595L1378 79.1565ZM1393.85 78.1688L1392.88 62.6412L1397.75 62.3376L1400.43 70.3934L1401.35 73.2843L1401.4 73.281L1401.98 70.2969L1403.58 61.9741L1408.47 61.6692L1409.44 77.1968L1406.5 77.3799L1405.98 69.0394L1405.94 64.4534L1405.86 64.4587L1404.78 69.0285L1402.71 77.6163L1400.64 77.7454L1397.45 69.4853L1395.82 65.0845L1395.72 65.0905L1396.25 69.6459L1396.77 77.9864L1393.85 78.1688ZM1412.57 77.0019L1411.6 61.4743L1414.63 61.2852L1415.6 76.8128L1412.57 77.0019ZM1418.71 76.6188L1417.74 61.0912L1420.74 60.9041L1421.65 75.3852L1419.84 73.7503L1427.54 73.2703L1427.71 76.0576L1418.71 76.6188ZM1430.71 70.9501L1424.72 60.6565L1428.14 60.4428L1430.33 64.7341L1431.89 67.7886L1432.05 67.7786L1433.25 64.563L1434.88 60.0226L1438.31 59.8089L1433.65 70.7664L1430.71 70.9501ZM1430.97 75.8546L1430.55 69.2014L1433.58 69.013L1433.99 75.6661L1430.97 75.8546ZM1450.95 74.9308C1449.66 75.0107 1448.48 74.77 1447.39 74.2088C1446.31 73.6475 1445.42 72.7774 1444.72 71.5986C1444.03 70.4198 1443.63 68.9476 1443.52 67.1819C1443.41 65.4732 1443.61 64.006 1444.13 62.7802C1444.65 61.554 1445.42 60.6023 1446.42 59.9252C1447.42 59.241 1448.6 58.8568 1449.95 58.7724C1451.27 58.6899 1452.47 58.9259 1453.55 59.4805C1454.64 60.0275 1455.52 60.8767 1456.2 62.0279C1456.88 63.1787 1457.28 64.6084 1457.39 66.3171C1457.5 68.0827 1457.29 69.5931 1456.76 70.8483C1456.23 72.1035 1455.46 73.0769 1454.45 73.7687C1453.45 74.46 1452.28 74.8474 1450.95 74.9308ZM1450.77 72.1863C1451.53 72.1392 1452.19 71.9053 1452.75 71.4844C1453.31 71.0564 1453.73 70.4333 1454.01 69.6151C1454.3 68.7964 1454.41 67.7712 1454.34 66.5395C1454.26 65.3648 1454.03 64.3999 1453.65 63.6447C1453.27 62.8824 1452.77 62.3275 1452.15 61.9799C1451.55 61.6247 1450.87 61.4704 1450.12 61.517C1449.41 61.5614 1448.77 61.7978 1448.2 62.2262C1447.64 62.647 1447.21 63.2599 1446.91 64.0648C1446.61 64.8626 1446.5 65.8488 1446.57 67.0236C1446.63 67.9491 1446.78 68.7474 1447.02 69.4184C1447.27 70.0819 1447.58 70.627 1447.96 71.0538C1448.34 71.473 1448.77 71.775 1449.25 71.9598C1449.73 72.144 1450.24 72.2195 1450.77 72.1863ZM1460.38 74.0208L1459.42 58.4931L1468.41 57.9325L1468.6 60.6651L1460.9 61.1451L1462.45 59.3439L1462.86 65.9864L1461.14 65.0003L1468.23 64.5583L1468.4 67.2708L1462.07 67.6656L1462.9 66.6165L1463.35 73.8357L1460.38 74.0208ZM1471.67 73.3173L1470.7 57.7896L1479.69 57.2291L1479.88 59.9616L1472.18 60.4416L1473.73 58.6404L1474.15 65.2829L1472.42 64.2969L1479.52 63.8548L1479.68 66.5673L1473.35 66.9621L1474.19 65.913L1474.64 73.1322L1471.67 73.3173ZM1482.9 72.6172L1481.93 57.0895L1484.96 56.9004L1485.93 72.4281L1482.9 72.6172ZM1495.45 72.0595C1494.04 72.1479 1492.78 71.9116 1491.69 71.3508C1490.6 70.7895 1489.73 69.929 1489.07 68.7694C1488.42 67.6021 1488.04 66.1642 1487.94 64.4555C1487.83 62.8109 1488.03 61.373 1488.51 60.1418C1489.01 58.9103 1489.76 57.9377 1490.78 57.2241C1491.8 56.5101 1493.04 56.1074 1494.51 56.016C1495.57 55.9498 1496.55 56.0921 1497.46 56.4429C1498.37 56.7937 1499.12 57.3547 1499.7 58.1259C1500.29 58.8967 1500.63 59.8761 1500.72 61.0642L1497.66 61.2546C1497.6 60.6223 1497.42 60.1226 1497.12 59.7554C1496.82 59.3883 1496.44 59.1332 1495.98 58.9903C1495.52 58.8474 1495.02 58.7926 1494.49 58.8259C1493.76 58.8716 1493.11 59.1047 1492.56 59.5251C1492.02 59.9451 1491.6 60.5535 1491.31 61.3504C1491.03 62.1473 1490.92 63.1331 1490.99 64.3078C1491.07 65.5537 1491.31 66.5505 1491.69 67.2981C1492.08 68.0385 1492.58 68.565 1493.19 68.8775C1493.79 69.1828 1494.46 69.3128 1495.18 69.2676C1495.87 69.225 1496.42 69.0904 1496.84 68.864C1497.26 68.6305 1497.57 68.3291 1497.76 67.9598C1497.95 67.5905 1498.04 67.1776 1498.03 66.721L1501.08 66.5306C1501.13 67.5928 1500.92 68.5276 1500.46 69.3351C1500.01 70.1351 1499.36 70.7727 1498.5 71.2477C1497.64 71.7157 1496.63 71.9863 1495.45 72.0595ZM1503.64 71.3239L1502.68 55.7962L1512.16 55.205L1512.33 57.9389L1504.75 58.4116L1505.73 57.3852L1506.05 62.4899L1504.96 61.861L1511.88 61.4296L1512.05 64.1421L1505.39 64.5576L1506.13 63.7714L1506.48 69.3567L1505.37 68.4501L1513.1 67.9681L1513.28 70.7233L1503.64 71.3239Z" fill="black"/>
<path d="M1557.88 34.3775L1559.89 54.1573L1564.81 34.8932L1561.41 54.4815L1571.34 37.2582L1562.78 55.2022L1576.99 41.2971L1563.9 56.2661L1581.34 46.7104L1564.7 57.5941L1584.06 53.0965L1565.11 59.0878L1584.97 59.9819L1565.1 60.6364L1583.98 66.8559L1564.67 62.125L1581.18 73.2087L1563.86 63.4433L1576.76 78.5691L1562.72 64.4935L1571.06 82.5395L1561.34 65.1976L1564.51 84.8256L1559.82 65.5036L1557.57 85.2577L1558.28 65.3886L1550.78 83.8038L1556.82 64.8612L1544.64 80.5717L1555.56 63.9605L1539.59 75.8012L1554.59 62.7533L1536.02 69.846L1553.98 61.3292L1534.19 63.1478L1553.78 59.7938L1534.23 56.2035L1554 58.2609L1536.14 49.5279L1554.63 56.8442L1539.79 43.6163L1555.61 55.6488L1544.89 38.907L1556.88 54.7634L1551.07 35.7493L1558.35 54.2536L1557.88 34.3775Z" fill="black"/>
<path d="M1610.96 59.7124L1604.97 49.4187L1608.4 49.205L1610.59 53.4964L1612.15 56.5509L1612.31 56.5409L1613.5 53.3253L1615.14 48.7849L1618.57 48.5712L1613.91 59.5286L1610.96 59.7124ZM1611.23 64.6168L1610.81 57.9636L1613.84 57.7752L1614.25 64.4284L1611.23 64.6168ZM1626.74 63.9714C1625.46 64.0512 1624.28 63.8106 1623.19 63.2493C1622.1 62.688 1621.21 61.818 1620.52 60.6391C1619.82 59.4603 1619.42 57.9881 1619.31 56.2225C1619.2 54.5138 1619.41 53.0465 1619.93 51.8207C1620.45 50.5945 1621.21 49.6428 1622.21 48.9657C1623.21 48.2816 1624.39 47.8973 1625.74 47.813C1627.07 47.7304 1628.27 47.9664 1629.35 48.521C1630.43 49.068 1631.31 49.9172 1631.99 51.0684C1632.68 52.2192 1633.08 53.6489 1633.18 55.3576C1633.29 57.1233 1633.08 58.6337 1632.55 59.8888C1632.02 61.144 1631.26 62.1174 1630.25 62.8092C1629.25 63.5005 1628.08 63.8879 1626.74 63.9714ZM1626.57 61.2268C1627.32 61.1797 1627.98 60.9458 1628.54 60.5249C1629.1 60.097 1629.52 59.4739 1629.81 58.6556C1630.1 57.8369 1630.21 56.8117 1630.13 55.5801C1630.06 54.4053 1629.83 53.4404 1629.45 52.6852C1629.06 51.9229 1628.56 51.368 1627.95 51.0204C1627.34 50.6652 1626.66 50.5109 1625.91 50.5575C1625.2 50.6019 1624.56 50.8383 1624 51.2667C1623.44 51.6876 1623.01 52.3004 1622.71 53.1053C1622.41 53.9031 1622.29 54.8894 1622.37 56.0641C1622.42 56.9896 1622.57 57.7879 1622.82 58.459C1623.06 59.1224 1623.38 59.6676 1623.75 60.0943C1624.14 60.5136 1624.57 60.8155 1625.04 61.0003C1625.53 61.1846 1626.04 61.2601 1626.57 61.2268ZM1641.87 62.9207C1640.68 62.9948 1639.63 62.8247 1638.71 62.4103C1637.79 61.9887 1637.06 61.3305 1636.51 60.4356C1635.97 59.5403 1635.65 58.4233 1635.57 57.0849L1634.98 47.5483L1638.01 47.3592L1638.59 56.6715C1638.63 57.3336 1638.73 57.8992 1638.89 58.3682C1639.05 58.8301 1639.26 59.2028 1639.53 59.4863C1639.8 59.7693 1640.12 59.971 1640.49 60.0912C1640.85 60.2042 1641.26 60.2466 1641.72 60.2182C1642.15 60.1911 1642.53 60.0993 1642.87 59.9427C1643.21 59.7786 1643.49 59.5394 1643.71 59.2253C1643.94 58.9112 1644.1 58.5152 1644.2 58.0373C1644.3 57.5519 1644.33 56.9781 1644.29 56.316L1643.71 47.0037L1646.74 46.8146L1647.34 56.3512C1647.42 57.6754 1647.25 58.8156 1646.81 59.7718C1646.38 60.7279 1645.74 61.4756 1644.88 62.0148C1644.04 62.5464 1643.03 62.8483 1641.87 62.9207ZM1658.92 61.6436L1655.05 55.8276L1653.09 55.9501L1652.36 55.8345L1652.55 53.8822L1652.53 53.5405L1654.91 53.392C1655.47 53.357 1655.92 53.2362 1656.25 53.0298C1656.58 52.8163 1656.81 52.534 1656.94 52.1829C1657.06 51.8248 1657.11 51.4107 1657.08 50.9408C1657.05 50.3713 1656.92 49.947 1656.69 49.668C1656.47 49.3889 1656.18 49.2067 1655.83 49.1212C1655.49 49.0352 1655.11 49.0056 1654.68 49.0322L1652.85 49.1354L1652.35 48.2449L1651.77 46.5015C1652.07 46.4828 1652.35 46.4651 1652.62 46.4482C1652.9 46.4309 1653.21 46.4116 1653.55 46.3903C1653.9 46.3685 1654.32 46.3421 1654.82 46.3111C1655.81 46.2494 1656.69 46.3587 1657.47 46.6392C1658.24 46.9125 1658.86 47.3672 1659.32 48.0031C1659.79 48.6386 1660.06 49.4689 1660.12 50.4941C1660.17 51.2346 1660.07 51.948 1659.84 52.6346C1659.6 53.314 1659.2 53.8962 1658.65 54.3811C1658.09 54.866 1657.35 55.1872 1656.44 55.3446L1656.58 55.1637C1656.88 55.1455 1657.13 55.1547 1657.35 55.1912C1657.57 55.2273 1657.78 55.3143 1657.98 55.4523C1658.18 55.5827 1658.37 55.7847 1658.57 56.0584L1662.49 61.4213L1658.92 61.6436ZM1650.72 62.155L1649.75 46.6273L1652.72 46.4422L1653.69 61.9699L1650.72 62.155ZM1667.88 61.0848L1666.91 45.5571L1672.23 45.2256C1673.39 45.1532 1674.35 45.2613 1675.12 45.5497C1675.88 45.8378 1676.46 46.259 1676.86 46.8135C1677.25 47.3604 1677.48 48.0041 1677.52 48.7445C1677.58 49.6914 1677.36 50.4703 1676.84 51.0811C1676.34 51.6844 1675.64 52.0532 1674.75 52.1874C1675.51 52.2045 1676.15 52.3392 1676.69 52.5916C1677.23 52.8439 1677.65 53.218 1677.95 53.7137C1678.26 54.209 1678.44 54.8376 1678.49 55.5994C1678.55 56.6459 1678.38 57.543 1677.97 58.2904C1677.56 59.0303 1676.96 59.6076 1676.16 60.0222C1675.36 60.4363 1674.4 60.6782 1673.29 60.7479L1667.88 61.0848ZM1670.64 58.3186L1672.78 58.1848C1673.72 58.1262 1674.4 57.9268 1674.82 57.5864C1675.23 57.239 1675.41 56.6417 1675.36 55.7944C1675.32 55.1537 1675.17 54.6911 1674.92 54.4067C1674.66 54.1224 1674.32 53.9506 1673.9 53.8913C1673.48 53.8316 1672.99 53.8191 1672.44 53.8537L1670.37 53.9829L1670.64 58.3186ZM1670.23 51.7402L1672.29 51.6117C1672.85 51.5767 1673.29 51.4704 1673.62 51.2929C1673.95 51.1078 1674.18 50.8576 1674.31 50.5421C1674.45 50.2262 1674.5 49.8404 1674.48 49.3848C1674.44 48.765 1674.2 48.3369 1673.75 48.1005C1673.31 47.8637 1672.73 47.7677 1672.01 47.8126L1669.99 47.9384L1670.23 51.7402ZM1681.17 60.2565L1680.2 44.7288L1689.68 44.1376L1689.86 46.8715L1682.27 47.3442L1683.26 46.3178L1683.58 51.4225L1682.49 50.7936L1689.41 50.3622L1689.58 53.0747L1682.91 53.4902L1683.66 52.704L1684.01 58.2893L1682.9 57.3827L1690.63 56.9007L1690.8 59.6559L1681.17 60.2565ZM1698.15 59.4122C1696.99 59.4846 1695.95 59.3671 1695.03 59.06C1694.11 58.7457 1693.37 58.227 1692.82 57.5038C1692.28 56.7731 1691.97 55.8235 1691.92 54.655L1694.82 54.4739C1694.87 55.0283 1695.02 55.4907 1695.27 55.8609C1695.53 56.2236 1695.89 56.4869 1696.36 56.6507C1696.83 56.8141 1697.41 56.8745 1698.1 56.8318C1698.7 56.7941 1699.19 56.6992 1699.57 56.5471C1699.95 56.3878 1700.22 56.1743 1700.39 55.9065C1700.56 55.6386 1700.63 55.3267 1700.61 54.9707C1700.58 54.5792 1700.45 54.259 1700.19 54.0102C1699.94 53.7543 1699.56 53.5282 1699.04 53.3319C1698.52 53.1285 1697.84 52.9132 1697.01 52.6862C1696.07 52.4164 1695.23 52.0896 1694.51 51.706C1693.79 51.3147 1693.22 50.8247 1692.81 50.236C1692.39 49.6401 1692.16 48.9114 1692.1 48.05C1692.02 46.6474 1692.42 45.5538 1693.31 44.769C1694.22 43.9766 1695.48 43.5296 1697.11 43.428C1698.23 43.3583 1699.16 43.4753 1699.91 43.7789C1700.66 44.0824 1701.24 44.5642 1701.66 45.2242C1702.09 45.8837 1702.38 46.7125 1702.54 47.7105L1699.66 47.8896C1699.6 47.4504 1699.47 47.0871 1699.26 46.7996C1699.07 46.5046 1698.8 46.2925 1698.46 46.1634C1698.13 46.0268 1697.72 45.9735 1697.24 46.0037C1696.5 46.0499 1695.94 46.2206 1695.56 46.516C1695.17 46.8114 1695 47.2368 1695.04 47.7921C1695.06 48.1552 1695.16 48.4707 1695.33 48.7386C1695.5 48.9994 1695.81 49.2448 1696.25 49.4749C1696.69 49.6975 1697.32 49.9368 1698.14 50.1927C1698.84 50.414 1699.5 50.6264 1700.14 50.8298C1700.77 51.0333 1701.34 51.2839 1701.83 51.5816C1702.34 51.8718 1702.74 52.2505 1703.04 52.7178C1703.35 53.1775 1703.53 53.7809 1703.58 54.528C1703.68 56.0155 1703.25 57.1751 1702.3 58.0065C1701.34 58.8309 1699.96 59.2995 1698.15 59.4122ZM1709.79 53.23C1709.44 53.2513 1709.15 53.1693 1708.91 52.9842C1708.67 52.7919 1708.51 52.4944 1708.44 52.0917L1707.8 51.4242L1708.51 50.7689L1710.72 50.6311C1711.32 50.5933 1711.82 50.4695 1712.21 50.2595C1712.6 50.042 1712.88 49.7277 1713.06 49.3166C1713.23 48.9054 1713.3 48.3866 1713.26 47.7601C1713.2 46.7776 1712.91 46.131 1712.39 45.8204C1711.88 45.5021 1711.18 45.3705 1710.3 45.4256L1708.12 45.5614L1707.04 43.0556C1707.34 43.037 1707.7 43.0146 1708.12 42.9884C1708.54 42.9622 1708.94 42.9369 1709.34 42.9125C1709.74 42.8876 1710.05 42.8681 1710.28 42.8539C1712.16 42.7363 1713.61 43.0426 1714.62 43.773C1715.64 44.4958 1716.2 45.7222 1716.31 47.4522C1716.35 48.1428 1716.29 48.8147 1716.13 49.4679C1715.98 50.1206 1715.7 50.7135 1715.29 51.2465C1714.88 51.7724 1714.32 52.2075 1713.61 52.5518C1712.91 52.8889 1712.02 53.0908 1710.95 53.1574L1709.79 53.23ZM1706.01 58.7078L1705.04 43.1801L1708.02 42.9944L1708.99 58.522L1706.01 58.7078ZM1725.48 57.8156C1724.2 57.8954 1723.02 57.6548 1721.93 57.0935C1720.85 56.5322 1719.95 55.6622 1719.26 54.4833C1718.56 53.3045 1718.16 51.8323 1718.05 50.0667C1717.95 48.358 1718.15 46.8907 1718.67 45.6649C1719.19 44.4387 1719.95 43.487 1720.95 42.81C1721.96 42.1258 1723.13 41.7415 1724.49 41.6572C1725.81 41.5746 1727.01 41.8106 1728.09 42.3652C1729.17 42.9123 1730.06 43.7614 1730.73 44.9126C1731.42 46.0634 1731.82 47.4931 1731.92 49.2018C1732.03 50.9675 1731.82 52.4779 1731.3 53.733C1730.77 54.9882 1730 55.9617 1728.99 56.6534C1727.99 57.3447 1726.82 57.7321 1725.48 57.8156ZM1725.31 55.071C1726.07 55.0239 1726.72 54.79 1727.28 54.3691C1727.84 53.9412 1728.26 53.3181 1728.55 52.4998C1728.84 51.6811 1728.95 50.6559 1728.87 49.4243C1728.8 48.2495 1728.57 47.2846 1728.19 46.5294C1727.8 45.7672 1727.3 45.2122 1726.69 44.8646C1726.08 44.5094 1725.4 44.3551 1724.66 44.4017C1723.94 44.4461 1723.31 44.6825 1722.74 45.1109C1722.18 45.5318 1721.75 46.1446 1721.45 46.9495C1721.15 47.7473 1721.03 48.7336 1721.11 49.9083C1721.17 50.8338 1721.32 51.6321 1721.56 52.3032C1721.81 52.9666 1722.12 53.5118 1722.5 53.9386C1722.88 54.3578 1723.31 54.6597 1723.78 54.8445C1724.27 55.0288 1724.78 55.1043 1725.31 55.071ZM1737.43 52.6536L1736.92 49.9517L1738.61 46.6835L1742.22 40.8625L1745.82 40.6382L1740.93 48.1902L1739.88 49.1132L1737.43 52.6536ZM1734.92 56.9055L1733.95 41.3778L1736.95 41.1908L1737.92 56.7184L1734.92 56.9055ZM1743.65 56.3616L1738.59 48.5823L1740.78 46.8166L1747.18 56.1412L1743.65 56.3616ZM1748.87 56.0356L1747.91 40.5079L1757.39 39.9167L1757.56 42.6506L1749.98 43.1233L1750.96 42.0969L1751.28 47.2016L1750.19 46.5727L1757.11 46.1413L1757.28 48.8538L1750.62 49.2693L1751.36 48.4831L1751.71 54.0684L1750.6 53.1618L1758.34 52.6798L1758.51 55.435L1748.87 56.0356ZM1772.82 54.5425L1768.96 48.7264L1766.99 48.8489L1766.27 48.7334L1766.45 46.7811L1766.43 46.4394L1768.81 46.2909C1769.38 46.2558 1769.82 46.1351 1770.15 45.9287C1770.48 45.7151 1770.71 45.4329 1770.84 45.0818C1770.97 44.7236 1771.02 44.3096 1770.99 43.8397C1770.95 43.2701 1770.82 42.8458 1770.6 42.5668C1770.37 42.2878 1770.09 42.1055 1769.74 42.02C1769.4 41.9341 1769.01 41.9045 1768.59 41.9311L1766.76 42.0343L1766.25 41.1438L1765.67 39.4003C1765.97 39.3817 1766.26 39.3639 1766.53 39.3471C1766.8 39.3298 1767.11 39.3105 1767.46 39.2892C1767.8 39.2674 1768.23 39.241 1768.73 39.2099C1769.72 39.1482 1770.6 39.2576 1771.37 39.5381C1772.15 39.8114 1772.77 40.266 1773.23 40.9019C1773.7 41.5374 1773.96 42.3678 1774.03 43.393C1774.07 44.1334 1773.98 44.8469 1773.74 45.5334C1773.51 46.2129 1773.11 46.795 1772.55 47.28C1772 47.7649 1771.26 48.086 1770.34 48.2434L1770.49 48.0626C1770.78 48.0444 1771.04 48.0535 1771.25 48.09C1771.48 48.1261 1771.69 48.2131 1771.88 48.3511C1772.08 48.4815 1772.28 48.6836 1772.48 48.9573L1776.39 54.3201L1772.82 54.5425ZM1764.62 55.0538L1763.65 39.5262L1766.62 39.3411L1767.59 54.8687L1764.62 55.0538ZM1778.05 54.2164L1777.09 38.6888L1786.57 38.0975L1786.74 40.8314L1779.16 41.3041L1780.14 40.2778L1780.46 45.3824L1779.37 44.7535L1786.29 44.3221L1786.46 47.0347L1779.8 47.4501L1780.54 46.664L1780.89 52.2492L1779.78 51.3426L1787.52 50.8606L1787.69 53.6159L1778.05 54.2164ZM1789.04 53.5319L1792.95 37.6999L1797.26 37.431L1803.11 52.6544L1799.94 52.8521L1798.23 48.0809L1799.98 49.2045L1792.31 49.6825L1792.63 47.229L1799.12 46.8243L1798.21 48.0495L1796.35 42.9019L1795.29 39.6339L1795.15 39.6426L1794.51 43.0164L1792.2 53.3348L1789.04 53.5319ZM1804.88 52.5442L1803.91 37.0165L1806.91 36.8294L1807.81 51.3105L1806.01 49.6757L1813.71 49.1956L1813.88 51.9829L1804.88 52.5442ZM1819.69 51.6209L1818.72 36.0933L1828.2 35.5021L1828.37 38.236L1820.79 38.7087L1821.78 37.6823L1822.1 42.787L1821.01 42.1581L1827.93 41.7266L1828.09 44.4392L1821.43 44.8546L1822.18 44.0685L1822.52 49.6537L1821.42 48.7472L1829.15 48.2652L1829.32 51.0204L1819.69 51.6209ZM1836.67 50.7767C1835.51 50.849 1834.47 50.7316 1833.55 50.4244C1832.63 50.1101 1831.89 49.5914 1831.34 48.8683C1830.79 48.1375 1830.49 47.1879 1830.43 46.0195L1833.34 45.8384C1833.39 46.3928 1833.54 46.8551 1833.79 47.2254C1834.05 47.5881 1834.41 47.8513 1834.88 48.0152C1835.35 48.1785 1835.93 48.2389 1836.62 48.1963C1837.22 48.1586 1837.71 48.0637 1838.09 47.9115C1838.46 47.7523 1838.74 47.5388 1838.91 47.2709C1839.07 47.0031 1839.15 46.6912 1839.13 46.3352C1839.1 45.9436 1838.96 45.6234 1838.71 45.3747C1838.46 45.1188 1838.07 44.8927 1837.55 44.6964C1837.03 44.4929 1836.36 44.2777 1835.53 44.0506C1834.59 43.7808 1833.75 43.4541 1833.03 43.0704C1832.31 42.6792 1831.74 42.1892 1831.33 41.6004C1830.91 41.0046 1830.68 40.2759 1830.62 39.4144C1830.53 38.0119 1830.94 36.9182 1831.83 36.1334C1832.73 35.3411 1834 34.8941 1835.63 34.7925C1836.75 34.7228 1837.68 34.8397 1838.43 35.1433C1839.18 35.4469 1839.76 35.9287 1840.18 36.5886C1840.61 37.2481 1840.9 38.0769 1841.05 39.075L1838.18 39.2541C1838.12 38.8149 1837.98 38.4516 1837.78 38.1641C1837.58 37.869 1837.32 37.657 1836.98 37.5279C1836.65 37.3912 1836.24 37.338 1835.76 37.3682C1835.02 37.4143 1834.46 37.5851 1834.07 37.8805C1833.69 38.1759 1833.52 38.6013 1833.55 39.1566C1833.58 39.5197 1833.67 39.8352 1833.85 40.1031C1834.02 40.3638 1834.33 40.6093 1834.76 40.8394C1835.21 41.062 1835.84 41.3012 1836.66 41.5572C1837.35 41.7785 1838.02 41.9908 1838.65 42.1943C1839.29 42.3977 1839.85 42.6483 1840.35 42.9461C1840.86 43.2363 1841.26 43.615 1841.56 44.0823C1841.87 44.542 1842.05 45.1454 1842.1 45.8925C1842.2 47.38 1841.77 48.5395 1840.82 49.371C1839.86 50.1954 1838.48 50.6639 1836.67 50.7767ZM1847.2 49.906L1846.47 38.2336C1846.45 37.8847 1846.49 37.6209 1846.61 37.442C1846.73 37.256 1846.92 37.1299 1847.18 37.0637L1842.5 37.3553L1842.33 34.6214L1853.1 33.9496L1853.27 36.6835L1849.4 36.9252L1850.2 49.7189L1847.2 49.906ZM1853.24 49.5294L1857.15 33.6975L1861.46 33.4285L1867.31 48.6519L1864.14 48.8497L1862.43 44.0785L1864.18 45.2021L1856.51 45.6801L1856.83 43.2266L1863.32 42.8218L1862.41 44.0471L1860.55 38.8995L1859.49 35.6315L1859.35 35.6401L1858.71 39.014L1856.4 49.3324L1853.24 49.5294ZM1870.37 48.4613L1869.64 36.7889C1869.62 36.44 1869.67 36.1762 1869.78 35.9973C1869.9 35.8114 1870.09 35.6852 1870.35 35.619L1865.67 35.9106L1865.5 33.1767L1876.28 32.5049L1876.45 35.2388L1872.57 35.4805L1873.37 48.2743L1870.37 48.4613ZM1879.28 47.9059L1878.31 32.3782L1887.79 31.787L1887.96 34.5209L1880.38 34.9936L1881.37 33.9672L1881.69 39.0719L1880.6 38.443L1887.52 38.0116L1887.69 40.7241L1881.02 41.1396L1881.77 40.3534L1882.11 45.9387L1881.01 45.0321L1888.74 44.5501L1888.91 47.3053L1879.28 47.9059ZM1895.03 46.9241L1894.06 31.3965L1903.05 30.8359L1903.24 33.5684L1895.54 34.0485L1897.09 32.2473L1897.51 38.8898L1895.78 37.9037L1902.87 37.4616L1903.04 40.1741L1896.71 40.5689L1897.54 39.5198L1897.99 46.739L1895.03 46.9241ZM1903.98 46.3657L1907.9 30.5338L1912.21 30.2648L1918.06 45.4882L1914.89 45.6859L1913.17 40.9148L1914.93 42.0384L1907.26 42.5164L1907.58 40.0629L1914.07 39.6581L1913.16 40.8834L1911.3 35.7357L1910.24 32.4678L1910.1 32.4764L1909.46 35.8503L1907.14 46.1686L1903.98 46.3657ZM1919.83 45.378L1918.86 29.8504L1923.73 29.5468L1926.41 37.6026L1927.33 40.4935L1927.38 40.4901L1927.95 37.5061L1929.56 29.1833L1934.45 28.8783L1935.42 44.406L1932.48 44.5891L1931.96 36.2486L1931.92 31.6625L1931.84 31.6679L1930.76 36.2377L1928.69 44.8254L1926.62 44.9546L1923.43 36.6944L1921.8 32.2937L1921.7 32.2997L1922.23 36.8551L1922.75 45.1956L1919.83 45.378ZM1938.54 44.2111L1937.58 28.6834L1940.61 28.4943L1941.58 44.022L1938.54 44.2111ZM1944.69 43.828L1943.72 28.3004L1946.72 28.1133L1947.62 42.5944L1945.82 40.9595L1953.52 40.4795L1953.69 43.2668L1944.69 43.828ZM1956.69 38.1593L1950.69 27.8656L1954.12 27.6519L1956.31 31.9433L1957.87 34.9978L1958.03 34.9878L1959.22 31.7722L1960.86 27.2318L1964.29 27.0181L1959.63 37.9755L1956.69 38.1593ZM1956.95 43.0637L1956.53 36.4105L1959.56 36.2221L1959.97 42.8753L1956.95 43.0637ZM1976.92 42.14C1975.64 42.2199 1974.46 41.9792 1973.37 41.4179C1972.29 40.8567 1971.4 39.9866 1970.7 38.8078C1970.01 37.629 1969.6 36.1567 1969.49 34.3911C1969.39 32.6824 1969.59 31.2152 1970.11 29.9894C1970.63 28.7631 1971.4 27.8115 1972.4 27.1344C1973.4 26.4502 1974.57 26.0659 1975.93 25.9816C1977.25 25.899 1978.45 26.1351 1979.53 26.6897C1980.62 27.2367 1981.5 28.0858 1982.18 29.2371C1982.86 30.3878 1983.26 31.8176 1983.37 33.5263C1983.48 35.2919 1983.27 36.8023 1982.74 38.0575C1982.21 39.3126 1981.44 40.2861 1980.43 40.9779C1979.43 41.6692 1978.26 42.0566 1976.92 42.14ZM1976.75 39.3954C1977.51 39.3484 1978.17 39.1144 1978.72 38.6936C1979.28 38.2656 1979.71 37.6425 1979.99 36.8243C1980.28 36.0056 1980.39 34.9804 1980.31 33.7487C1980.24 32.574 1980.01 31.609 1979.63 30.8539C1979.25 30.0916 1978.75 29.5366 1978.13 29.189C1977.52 28.8339 1976.85 28.6796 1976.1 28.7262C1975.39 28.7706 1974.75 29.007 1974.18 29.4354C1973.62 29.8562 1973.19 30.4691 1972.89 31.274C1972.59 32.0718 1972.48 33.058 1972.55 34.2327C1972.61 35.1583 1972.76 35.9566 1973 36.6276C1973.25 37.2911 1973.56 37.8362 1973.94 38.263C1974.32 38.6822 1974.75 38.9842 1975.23 39.1689C1975.71 39.3532 1976.22 39.4287 1976.75 39.3954ZM1986.36 41.2299L1985.39 25.7023L1994.39 25.1417L1994.58 27.8743L1986.88 28.3543L1988.43 26.5531L1988.84 33.1956L1987.12 32.2095L1994.21 31.7674L1994.38 34.48L1988.05 34.8748L1988.88 33.8257L1989.33 41.0449L1986.36 41.2299ZM1997.65 40.5265L1996.68 24.9988L2005.67 24.4382L2005.86 27.1708L1998.16 27.6508L1999.71 25.8496L2000.13 32.4921L1998.4 31.506L2005.49 31.064L2005.66 33.7765L1999.33 34.1713L2000.17 33.1222L2000.62 40.3414L1997.65 40.5265ZM2008.88 39.8263L2007.91 24.2987L2010.94 24.1096L2011.91 39.6373L2008.88 39.8263ZM2021.43 39.2687C2020.02 39.357 2018.76 39.1208 2017.67 38.56C2016.58 37.9987 2015.71 37.1382 2015.05 35.9785C2014.4 34.8113 2014.02 33.3733 2013.92 31.6646C2013.81 30.02 2014.01 28.5822 2014.49 27.351C2014.99 26.1194 2015.74 25.1469 2016.76 24.4333C2017.78 23.7193 2019.02 23.3166 2020.49 23.2251C2021.55 23.159 2022.53 23.3013 2023.44 23.6521C2024.35 24.0029 2025.09 24.5639 2025.68 25.3351C2026.27 26.1058 2026.61 27.0853 2026.7 28.2733L2023.64 28.4638C2023.58 27.8314 2023.4 27.3317 2023.1 26.9646C2022.8 26.5974 2022.42 26.3424 2021.96 26.1995C2021.5 26.0566 2021 26.0018 2020.47 26.0351C2019.74 26.0808 2019.09 26.3139 2018.54 26.7343C2017.99 27.1542 2017.58 27.7626 2017.29 28.5595C2017.01 29.3564 2016.9 30.3422 2016.97 31.5169C2017.05 32.7629 2017.28 33.7596 2017.67 34.5072C2018.06 35.2477 2018.56 35.7742 2019.17 36.0866C2019.77 36.392 2020.44 36.522 2021.16 36.4767C2021.85 36.4341 2022.4 36.2996 2022.82 36.0732C2023.24 35.8397 2023.55 35.5382 2023.74 35.1689C2023.93 34.7997 2024.02 34.3867 2024.01 33.9302L2027.06 33.7398C2027.1 34.8019 2026.9 35.7368 2026.44 36.5443C2025.99 37.3443 2025.34 37.9818 2024.48 38.4569C2023.62 38.9249 2022.61 39.1955 2021.43 39.2687ZM2029.62 38.533L2028.65 23.0054L2038.14 22.4142L2038.31 25.1481L2030.73 25.6208L2031.71 24.5944L2032.03 29.6991L2030.94 29.0702L2037.86 28.6388L2038.03 31.3513L2031.37 31.7667L2032.11 30.9806L2032.46 36.5659L2031.35 35.6593L2039.08 35.1773L2039.26 37.9325L2029.62 38.533Z" fill="black"/>
</svg>
