<svg width="51" height="51" viewBox="0 0 51 51" fill="none" xmlns="http://www.w3.org/2000/svg">
<path d="M23.6964 1.60411e-05L25.7054 19.7798L30.6218 0.51572L27.2197 20.104L37.1511 2.88073L28.5904 20.8248L42.8003 6.91964L29.7157 21.8886L47.1503 12.3329L30.5124 23.2166L49.8785 18.7191L30.9212 24.7103L50.7826 25.6045L30.9119 26.2589L49.7955 32.4784L30.4851 27.7475L46.9905 38.8312L29.6724 29.0658L42.5754 44.1916L28.5343 30.116L36.8779 48.162L27.155 30.8202L30.3205 50.4481L25.6369 31.1261L23.3894 50.8802L24.0926 31.0111L16.5988 49.4263L22.6365 30.4837L10.4523 46.1942L21.3768 29.583L5.40572 41.4237L20.4067 28.3759L1.83334 35.4685L19.7983 26.9517L0.000111695 28.7704L19.5967 25.4163L0.0420114 21.826L19.8168 23.8834L1.95593 15.1504L20.4424 22.4667L5.59991 9.23881L21.4269 21.2714L10.7037 4.52953L22.6974 20.386L16.8888 1.37187L24.1598 19.8762L23.6964 1.60411e-05Z" fill="black"/>
</svg>
